{
.appVersion = "1357";
DisplayStrings = (

glyphs = (
{
glyphname = A;
lastChange = "2021-01-14 22:28:21 +0000";
layers = (
{
anchors = (
{
name = BOTTOM;
position = "{344, 0}";
},
{
name = TOP;
position = "{361, 707}";
}
);
components = (
{
name = serifUC;
transform = "{1, 0, 0, 1, 133, 0}";
},
{
name = serifUC;
transform = "{-0.82, 0, 0, 1, 76, 0}";
},
{
name = serifUC;
transform = "{0.88, 0, 0, 1, 644, 0}";
},
{
name = serifUC;
transform = "{-1, 0, 0, 1, 552, 0}";
}
);
layerId = "6D97EE47-94AA-478E-ABFB-936E6C32B491";
paths = (
{
closed = 1;
nodes = (
"208 249 LINE",
"208 300 LINE",
"503 300 LINE",
"503 249 LINE"
);
},
{
closed = 1;
nodes = (
"118 9 LINE",
"68 29 LINE",
"338 692 LINE",
"389 673 LINE"
);
},
{
closed = 1;
nodes = (
"564 12 LINE",
"312 707 LINE",
"394 737 LINE",
"646 42 LINE"
);
},
{
closed = 1;
nodes = (
"133 46 LINE",
"133 0 LINE",
"76 0 LINE",
"76 48 LINE"
);
},
{
closed = 1;
nodes = (
"644 43 LINE",
"644 0 LINE",
"551 0 LINE",
"552 46 LINE"
);
}
);
width = 715;
}
);
leftKerningGroup = A;
rightKerningGroup = A;
unicode = 0041;
},
{
glyphname = AE;
lastChange = "2021-01-14 23:59:44 +0000";
layers = (
{
anchors = (
{
name = TOP;
position = "{645, 707}";
}
);
background = {
paths = (
{
closed = 1;
nodes = (
"2255 249 LINE",
"2255 300 LINE",
"2550 300 LINE",
"2550 249 LINE"
);
},
{
closed = 1;
nodes = (
"2178 48 LINE",
"2178 0 LINE",
"2120 0 LINE",
"2120 48 LINE"
);
},
{
closed = 1;
nodes = (
"2503 342 LINE",
"2503 393 LINE",
"2847 393 LINE",
"2847 342 LINE"
);
},
{
closed = 1;
nodes = (
"2540 0 LINE",
"2467 696 LINE",
"2554 705 LINE",
"2628 0 LINE"
);
},
{
closed = 1;
nodes = (
"2462 656 LINE",
"2462 707 LINE",
"2881 707 LINE",
"2881 656 LINE"
);
},
{
closed = 1;
nodes = (
"2541 0 LINE",
"2541 51 LINE",
"2943 51 LINE",
"2943 0 LINE"
);
},
{
closed = 1;
nodes = (
"2812 406 OFFCURVE",
"2814 444 OFFCURVE",
"2814 463 CURVE",
"2825 463 OFFCURVE",
"2840 463 OFFCURVE",
"2847 463 CURVE",
"2847 376 LINE",
"2799 376 LINE"
);
},
{
closed = 1;
nodes = (
"2847 351 LINE",
"2847 263 LINE",
"2840 263 OFFCURVE",
"2825 263 OFFCURVE",
"2814 263 CURVE",
"2814 282 OFFCURVE",
"2812 321 OFFCURVE",
"2799 351 CURVE"
);
},
{
closed = 1;
nodes = (
"2825 704 LINE",
"2881 707 LINE",
"2886 571 LINE",
"2879 571 OFFCURVE",
"2867 571 OFFCURVE",
"2854 570 CURVE",
"2853 589 OFFCURVE",
"2847 628 OFFCURVE",
"2833 658 CURVE"
);
},
{
closed = 1;
nodes = (
"2917 85 OFFCURVE",
"2942 146 OFFCURVE",
"2945 159 CURVE",
"2956 156 OFFCURVE",
"2970 153 OFFCURVE",
"2976 151 CURVE",
"2943 0 LINE",
"2873 13 LINE",
"2892 51 LINE"
);
},
{
closed = 1;
nodes = (
"2165 23 LINE",
"2120 47 LINE",
"2458 679 LINE",
"2512 671 LINE"
);
},
{
closed = 1;
nodes = (
"1210 249 LINE",
"1210 300 LINE",
"1505 300 LINE",
"1505 249 LINE"
);
},
{
closed = 1;
nodes = (
"1134 48 LINE",
"1134 0 LINE",
"1076 0 LINE",
"1076 48 LINE"
);
},
{
closed = 1;
nodes = (
"1459 342 LINE",
"1459 393 LINE",
"1802 393 LINE",
"1802 342 LINE"
);
},
{
closed = 1;
nodes = (
"1459 0 LINE",
"1459 707 LINE",
"1547 707 LINE",
"1547 0 LINE"
);
},
{
closed = 1;
nodes = (
"1418 656 LINE",
"1418 707 LINE",
"1837 707 LINE",
"1837 656 LINE"
);
},
{
closed = 1;
nodes = (
"1459 0 LINE",
"1459 51 LINE",
"1861 51 LINE",
"1861 0 LINE"
);
},
{
closed = 1;
nodes = (
"1767 406 OFFCURVE",
"1770 444 OFFCURVE",
"1770 463 CURVE",
"1781 463 OFFCURVE",
"1795 463 OFFCURVE",
"1802 463 CURVE",
"1802 376 LINE",
"1754 376 LINE"
);
},
{
closed = 1;
nodes = (
"1802 351 LINE",
"1802 263 LINE",
"1795 263 OFFCURVE",
"1781 263 OFFCURVE",
"1770 263 CURVE",
"1770 282 OFFCURVE",
"1767 321 OFFCURVE",
"1754 351 CURVE"
);
},
{
closed = 1;
nodes = (
"1780 704 LINE",
"1837 707 LINE",
"1842 571 LINE",
"1835 571 OFFCURVE",
"1822 571 OFFCURVE",
"1809 570 CURVE",
"1809 589 OFFCURVE",
"1803 628 OFFCURVE",
"1788 658 CURVE"
);
},
{
closed = 1;
nodes = (
"1835 85 OFFCURVE",
"1859 146 OFFCURVE",
"1863 159 CURVE",
"1874 156 OFFCURVE",
"1888 153 OFFCURVE",
"1894 151 CURVE",
"1861 0 LINE",
"1790 13 LINE",
"1809 51 LINE"
);
},
{
closed = 1;
nodes = (
"1120 23 LINE",
"1075 47 LINE",
"1413 679 LINE",
"1468 671 LINE"
);
},
{
closed = 1;
nodes = (
"134 48 LINE",
"134 0 LINE",
"76 0 LINE",
"76 48 LINE"
);
},
{
closed = 1;
nodes = (
"259 314 LINE",
"259 363 LINE",
"797 363 LINE",
"797 314 LINE"
);
},
{
closed = 1;
nodes = (
"459 0 LINE",
"459 707 LINE",
"547 707 LINE",
"547 0 LINE"
);
},
{
closed = 1;
nodes = (
"418 656 LINE",
"418 707 LINE",
"837 707 LINE",
"837 656 LINE"
);
},
{
closed = 1;
nodes = (
"459 0 LINE",
"459 51 LINE",
"861 51 LINE",
"861 0 LINE"
);
},
{
closed = 1;
nodes = (
"762 376 OFFCURVE",
"765 414 OFFCURVE",
"765 433 CURVE",
"797 433 LINE",
"797 346 LINE",
"749 346 LINE"
);
},
{
closed = 1;
nodes = (
"797 323 LINE",
"797 235 LINE",
"765 235 LINE",
"765 254 OFFCURVE",
"762 293 OFFCURVE",
"749 323 CURVE"
);
},
{
closed = 1;
nodes = (
"780 704 LINE",
"837 707 LINE",
"842 571 LINE",
"809 570 LINE",
"809 589 OFFCURVE",
"803 628 OFFCURVE",
"788 658 CURVE"
);
},
{
closed = 1;
nodes = (
"835 85 OFFCURVE",
"859 146 OFFCURVE",
"863 159 CURVE",
"894 151 LINE",
"861 0 LINE",
"790 13 LINE",
"809 51 LINE"
);
},
{
closed = 1;
nodes = (
"120 23 LINE",
"75 47 LINE",
"413 679 LINE",
"468 671 LINE"
);
}
);
};
components = (
{
name = serifUC;
transform = "{1, 0, 0, 1, 136, 0}";
},
{
name = serifUC;
transform = "{-0.82, 0, 0, 1, 76, 0}";
},
{
name = serifUC;
transform = "{-1, 0, 0, 1, 460, 0}";
},
{
name = serifUC;
transform = "{-1, 0, 0, -1, 420, 707}";
}
);
guideLines = (
{
angle = 62;
position = "{278, 428}";
},
{
angle = 62;
position = "{343, 433}";
}
);
layerId = "6D97EE47-94AA-478E-ABFB-936E6C32B491";
paths = (
{
closed = 1;
nodes = (
"210 249 LINE",
"210 300 LINE",
"505 300 LINE",
"505 249 LINE"
);
},
{
closed = 1;
nodes = (
"460 342 LINE",
"460 393 LINE",
"797 393 LINE",
"797 342 LINE"
);
},
{
closed = 1;
nodes = (
"460 0 LINE",
"460 707 LINE",
"547 707 LINE",
"547 0 LINE"
);
},
{
closed = 1;
nodes = (
"418 656 LINE",
"418 707 LINE",
"837 707 LINE",
"837 656 LINE"
);
},
{
closed = 1;
nodes = (
"460 0 LINE",
"460 51 LINE",
"861 51 LINE",
"861 0 LINE"
);
},
{
closed = 1;
nodes = (
"762 406 OFFCURVE",
"765 444 OFFCURVE",
"765 463 CURVE",
"797 463 LINE",
"797 376 LINE",
"749 376 LINE"
);
},
{
closed = 1;
nodes = (
"797 351 LINE",
"797 263 LINE",
"765 263 LINE",
"765 282 OFFCURVE",
"762 321 OFFCURVE",
"749 351 CURVE"
);
},
{
closed = 1;
nodes = (
"780 704 LINE",
"837 707 LINE",
"842 571 LINE",
"809 569 LINE",
"807 592 OFFCURVE",
"803 628 OFFCURVE",
"788 658 CURVE"
);
},
{
closed = 1;
nodes = (
"835 85 OFFCURVE",
"859 146 OFFCURVE",
"863 159 CURVE",
"874 156 OFFCURVE",
"888 153 OFFCURVE",
"894 151 CURVE",
"861 0 LINE",
"790 13 LINE",
"809 51 LINE"
);
},
{
closed = 1;
nodes = (
"136 45 LINE",
"136 0 LINE",
"74 0 LINE",
"74 44 LINE",
"413 681 LINE",
"469 671 LINE"
);
}
);
width = 919;
}
);
leftKerningGroup = AE;
leftMetricsKey = A;
rightKerningGroup = E;
rightMetricsKey = E;
unicode = 00C6;
},
{
glyphname = B;
lastChange = "2020-11-21 19:04:04 +0000";
layers = (
{
background = {
paths = (
{
closed = 1;
nodes = (
"620 137 OFFCURVE",
"547 0 OFFCURVE",
"360 0 CURVE SMOOTH",
"319 0 OFFCURVE",
"281 0 OFFCURVE",
"225 0 CURVE SMOOTH",
"138 0 LINE",
"138 682 LINE",
"50 695 LINE",
"207 707 OFFCURVE",
"267 712 OFFCURVE",
"336 712 CURVE SMOOTH",
"440 712 OFFCURVE",
"495 669 OFFCURVE",
"520 613 CURVE SMOOTH",
"559 526 OFFCURVE",
"508 432 OFFCURVE",
"436 398 CURVE",
"485 382 OFFCURVE",
"573 332 OFFCURVE",
"595 238 CURVE SMOOTH"
);
},
{
closed = 1;
nodes = (
"404 662 OFFCURVE",
"331 677 OFFCURVE",
"225 664 CURVE",
"225 395 LINE",
"249 394 OFFCURVE",
"349 388 OFFCURVE",
"396 419 CURVE SMOOTH",
"440 447 OFFCURVE",
"467 512 OFFCURVE",
"439 579 CURVE SMOOTH"
);
},
{
closed = 1;
nodes = (
"487 77 OFFCURVE",
"524 136 OFFCURVE",
"504 217 CURVE SMOOTH",
"489 276 OFFCURVE",
"445 316 OFFCURVE",
"392 334 CURVE SMOOTH",
"338 354 OFFCURVE",
"275 349 OFFCURVE",
"225 349 CURVE",
"225 69 LINE",
"252 46 OFFCURVE",
"348 33 OFFCURVE",
"415 54 CURVE SMOOTH"
);
},
{
closed = 1;
nodes = (
"111 666 OFFCURVE",
"72 664 OFFCURVE",
"53 663 CURVE",
"50 695 LINE",
"138 692 LINE",
"142 655 LINE"
);
}
);
};
layerId = "6D97EE47-94AA-478E-ABFB-936E6C32B491";
paths = (
{
closed = 1;
nodes = (
"620 137 OFFCURVE",
"547 0 OFFCURVE",
"360 0 CURVE SMOOTH",
"319 0 OFFCURVE",
"281 0 OFFCURVE",
"225 0 CURVE SMOOTH",
"138 0 LINE",
"138 691 LINE",
"50 704 LINE",
"207 716 OFFCURVE",
"267 721 OFFCURVE",
"336 721 CURVE SMOOTH",
"440 721 OFFCURVE",
"495 678 OFFCURVE",
"520 622 CURVE SMOOTH",
"559 535 OFFCURVE",
"508 432 OFFCURVE",
"436 398 CURVE",
"485 382 OFFCURVE",
"573 332 OFFCURVE",
"595 238 CURVE SMOOTH"
);
},
{
closed = 1;
nodes = (
"404 671 OFFCURVE",
"331 686 OFFCURVE",
"225 673 CURVE",
"225 395 LINE",
"249 394 OFFCURVE",
"349 388 OFFCURVE",
"396 419 CURVE SMOOTH",
"440 447 OFFCURVE",
"467 521 OFFCURVE",
"439 588 CURVE SMOOTH"
);
},
{
closed = 1;
nodes = (
"487 77 OFFCURVE",
"524 136 OFFCURVE",
"504 217 CURVE SMOOTH",
"489 276 OFFCURVE",
"445 316 OFFCURVE",
"392 334 CURVE SMOOTH",
"338 354 OFFCURVE",
"275 349 OFFCURVE",
"225 349 CURVE",
"225 69 LINE",
"252 46 OFFCURVE",
"348 33 OFFCURVE",
"415 54 CURVE SMOOTH"
);
},
{
closed = 1;
nodes = (
"138 0 LINE",
"50 0 LINE",
"50 30 LINE",
"69 30 OFFCURVE",
"108 33 OFFCURVE",
"138 46 CURVE"
);
},
{
closed = 1;
nodes = (
"116 676 OFFCURVE",
"73 676 OFFCURVE",
"53 674 CURVE",
"50 704 LINE",
"146 711 LINE",
"151 666 LINE"
);
}
);
width = 625;
}
);
leftKerningGroup = H;
leftMetricsKey = H;
rightKerningGroup = B;
rightMetricsKey = "=H/2";
unicode = 0042;
},
{
glyphname = C;
lastChange = "2020-06-27 22:31:47 +0000";
layers = (
{
anchors = (
{
name = BOTTOM;
position = "{404, 0}";
},
{
name = TOP;
position = "{404, 707}";
}
);
layerId = "6D97EE47-94AA-478E-ABFB-936E6C32B491";
paths = (
{
closed = 1;
nodes = (
"716 161 LINE",
"638 13 LINE",
"314 -73 OFFCURVE",
"114 61 OFFCURVE",
"62 257 CURVE SMOOTH",
"9 453 OFFCURVE",
"131 656 OFFCURVE",
"328 708 CURVE SMOOTH",
"449 741 OFFCURVE",
"586 706 OFFCURVE",
"653 688 CURVE",
"673 546 LINE",
"643 540 LINE",
"595 667 OFFCURVE",
"458 692 OFFCURVE",
"340 661 CURVE SMOOTH",
"192 622 OFFCURVE",
"114 456 OFFCURVE",
"159 283 CURVE SMOOTH",
"200 123 OFFCURVE",
"354 5 OFFCURVE",
"505 38 CURVE SMOOTH",
"588 56 OFFCURVE",
"629 87 OFFCURVE",
"686 176 CURVE"
);
}
);
width = 741;
}
);
leftKerningGroup = O;
leftMetricsKey = O;
rightKerningGroup = C;
rightMetricsKey = "=H/2";
unicode = 0043;
},
{
glyphname = D;
lastChange = "2020-11-21 19:03:56 +0000";
layers = (
{
anchors = (
{
name = TOP;
position = "{380, 707}";
}
);
background = {
paths = (
{
closed = 1;
nodes = (
"1138 0 LINE",
"1138 691 LINE",
"1225 707 LINE",
"1225 0 LINE"
);
},
{
closed = 1;
nodes = (
"1110 666 OFFCURVE",
"1071 664 OFFCURVE",
"1053 663 CURVE",
"1051 674 OFFCURVE",
"1050 688 OFFCURVE",
"1050 695 CURVE",
"1137 703 LINE",
"1141 655 LINE"
);
},
{
closed = 1;
nodes = (
"1050 695 LINE",
"1204 709 OFFCURVE",
"1370 737 OFFCURVE",
"1524 692 CURVE SMOOTH",
"1641 658 OFFCURVE",
"1735 574 OFFCURVE",
"1770 451 CURVE SMOOTH",
"1825 256 OFFCURVE",
"1687 71 OFFCURVE",
"1491 17 CURVE SMOOTH",
"1451 6 OFFCURVE",
"1373 0 OFFCURVE",
"1310 0 CURVE SMOOTH",
"1235 0 OFFCURVE",
"1249 0 OFFCURVE",
"1211 0 CURVE",
"1211 74 LINE",
"1271 49 OFFCURVE",
"1361 33 OFFCURVE",
"1479 64 CURVE SMOOTH",
"1626 103 OFFCURVE",
"1718 252 OFFCURVE",
"1673 424 CURVE SMOOTH",
"1631 584 OFFCURVE",
"1470 699 OFFCURVE",
"1224 664 CURVE"
);
},
{
closed = 1;
nodes = (
"138 0 LINE",
"138 691 LINE",
"225 707 LINE",
"225 0 LINE"
);
},
{
closed = 1;
nodes = (
"121 662 OFFCURVE",
"97 664 OFFCURVE",
"78 664 CURVE SMOOTH",
"68 664 OFFCURVE",
"59 663 OFFCURVE",
"53 663 CURVE",
"50 695 LINE",
"137 703 LINE",
"141 655 LINE"
);
},
{
closed = 1;
nodes = (
"50 695 LINE",
"141 703 OFFCURVE",
"237 717 OFFCURVE",
"332 717 CURVE SMOOTH",
"397 717 OFFCURVE",
"461 710 OFFCURVE",
"524 692 CURVE SMOOTH",
"641 657 OFFCURVE",
"735 574 OFFCURVE",
"770 451 CURVE SMOOTH",
"778 422 OFFCURVE",
"782 393 OFFCURVE",
"782 364 CURVE SMOOTH",
"782 203 OFFCURVE",
"658 62 OFFCURVE",
"491 17 CURVE SMOOTH",
"451 7 OFFCURVE",
"373 0 OFFCURVE",
"310 0 CURVE SMOOTH",
"235 0 OFFCURVE",
"249 0 OFFCURVE",
"211 0 CURVE",
"211 74 LINE",
"247 59 OFFCURVE",
"295 47 OFFCURVE",
"353 47 CURVE SMOOTH",
"391 47 OFFCURVE",
"433 52 OFFCURVE",
"479 64 CURVE SMOOTH",
"601 97 OFFCURVE",
"684 204 OFFCURVE",
"684 337 CURVE SMOOTH",
"684 365 OFFCURVE",
"681 394 OFFCURVE",
"673 424 CURVE SMOOTH",
"637 565 OFFCURVE",
"508 670 OFFCURVE",
"310 670 CURVE SMOOTH",
"283 670 OFFCURVE",
"254 668 OFFCURVE",
"224 664 CURVE"
);
}
);
};
components = (
{
name = serifUC;
transform = "{-1, 0, 0, 1, 138, 0}";
}
);
layerId = "6D97EE47-94AA-478E-ABFB-936E6C32B491";
paths = (
{
closed = 1;
nodes = (
"138 0 LINE",
"138 695 LINE",
"225 711 LINE",
"225 0 LINE"
);
},
{
closed = 1;
nodes = (
"50 699 LINE",
"141 707 OFFCURVE",
"237 721 OFFCURVE",
"332 721 CURVE SMOOTH",
"397 721 OFFCURVE",
"461 714 OFFCURVE",
"524 696 CURVE SMOOTH",
"641 663 OFFCURVE",
"736 578 OFFCURVE",
"770 455 CURVE SMOOTH",
"778 426 OFFCURVE",
"782 397 OFFCURVE",
"782 364 CURVE SMOOTH",
"782 203 OFFCURVE",
"658 62 OFFCURVE",
"491 17 CURVE SMOOTH",
"451 7 OFFCURVE",
"373 0 OFFCURVE",
"310 0 CURVE SMOOTH",
"235 0 OFFCURVE",
"249 0 OFFCURVE",
"211 0 CURVE",
"211 74 LINE",
"247 59 OFFCURVE",
"295 47 OFFCURVE",
"353 47 CURVE SMOOTH",
"391 47 OFFCURVE",
"433 52 OFFCURVE",
"479 64 CURVE SMOOTH",
"601 97 OFFCURVE",
"684 204 OFFCURVE",
"684 337 CURVE SMOOTH",
"684 365 OFFCURVE",
"681 398 OFFCURVE",
"673 428 CURVE SMOOTH",
"635 569 OFFCURVE",
"508 674 OFFCURVE",
"310 674 CURVE SMOOTH",
"283 674 OFFCURVE",
"254 672 OFFCURVE",
"224 668 CURVE"
);
},
{
closed = 1;
nodes = (
"116 671 OFFCURVE",
"73 671 OFFCURVE",
"53 669 CURVE",
"50 699 LINE",
"146 706 LINE",
"151 661 LINE"
);
}
);
width = 832;
}
);
leftKerningGroup = H;
leftMetricsKey = H;
rightKerningGroup = O;
rightMetricsKey = O;
unicode = 0044;
},
{
glyphname = Eth;
lastChange = "2020-11-05 22:36:03 +0000";
layers = (
{
background = {
paths = (
{
closed = 1;
nodes = (
"50 343 LINE",
"50 387 LINE",
"419 387 LINE",
"419 343 LINE"
);
}
);
};
components = (
{
name = D;
transform = "{1, 0, 0, 1, 4, 0}";
}
);
layerId = "6D97EE47-94AA-478E-ABFB-936E6C32B491";
paths = (
{
closed = 1;
nodes = (
"50 344 LINE",
"50 386 LINE",
"419 386 LINE",
"419 344 LINE"
);
}
);
width = 836;
}
);
leftKerningGroup = H;
leftMetricsKey = D;
rightKerningGroup = O;
rightMetricsKey = D;
unicode = 00D0;
},
{
glyphname = E;
lastChange = "2020-11-20 16:15:19 +0000";
layers = (
{
anchors = (
{
name = BOTTOM;
position = "{324, 0}";
},
{
name = TOP;
position = "{314, 707}";
}
);
background = {
paths = (
{
closed = 1;
nodes = (
"138 342 LINE",
"138 393 LINE",
"481 393 LINE",
"481 342 LINE"
);
},
{
closed = 1;
nodes = (
"138 0 LINE",
"138 707 LINE",
"225 707 LINE",
"225 0 LINE"
);
},
{
closed = 1;
nodes = (
"138 656 LINE",
"138 707 LINE",
"515 707 LINE",
"515 656 LINE"
);
},
{
closed = 1;
nodes = (
"138 0 LINE",
"138 51 LINE",
"540 51 LINE",
"540 0 LINE"
);
},
{
closed = 1;
nodes = (
"446 406 OFFCURVE",
"449 444 OFFCURVE",
"449 463 CURVE",
"460 463 OFFCURVE",
"474 463 OFFCURVE",
"481 463 CURVE",
"481 376 LINE",
"433 376 LINE"
);
},
{
closed = 1;
nodes = (
"481 351 LINE",
"481 263 LINE",
"474 263 OFFCURVE",
"460 263 OFFCURVE",
"449 263 CURVE",
"449 282 OFFCURVE",
"446 321 OFFCURVE",
"433 351 CURVE"
);
},
{
closed = 1;
nodes = (
"459 704 LINE",
"515 707 LINE",
"520 571 LINE",
"514 571 OFFCURVE",
"501 571 OFFCURVE",
"488 570 CURVE",
"488 589 OFFCURVE",
"481 628 OFFCURVE",
"467 658 CURVE"
);
},
{
closed = 1;
nodes = (
"514 85 OFFCURVE",
"538 146 OFFCURVE",
"541 159 CURVE",
"553 156 OFFCURVE",
"566 153 OFFCURVE",
"573 151 CURVE",
"540 0 LINE",
"469 13 LINE",
"488 51 LINE"
);
}
);
};
components = (
{
name = serifUC;
transform = "{-1, 0, 0, 1, 138, 0}";
},
{
name = serifUC;
transform = "{-1, 0, 0, -1, 138, 707}";
}
);
layerId = "6D97EE47-94AA-478E-ABFB-936E6C32B491";
paths = (
{
closed = 1;
nodes = (
"138 342 LINE",
"138 393 LINE",
"475 393 LINE",
"475 342 LINE"
);
},
{
closed = 1;
nodes = (
"138 0 LINE",
"138 707 LINE",
"225 707 LINE",
"225 0 LINE"
);
},
{
closed = 1;
nodes = (
"138 656 LINE",
"138 707 LINE",
"515 707 LINE",
"515 656 LINE"
);
},
{
closed = 1;
nodes = (
"138 0 LINE",
"138 51 LINE",
"540 51 LINE",
"540 0 LINE"
);
},
{
closed = 1;
nodes = (
"440 406 OFFCURVE",
"443 444 OFFCURVE",
"443 463 CURVE",
"475 463 LINE",
"475 376 LINE",
"428 376 LINE"
);
},
{
closed = 1;
nodes = (
"475 351 LINE",
"475 263 LINE",
"443 263 LINE",
"443 282 OFFCURVE",
"440 321 OFFCURVE",
"428 351 CURVE"
);
},
{
closed = 1;
nodes = (
"459 704 LINE",
"515 707 LINE",
"520 571 LINE",
"488 569 LINE",
"486 592 OFFCURVE",
"481 628 OFFCURVE",
"467 658 CURVE"
);
},
{
closed = 1;
nodes = (
"514 85 OFFCURVE",
"538 146 OFFCURVE",
"541 159 CURVE",
"573 151 LINE",
"540 0 LINE",
"469 13 LINE",
"488 51 LINE"
);
}
);
width = 598;
}
);
leftKerningGroup = H;
leftMetricsKey = H;
rightKerningGroup = E;
rightMetricsKey = "=H/2";
unicode = 0045;
},
{
glyphname = F;
lastChange = "2021-01-09 11:55:07 +0000";
layers = (
{
components = (
{
name = serifUC;
transform = "{-1, 0, 0, 1, 138, 0}";
},
{
name = serifUC;
transform = "{-1, 0, 0, -1, 138, 707}";
},
{
name = serifUC;
transform = "{1.1, 0, 0, 1, 225, 0}";
},
{
name = serifUC;
transform = "{0, 1, -1, 0, 470, 364}";
},
{
name = serifUC;
transform = "{0, -1, -1, 0, 470, 340}";
}
);
layerId = "6D97EE47-94AA-478E-ABFB-936E6C32B491";
paths = (
{
closed = 1;
nodes = (
"138 331 LINE",
"138 382 LINE",
"470 382 LINE",
"470 331 LINE"
);
},
{
closed = 1;
nodes = (
"138 0 LINE",
"138 707 LINE",
"225 707 LINE",
"225 0 LINE"
);
},
{
closed = 1;
nodes = (
"138 656 LINE",
"138 707 LINE",
"515 707 LINE",
"515 656 LINE"
);
},
{
closed = 1;
nodes = (
"459 704 LINE",
"515 707 LINE",
"520 571 LINE",
"488 569 LINE",
"486 592 OFFCURVE",
"481 628 OFFCURVE",
"467 658 CURVE"
);
}
);
width = 545;
}
);
leftKerningGroup = H;
leftMetricsKey = H;
rightKerningGroup = F;
rightMetricsKey = "=H/2";
unicode = 0046;
},
{
glyphname = G;
lastChange = "2020-11-19 15:53:18 +0000";
layers = (
{
anchors = (
{
name = BOTTOM;
position = "{430, 0}";
},
{
name = TOP;
position = "{430, 707}";
}
);
background = {
paths = (
{
closed = 1;
nodes = (
"618 209 LINE",
"588 222 OFFCURVE",
"548 224 OFFCURVE",
"530 224 CURVE",
"530 257 LINE",
"618 257 LINE",
"705 257 LINE",
"760 257 LINE",
"760 224 LINE",
"744 224 OFFCURVE",
"716 216 OFFCURVE",
"705 209 CURVE",
"705 75 LINE",
"709 66 OFFCURVE",
"721 56 OFFCURVE",
"731 51 CURVE",
"731 16 LINE",
"636 11 OFFCURVE",
"541 -22 OFFCURVE",
"415 -13 CURVE SMOOTH",
"249 -3 OFFCURVE",
"106 87 OFFCURVE",
"62 256 CURVE SMOOTH",
"10 452 OFFCURVE",
"131 654 OFFCURVE",
"327 707 CURVE SMOOTH",
"449 739 OFFCURVE",
"609 705 OFFCURVE",
"674 686 CURVE",
"695 544 LINE",
"665 538 LINE",
"617 666 OFFCURVE",
"458 691 OFFCURVE",
"340 659 CURVE SMOOTH",
"191 620 OFFCURVE",
"114 454 OFFCURVE",
"159 281 CURVE SMOOTH",
"200 122 OFFCURVE",
"383 -49 OFFCURVE",
"618 69 CURVE"
);
}
);
};
layerId = "6D97EE47-94AA-478E-ABFB-936E6C32B491";
paths = (
{
closed = 1;
nodes = (
"618 220 LINE",
"588 233 OFFCURVE",
"548 236 OFFCURVE",
"530 236 CURVE",
"530 268 LINE",
"760 268 LINE",
"760 236 LINE",
"744 236 OFFCURVE",
"716 227 OFFCURVE",
"705 220 CURVE",
"705 75 LINE",
"709 66 OFFCURVE",
"721 56 OFFCURVE",
"731 51 CURVE",
"731 16 LINE",
"636 11 OFFCURVE",
"541 -22 OFFCURVE",
"415 -13 CURVE SMOOTH",
"249 -3 OFFCURVE",
"106 87 OFFCURVE",
"62 256 CURVE SMOOTH",
"10 452 OFFCURVE",
"131 654 OFFCURVE",
"327 707 CURVE SMOOTH",
"449 739 OFFCURVE",
"609 705 OFFCURVE",
"674 686 CURVE",
"695 544 LINE",
"665 538 LINE",
"617 666 OFFCURVE",
"458 691 OFFCURVE",
"340 659 CURVE SMOOTH",
"191 620 OFFCURVE",
"114 454 OFFCURVE",
"159 281 CURVE SMOOTH",
"200 122 OFFCURVE",
"383 -49 OFFCURVE",
"618 69 CURVE"
);
}
);
width = 800;
}
);
leftKerningGroup = O;
leftMetricsKey = O;
rightKerningGroup = G;
rightMetricsKey = "=H-10";
unicode = 0047;
},
{
glyphname = H;
lastChange = "2020-11-19 15:54:16 +0000";
layers = (
{
anchors = (
{
name = TOP;
position = "{425, 707}";
}
);
components = (
{
name = I;
},
{
name = I;
transform = "{1, 0, 0, 1, 487, 0}";
}
);
layerId = "6D97EE47-94AA-478E-ABFB-936E6C32B491";
paths = (
{
closed = 1;
nodes = (
"203 348 LINE",
"203 399 LINE",
"647 399 LINE",
"647 348 LINE"
);
}
);
width = 850;
}
);
leftKerningGroup = H;
rightKerningGroup = H;
unicode = 0048;
},
{
glyphname = Hbar;
lastChange = "2020-11-03 22:24:25 +0000";
layers = (
{
background = {
paths = (
{
closed = 1;
nodes = (
"42 498 LINE",
"42 542 LINE",
"796 542 LINE",
"796 498 LINE"
);
}
);
};
components = (
{
name = serifUC;
transform = "{-1, 0, 0, 1, 131, 0}";
},
{
name = serifUC;
transform = "{-1, 0, 0, -1, 131, 707}";
},
{
name = serifUC;
transform = "{-1, 0, 0, 1, 617, 0}";
},
{
name = serifUC;
transform = "{-1, 0, 0, -1, 617, 707}";
},
{
name = serifUC;
transform = "{1, 0, 0, 1, 218, 0}";
},
{
name = serifUC;
transform = "{1, 0, 0, -1, 218, 707}";
},
{
name = serifUC;
transform = "{1, 0, 0, 1, 705, 0}";
},
{
name = serifUC;
transform = "{1, 0, 0, -1, 705, 707}";
}
);
layerId = "6D97EE47-94AA-478E-ABFB-936E6C32B491";
paths = (
{
closed = 1;
nodes = (
"42 499 LINE",
"42 541 LINE",
"796 541 LINE",
"796 499 LINE"
);
},
{
closed = 1;
nodes = (
"131 0 LINE",
"131 707 LINE",
"218 707 LINE",
"218 0 LINE"
);
},
{
closed = 1;
nodes = (
"617 0 LINE",
"617 707 LINE",
"705 707 LINE",
"705 0 LINE"
);
},
{
closed = 1;
nodes = (
"196 328 LINE",
"196 379 LINE",
"640 379 LINE",
"640 328 LINE"
);
}
);
width = 834;
}
);
leftKerningGroup = H;
rightKerningGroup = H;
unicode = 0126;
},
{
glyphname = I;
lastChange = "2020-11-21 19:08:28 +0000";
layers = (
{
anchors = (
{
name = BOTTOM;
position = "{182, 0}";
},
{
name = TOP;
position = "{181, 707}";
}
);
components = (
{
name = serifUC;
transform = "{-1, 0, 0, 1, 138, 0}";
},
{
name = serifUC;
transform = "{-1, 0, 0, -1, 138, 707}";
},
{
name = serifUC;
transform = "{1, 0, 0, 1, 225, 0}";
},
{
name = serifUC;
transform = "{1, 0, 0, -1, 225, 707}";
}
);
layerId = "6D97EE47-94AA-478E-ABFB-936E6C32B491";
paths = (
{
closed = 1;
nodes = (
"138 0 LINE",
"138 707 LINE",
"225 707 LINE",
"225 0 LINE"
);
}
);
width = 363;
}
);
leftKerningGroup = H;
leftMetricsKey = H;
rightKerningGroup = H;
rightMetricsKey = H;
unicode = 0049;
},
{
glyphname = J;
lastChange = "2020-10-22 15:08:16 +0000";
layers = (
{
anchors = (
{
name = TOP;
position = "{220, 707}";
}
);
background = {
paths = (
{
closed = 1;
nodes = (
"145 -118 OFFCURVE",
"54 -189 OFFCURVE",
"4 -221 CURVE",
"22 -247 LINE",
"48 -237 OFFCURVE",
"192 -165 OFFCURVE",
"264 0 CURVE",
"176 0 LINE"
);
},
{
closed = 1;
nodes = (
"176 0 LINE",
"176 707 LINE",
"264 707 LINE",
"264 0 LINE"
);
}
);
};
components = (
{
name = serifUC;
transform = "{-1, 0, 0, -1, 176, 707}";
},
{
name = serifUC;
transform = "{1, 0, 0, -1, 264, 707}";
}
);
layerId = "6D97EE47-94AA-478E-ABFB-936E6C32B491";
paths = (
{
closed = 1;
nodes = (
"264 0 LINE",
"221 -175 OFFCURVE",
"92 -271 OFFCURVE",
"68 -286 CURVE",
"46 -263 LINE",
"90 -223 OFFCURVE",
"166 -121 OFFCURVE",
"176 0 CURVE"
);
},
{
closed = 1;
nodes = (
"176 0 LINE",
"176 707 LINE",
"264 707 LINE",
"264 0 LINE"
);
},
{
closed = 1;
nodes = (
"214 9 LINE",
"162 -73 LINE",
"176 -27 OFFCURVE",
"177 18 OFFCURVE",
"176 62 CURVE"
);
}
);
width = 402;
}
);
leftKerningGroup = J;
rightKerningGroup = H;
rightMetricsKey = H;
unicode = 004A;
},
{
glyphname = K;
lastChange = "2020-11-19 15:54:22 +0000";
layers = (
{
anchors = (
{
name = BOTTOM;
position = "{356, 0}";
}
);
background = {
paths = (
{
closed = 1;
nodes = (
"575 659 LINE",
"277 338 LINE",
"239 373 LINE",
"505 659 LINE",
"544 700 LINE",
"581 666 LINE"
);
},
{
closed = 1;
nodes = (
"138 0 LINE",
"138 707 LINE",
"225 707 LINE",
"225 0 LINE"
);
},
{
closed = 1;
nodes = (
"369 332 OFFCURVE",
"465 197 OFFCURVE",
"526 126 CURVE SMOOTH",
"579 66 OFFCURVE",
"610 28 OFFCURVE",
"698 0 CURVE",
"696 -8 OFFCURVE",
"693 -21 OFFCURVE",
"691 -30 CURVE",
"554 -27 OFFCURVE",
"513 7 OFFCURVE",
"457 65 CURVE SMOOTH",
"406 118 OFFCURVE",
"270 330 OFFCURVE",
"239 373 CURVE",
"327 392 LINE"
);
}
);
};
components = (
{
name = serifUC;
transform = "{-0.82, 0, 0, -1, 512, 707}";
},
{
name = serifUC;
transform = "{1, 0, 0, -1, 580, 707}";
},
{
name = serifUC;
transform = "{1.04, 0, 0, 1, 225, 0}";
},
{
name = serifUC;
transform = "{-1, 0, 0, 1, 138, 0}";
},
{
name = serifUC;
transform = "{-1, 0, 0, -1, 138, 707}";
},
{
name = serifUC;
transform = "{1, 0, 0, -1, 225, 707}";
}
);
layerId = "6D97EE47-94AA-478E-ABFB-936E6C32B491";
paths = (
{
closed = 1;
nodes = (
"281 338 LINE",
"243 373 LINE",
"548 700 LINE",
"585 666 LINE"
);
},
{
closed = 1;
nodes = (
"580 707 LINE",
"580 661 LINE",
"512 661 LINE",
"512 707 LINE"
);
},
{
closed = 1;
nodes = (
"374 333 OFFCURVE",
"475 197 OFFCURVE",
"538 127 CURVE SMOOTH",
"591 68 OFFCURVE",
"623 27 OFFCURVE",
"712 0 CURVE",
"705 -30 LINE",
"568 -29 OFFCURVE",
"525 7 OFFCURVE",
"469 65 CURVE SMOOTH",
"418 117 OFFCURVE",
"275 331 OFFCURVE",
"243 373 CURVE",
"331 392 LINE"
);
},
{
closed = 1;
nodes = (
"138 0 LINE",
"138 707 LINE",
"225 707 LINE",
"225 0 LINE"
);
}
);
width = 706;
}
);
leftKerningGroup = H;
leftMetricsKey = H;
rightKerningGroup = K;
unicode = 004B;
},
{
glyphname = L;
lastChange = "2020-11-20 16:15:12 +0000";
layers = (
{
anchors = (
{
name = BOTTOM;
position = "{313, 0}";
},
{
name = TOP;
position = "{182, 707}";
}
);
components = (
{
name = serifUC;
transform = "{-1, 0, 0, 1, 138, 0}";
},
{
name = serifUC;
transform = "{-1, 0, 0, -1, 138, 707}";
},
{
name = serifUC;
transform = "{1, 0, 0, -1, 225, 707}";
}
);
layerId = "6D97EE47-94AA-478E-ABFB-936E6C32B491";
paths = (
{
closed = 1;
nodes = (
"138 0 LINE",
"138 707 LINE",
"225 707 LINE",
"225 0 LINE"
);
},
{
closed = 1;
nodes = (
"138 0 LINE",
"138 51 LINE",
"540 51 LINE",
"540 0 LINE"
);
},
{
closed = 1;
nodes = (
"516 77 OFFCURVE",
"547 139 OFFCURVE",
"555 158 CURVE",
"586 148 LINE",
"540 0 LINE",
"471 19 LINE",
"493 51 LINE"
);
}
);
width = 590;
}
);
leftKerningGroup = H;
leftMetricsKey = H;
rightKerningGroup = E;
unicode = 004C;
},
{
glyphname = Lslash;
lastChange = "2020-11-06 09:34:59 +0000";
layers = (
{
background = {
paths = (
{
closed = 1;
nodes = (
"414 443 LINE",
"75 278 LINE",
"52 326 LINE",
"391 491 LINE"
);
}
);
};
components = (
{
name = L;
}
);
guideLines = (
{
angle = 26;
position = "{248, 397}";
},
{
angle = 26;
position = "{262, 356}";
}
);
layerId = "6D97EE47-94AA-478E-ABFB-936E6C32B491";
paths = (
{
closed = 1;
nodes = (
"71 263 LINE",
"52 301 LINE",
"387 465 LINE",
"406 427 LINE"
);
}
);
width = 590;
}
);
leftKerningGroup = H;
leftMetricsKey = L;
rightKerningGroup = E;
rightMetricsKey = L;
unicode = 0141;
},
{
glyphname = M;
lastChange = "2021-01-14 15:08:08 +0000";
layers = (
{
background = {
paths = (
{
closed = 1;
nodes = (
"125 0 LINE",
"128 48 LINE",
"155 659 LINE",
"157 707 LINE",
"213 707 LINE",
"184 48 LINE",
"181 0 LINE"
);
},
{
closed = 1;
nodes = (
"815 0 LINE",
"727 0 LINE",
"706 544 LINE",
"786 707 LINE",
"787 707 LINE"
);
},
{
closed = 1;
nodes = (
"786 707 LINE",
"439 0 LINE",
"150 707 LINE",
"247 707 LINE",
"465 169 LINE",
"729 707 LINE"
);
},
{
closed = 1;
nodes = (
"168 707 LINE",
"168 659 LINE",
"155 659 LINE",
"155 707 LINE"
);
},
{
closed = 1;
nodes = (
"788 661 LINE",
"775 661 LINE",
"775 707 LINE",
"788 707 LINE"
);
},
{
closed = 1;
nodes = (
"184 48 LINE",
"184 0 LINE",
"128 0 LINE",
"128 48 LINE"
);
},
{
closed = 1;
nodes = (
"813 48 LINE",
"813 0 LINE",
"725 0 LINE",
"725 48 LINE"
);
}
);
};
components = (
{
name = serifUC;
transform = "{-1, 0, 0, -1, 155, 707}";
},
{
name = serifUC;
transform = "{1, 0, 0, -1, 788, 707}";
},
{
name = serifUC;
transform = "{1, 0, 0, 1, 184, 0}";
},
{
name = serifUC;
transform = "{-1, 0, 0, 1, 128, 0}";
},
{
name = serifUC;
transform = "{1, 0, 0, 1, 813, 0}";
},
{
name = serifUC;
transform = "{-1, 0, 0, 1, 725, 0}";
}
);
guideLines = (
{
angle = 112;
position = "{402, 324}";
},
{
angle = 112;
position = "{307, 324}";
},
{
angle = 64;
position = "{598, 324}";
},
{
angle = 64;
position = "{541, 324}";
},
{
angle = 92;
position = "{714, 344}";
},
{
angle = 92;
position = "{802, 344}";
},
{
angle = 87.5;
position = "{141, 344}";
},
{
angle = 87.5;
position = "{197, 344}";
}
);
layerId = "6D97EE47-94AA-478E-ABFB-936E6C32B491";
paths = (
{
closed = 1;
nodes = (
"125 0 LINE",
"128 48 LINE",
"155 659 LINE",
"157 707 LINE",
"213 707 LINE",
"184 48 LINE",
"181 0 LINE"
);
},
{
closed = 1;
nodes = (
"815 0 LINE",
"727 0 LINE",
"706 544 LINE",
"786 707 LINE",
"787 707 LINE"
);
},
{
closed = 1;
nodes = (
"786 707 LINE",
"439 0 LINE",
"150 707 LINE",
"245 707 LINE",
"479 135 LINE",
"449 136 LINE",
"729 707 LINE"
);
},
{
closed = 1;
nodes = (
"168 707 LINE",
"168 659 LINE",
"155 659 LINE",
"155 707 LINE"
);
},
{
closed = 1;
nodes = (
"788 661 LINE",
"775 661 LINE",
"775 707 LINE",
"788 707 LINE"
);
},
{
closed = 1;
nodes = (
"184 48 LINE",
"184 0 LINE",
"128 0 LINE",
"128 48 LINE"
);
},
{
closed = 1;
nodes = (
"813 48 LINE",
"813 0 LINE",
"725 0 LINE",
"725 48 LINE"
);
}
);
width = 951;
}
);
leftKerningGroup = M;
leftMetricsKey = "=H-10";
rightKerningGroup = M;
rightMetricsKey = H;
unicode = 004D;
},
{
glyphname = N;
lastChange = "2021-01-14 15:08:28 +0000";
layers = (
{
anchors = (
{
name = BOTTOM;
position = "{407, 0}";
},
{
name = TOP;
position = "{407, 707}";
}
);
background = {
paths = (
{
closed = 1;
nodes = (
"3448 136 LINE",
"2981 707 LINE",
"2930 707 LINE",
"2930 0 LINE",
"2981 0 LINE",
"2981 569 LINE",
"3458 -14 LINE",
"3500 -14 LINE",
"3500 707 LINE",
"3448 707 LINE"
);
},
{
closed = 1;
nodes = (
"2030 707 LINE",
"2030 0 LINE",
"2081 0 LINE",
"2081 587 LINE",
"2534 -14 LINE",
"2576 -14 LINE",
"2576 707 LINE",
"2524 707 LINE",
"2524 149 LINE",
"2104 707 LINE"
);
},
{
closed = 1;
nodes = (
"1029 707 LINE",
"1029 0 LINE",
"1082 0 LINE",
"1082 623 LINE",
"1059 616 LINE",
"1534 -14 LINE",
"1577 -14 LINE",
"1577 707 LINE",
"1523 707 LINE",
"1523 113 LINE",
"1546 120 LINE",
"1104 707 LINE"
);
},
{
closed = 1;
nodes = (
"646 120 LINE",
"622 113 LINE",
"622 707 LINE",
"678 707 LINE",
"678 -14 LINE",
"634 -14 LINE",
"159 616 LINE",
"184 623 LINE",
"184 0 LINE",
"128 0 LINE",
"128 707 LINE",
"204 707 LINE"
);
}
);
};
components = (
{
name = serifUC;
transform = "{1, 0, 0, 1, 184, 0}";
},
{
name = serifUC;
transform = "{-1, 0, 0, 1, 128, 0}";
},
{
name = serifUC;
transform = "{-1, 0, 0, -1, 128, 707}";
},
{
name = serifUC;
transform = "{-1, 0, 0, -1, 622, 707}";
},
{
name = serifUC;
transform = "{1, 0, 0, -1, 678, 707}";
}
);
layerId = "6D97EE47-94AA-478E-ABFB-936E6C32B491";
paths = (
{
closed = 1;
nodes = (
"642 120 LINE",
"622 113 LINE",
"622 707 LINE",
"678 707 LINE",
"678 -14 LINE",
"633 -14 LINE",
"158 616 LINE",
"184 623 LINE",
"184 0 LINE",
"128 0 LINE",
"128 707 LINE",
"199 707 LINE"
);
}
);
width = 806;
}
);
leftKerningGroup = H;
leftMetricsKey = "=H-10";
rightKerningGroup = H;
rightMetricsKey = "=H-10";
unicode = 004E;
},
{
glyphname = Eng;
lastChange = "2021-01-14 23:03:22 +0000";
layers = (
{
background = {
paths = (
{
closed = 1;
nodes = (
"-2689 572 LINE",
"-2684 572 LINE",
"-2417 173 LINE SMOOTH",
"-2354 81 OFFCURVE",
"-2327 44 OFFCURVE",
"-2301 2 CURVE",
"-2290 2 LINE",
"-2290 -105 OFFCURVE",
"-2297 -171 OFFCURVE",
"-2357 -171 CURVE SMOOTH",
"-2388 -171 OFFCURVE",
"-2410 -154 OFFCURVE",
"-2415 -98 CURVE",
"-2422 -96 OFFCURVE",
"-2429 -94 OFFCURVE",
"-2436 -94 CURVE SMOOTH",
"-2464 -94 OFFCURVE",
"-2487 -109 OFFCURVE",
"-2487 -142 CURVE SMOOTH",
"-2487 -202 OFFCURVE",
"-2414 -217 OFFCURVE",
"-2373 -217 CURVE SMOOTH",
"-2240 -217 OFFCURVE",
"-2240 -107 OFFCURVE",
"-2240 64 CURVE SMOOTH",
"-2240 519 LINE SMOOTH",
"-2240 651 OFFCURVE",
"-2222 669 OFFCURVE",
"-2147 674 CURVE",
"-2143 674 OFFCURVE",
"-2142 683 OFFCURVE",
"-2142 689 CURVE SMOOTH",
"-2142 696 OFFCURVE",
"-2143 703 OFFCURVE",
"-2147 703 CURVE SMOOTH",
"-2166 703 OFFCURVE",
"-2241 699 OFFCURVE",
"-2260 699 CURVE SMOOTH",
"-2281 699 OFFCURVE",
"-2359 703 OFFCURVE",
"-2375 703 CURVE SMOOTH",
"-2381 703 OFFCURVE",
"-2381 693 OFFCURVE",
"-2381 688 CURVE SMOOTH",
"-2381 681 OFFCURVE",
"-2381 674 OFFCURVE",
"-2376 674 CURVE",
"-2305 669 OFFCURVE",
"-2289 654 OFFCURVE",
"-2289 522 CURVE SMOOTH",
"-2289 165 LINE",
"-2292 165 LINE",
"-2504 482 LINE SMOOTH",
"-2583 601 OFFCURVE",
"-2619 655 OFFCURVE",
"-2640 692 CURVE",
"-2645 699 OFFCURVE",
"-2648 700 OFFCURVE",
"-2652 700 CURVE SMOOTH",
"-2670 700 OFFCURVE",
"-2694 699 OFFCURVE",
"-2712 699 CURVE SMOOTH",
"-2739 699 OFFCURVE",
"-2808 703 OFFCURVE",
"-2832 703 CURVE SMOOTH",
"-2836 703 OFFCURVE",
"-2837 693 OFFCURVE",
"-2837 688 CURVE SMOOTH",
"-2837 681 OFFCURVE",
"-2836 674 OFFCURVE",
"-2833 674 CURVE",
"-2752 669 OFFCURVE",
"-2737 654 OFFCURVE",
"-2737 534 CURVE SMOOTH",
"-2737 182 LINE SMOOTH",
"-2737 51 OFFCURVE",
"-2754 31 OFFCURVE",
"-2829 27 CURVE",
"-2833 27 OFFCURVE",
"-2833 18 OFFCURVE",
"-2833 12 CURVE SMOOTH",
"-2833 5 OFFCURVE",
"-2833 -1 OFFCURVE",
"-2829 -1 CURVE SMOOTH",
"-2808 -1 OFFCURVE",
"-2736 2 OFFCURVE",
"-2714 2 CURVE SMOOTH",
"-2693 2 OFFCURVE",
"-2616 -1 OFFCURVE",
"-2599 -1 CURVE SMOOTH",
"-2594 -1 OFFCURVE",
"-2593 8 OFFCURVE",
"-2593 15 CURVE SMOOTH",
"-2593 20 OFFCURVE",
"-2594 27 OFFCURVE",
"-2598 27 CURVE",
"-2670 32 OFFCURVE",
"-2689 47 OFFCURVE",
"-2689 179 CURVE SMOOTH"
);
},
{
closed = 1;
nodes = (
"-1912 28 OFFCURVE",
"-1912 2 OFFCURVE",
"-1908 -1 CURVE",
"-1877 -1 OFFCURVE",
"-1840 2 OFFCURVE",
"-1770 2 CURVE SMOOTH",
"-1711 2 OFFCURVE",
"-1665 -1 OFFCURVE",
"-1626 -1 CURVE",
"-1622 2 OFFCURVE",
"-1621 27 OFFCURVE",
"-1625 32 CURVE",
"-1654 35 OFFCURVE",
"-1678 39 OFFCURVE",
"-1695 44 CURVE",
"-1723 51 OFFCURVE",
"-1738 65 OFFCURVE",
"-1740 109 CURVE SMOOTH",
"-1745 174 OFFCURVE",
"-1744 445 OFFCURVE",
"-1742 564 CURVE SMOOTH",
"-1742 566 OFFCURVE",
"-1738 567 OFFCURVE",
"-1737 565 CURVE",
"-1668 479 OFFCURVE",
"-1354 89 OFFCURVE",
"-1297 5 CURVE SMOOTH",
"-1283 -14 OFFCURVE",
"-1275 -37 OFFCURVE",
"-1275 -60 CURVE SMOOTH",
"-1275 -151 OFFCURVE",
"-1296 -182 OFFCURVE",
"-1344 -182 CURVE SMOOTH",
"-1377 -182 OFFCURVE",
"-1407 -173 OFFCURVE",
"-1419 -166 CURVE",
"-1421 -165 OFFCURVE",
"-1428 -169 OFFCURVE",
"-1428 -173 CURVE",
"-1433 -192 OFFCURVE",
"-1429 -236 OFFCURVE",
"-1420 -251 CURVE",
"-1411 -269 OFFCURVE",
"-1385 -271 OFFCURVE",
"-1370 -271 CURVE SMOOTH",
"-1257 -271 OFFCURVE",
"-1215 -135 OFFCURVE",
"-1215 38 CURVE SMOOTH",
"-1215 41 OFFCURVE",
"-1214 155 OFFCURVE",
"-1214 155 CURVE",
"-1213 312 OFFCURVE",
"-1212 518 OFFCURVE",
"-1205 606 CURVE SMOOTH",
"-1203 637 OFFCURVE",
"-1196 658 OFFCURVE",
"-1166 668 CURVE SMOOTH",
"-1151 673 OFFCURVE",
"-1136 676 OFFCURVE",
"-1115 680 CURVE",
"-1111 683 OFFCURVE",
"-1111 708 OFFCURVE",
"-1115 712 CURVE",
"-1131 712 OFFCURVE",
"-1199 708 OFFCURVE",
"-1234 708 CURVE SMOOTH",
"-1301 708 OFFCURVE",
"-1357 712 OFFCURVE",
"-1389 712 CURVE",
"-1393 707 OFFCURVE",
"-1393 683 OFFCURVE",
"-1389 680 CURVE",
"-1358 676 OFFCURVE",
"-1334 672 OFFCURVE",
"-1313 666 CURVE SMOOTH",
"-1278 657 OFFCURVE",
"-1273 639 OFFCURVE",
"-1269 605 CURVE SMOOTH",
"-1262 523 OFFCURVE",
"-1265 309 OFFCURVE",
"-1265 152 CURVE",
"-1267 150 OFFCURVE",
"-1267 150 OFFCURVE",
"-1269 150 CURVE",
"-1324 214 OFFCURVE",
"-1560 500 OFFCURVE",
"-1677 647 CURVE SMOOTH",
"-1707 685 OFFCURVE",
"-1714 697 OFFCURVE",
"-1718 709 CURVE",
"-1727 708 OFFCURVE",
"-1747 708 OFFCURVE",
"-1769 708 CURVE SMOOTH",
"-1820 708 OFFCURVE",
"-1885 712 OFFCURVE",
"-1914 712 CURVE",
"-1919 708 OFFCURVE",
"-1920 682 OFFCURVE",
"-1916 680 CURVE",
"-1871 675 OFFCURVE",
"-1846 669 OFFCURVE",
"-1824 654 CURVE",
"-1799 640 OFFCURVE",
"-1793 616 OFFCURVE",
"-1793 599 CURVE SMOOTH",
"-1795 358 OFFCURVE",
"-1799 170 OFFCURVE",
"-1803 110 CURVE SMOOTH",
"-1806 65 OFFCURVE",
"-1820 51 OFFCURVE",
"-1847 43 CURVE SMOOTH",
"-1864 38 OFFCURVE",
"-1886 34 OFFCURVE",
"-1908 32 CURVE"
);
},
{
closed = 1;
nodes = (
"-586 447 OFFCURVE",
"-395 222 OFFCURVE",
"-293 101 CURVE SMOOTH",
"-264 64 OFFCURVE",
"-248 43 OFFCURVE",
"-231 19 CURVE",
"-225 11 OFFCURVE",
"-217 -8 OFFCURVE",
"-217 -16 CURVE SMOOTH",
"-217 -87 OFFCURVE",
"-232 -110 OFFCURVE",
"-260 -135 CURVE SMOOTH",
"-281 -156 OFFCURVE",
"-325 -158 OFFCURVE",
"-346 -161 CURVE SMOOTH",
"-356 -162 OFFCURVE",
"-354 -177 OFFCURVE",
"-351 -183 CURVE",
"-344 -200 OFFCURVE",
"-313 -227 OFFCURVE",
"-287 -227 CURVE SMOOTH",
"-269 -227 OFFCURVE",
"-233 -210 OFFCURVE",
"-210 -168 CURVE SMOOTH",
"-184 -121 OFFCURVE",
"-173 -72 OFFCURVE",
"-173 96 CURVE SMOOTH",
"-173 284 OFFCURVE",
"-159 561 OFFCURVE",
"-157 601 CURVE SMOOTH",
"-153 660 OFFCURVE",
"-133 669 OFFCURVE",
"-87 680 CURVE",
"-67 685 OFFCURVE",
"-61 695 OFFCURVE",
"-61 702 CURVE SMOOTH",
"-61 711 OFFCURVE",
"-67 714 OFFCURVE",
"-86 714 CURVE SMOOTH",
"-114 714 OFFCURVE",
"-150 709 OFFCURVE",
"-189 709 CURVE SMOOTH",
"-224 709 OFFCURVE",
"-254 711 OFFCURVE",
"-283 711 CURVE SMOOTH",
"-295 711 OFFCURVE",
"-311 708 OFFCURVE",
"-311 701 CURVE SMOOTH",
"-311 692 OFFCURVE",
"-303 684 OFFCURVE",
"-281 677 CURVE SMOOTH",
"-221 660 OFFCURVE",
"-213 633 OFFCURVE",
"-212 610 CURVE",
"-210 576 OFFCURVE",
"-207 538 OFFCURVE",
"-207 501 CURVE SMOOTH",
"-207 344 OFFCURVE",
"-204 219 OFFCURVE",
"-210 183 CURVE",
"-210 181 OFFCURVE",
"-213 168 OFFCURVE",
"-220 176 CURVE SMOOTH",
"-293 256 OFFCURVE",
"-534 524 OFFCURVE",
"-583 587 CURVE SMOOTH",
"-626 643 OFFCURVE",
"-653 676 OFFCURVE",
"-670 695 CURVE",
"-676 702 OFFCURVE",
"-686 709 OFFCURVE",
"-692 709 CURVE SMOOTH",
"-749 709 OFFCURVE",
"-802 713 OFFCURVE",
"-826 713 CURVE SMOOTH",
"-852 713 OFFCURVE",
"-862 708 OFFCURVE",
"-862 700 CURVE SMOOTH",
"-862 691 OFFCURVE",
"-852 685 OFFCURVE",
"-839 683 CURVE SMOOTH",
"-789 669 OFFCURVE",
"-778 669 OFFCURVE",
"-748 633 CURVE SMOOTH",
"-742 626 OFFCURVE",
"-739 632 OFFCURVE",
"-739 580 CURVE SMOOTH",
"-739 488 OFFCURVE",
"-754 226 OFFCURVE",
"-759 138 CURVE SMOOTH",
"-764 57 OFFCURVE",
"-785 52 OFFCURVE",
"-836 35 CURVE",
"-847 31 OFFCURVE",
"-858 25 OFFCURVE",
"-858 16 CURVE SMOOTH",
"-858 5 OFFCURVE",
"-845 4 OFFCURVE",
"-830 4 CURVE SMOOTH",
"-811 4 OFFCURVE",
"-782 6 OFFCURVE",
"-758 6 CURVE SMOOTH",
"-719 6 OFFCURVE",
"-673 1 OFFCURVE",
"-641 1 CURVE SMOOTH",
"-620 1 OFFCURVE",
"-607 4 OFFCURVE",
"-607 15 CURVE SMOOTH",
"-607 22 OFFCURVE",
"-611 29 OFFCURVE",
"-633 35 CURVE",
"-686 50 OFFCURVE",
"-698 66 OFFCURVE",
"-703 117 CURVE SMOOTH",
"-705 151 OFFCURVE",
"-701 319 OFFCURVE",
"-701 418 CURVE SMOOTH",
"-701 503 OFFCURVE",
"-698 535 OFFCURVE",
"-696 564 CURVE",
"-696 568 OFFCURVE",
"-689 571 OFFCURVE",
"-684 565 CURVE SMOOTH"
);
},
{
closed = 1;
nodes = (
"4030 707 LINE",
"4081 707 LINE",
"4548 136 LINE",
"4548 707 LINE",
"4600 707 LINE",
"4600 141 LINE SMOOTH",
"4600 89 OFFCURVE",
"4598 -21 OFFCURVE",
"4594 -60 CURVE SMOOTH",
"4590 -97 OFFCURVE",
"4578 -147 OFFCURVE",
"4509 -179 CURVE SMOOTH",
"4440 -211 OFFCURVE",
"4334 -200 OFFCURVE",
"4293 -153 CURVE",
"4353 -85 LINE",
"4376 -112 OFFCURVE",
"4402 -162 OFFCURVE",
"4474 -144 CURVE SMOOTH",
"4550 -125 OFFCURVE",
"4547 -53 OFFCURVE",
"4546 22 CURVE",
"4580 -41 LINE",
"4081 569 LINE",
"4081 0 LINE",
"4030 0 LINE"
);
},
{
closed = 1;
nodes = (
"3130 707 LINE",
"3181 707 LINE",
"3648 136 LINE",
"3648 707 LINE",
"3700 707 LINE",
"3700 141 LINE SMOOTH",
"3700 89 OFFCURVE",
"3698 -21 OFFCURVE",
"3694 -60 CURVE SMOOTH",
"3690 -97 OFFCURVE",
"3683 -147 OFFCURVE",
"3614 -182 CURVE SMOOTH",
"3545 -217 OFFCURVE",
"3449 -196 OFFCURVE",
"3405 -141 CURVE",
"3472 -73 LINE",
"3489 -99 OFFCURVE",
"3521 -147 OFFCURVE",
"3574 -141 CURVE SMOOTH",
"3651 -132 OFFCURVE",
"3647 -53 OFFCURVE",
"3646 22 CURVE",
"3680 -41 LINE",
"3181 569 LINE",
"3181 0 LINE",
"3130 0 LINE"
);
},
{
closed = 1;
nodes = (
"2030 707 LINE",
"2081 707 LINE",
"2548 136 LINE",
"2548 707 LINE",
"2600 707 LINE",
"2600 141 LINE SMOOTH",
"2600 89 OFFCURVE",
"2598 -21 OFFCURVE",
"2594 -60 CURVE SMOOTH",
"2590 -97 OFFCURVE",
"2574 -150 OFFCURVE",
"2529 -177 CURVE SMOOTH",
"2489 -201 OFFCURVE",
"2465 -207 OFFCURVE",
"2409 -204 CURVE",
"2397 -116 LINE",
"2444 -132 OFFCURVE",
"2502 -115 OFFCURVE",
"2522 -93 CURVE SMOOTH",
"2542 -72 OFFCURVE",
"2547 -55 OFFCURVE",
"2546 20 CURVE",
"2580 -41 LINE",
"2081 569 LINE",
"2081 0 LINE",
"2030 0 LINE"
);
},
{
closed = 1;
nodes = (
"1030 707 LINE",
"1081 707 LINE",
"1548 136 LINE",
"1548 707 LINE",
"1600 707 LINE",
"1600 141 LINE SMOOTH",
"1600 89 OFFCURVE",
"1598 -32 OFFCURVE",
"1594 -71 CURVE SMOOTH",
"1590 -108 OFFCURVE",
"1575 -156 OFFCURVE",
"1530 -189 CURVE SMOOTH",
"1494 -216 OFFCURVE",
"1466 -223 OFFCURVE",
"1410 -220 CURVE",
"1397 -127 LINE",
"1444 -143 OFFCURVE",
"1502 -126 OFFCURVE",
"1522 -104 CURVE SMOOTH",
"1542 -83 OFFCURVE",
"1547 -55 OFFCURVE",
"1546 20 CURVE",
"1580 -41 LINE",
"1081 569 LINE",
"1081 0 LINE",
"1030 0 LINE"
);
},
{
closed = 1;
nodes = (
"130 707 LINE",
"181 707 LINE",
"648 136 LINE",
"648 707 LINE",
"700 707 LINE",
"700 141 LINE SMOOTH",
"700 89 OFFCURVE",
"698 -32 OFFCURVE",
"694 -71 CURVE SMOOTH",
"690 -108 OFFCURVE",
"675 -156 OFFCURVE",
"630 -189 CURVE SMOOTH",
"594 -216 OFFCURVE",
"558 -224 OFFCURVE",
"509 -214 CURVE",
"497 -127 LINE",
"544 -143 OFFCURVE",
"602 -126 OFFCURVE",
"622 -104 CURVE SMOOTH",
"642 -83 OFFCURVE",
"647 -55 OFFCURVE",
"646 20 CURVE",
"680 -41 LINE",
"181 569 LINE",
"181 0 LINE",
"130 0 LINE"
);
}
);
};
components = (
{
name = serifUC;
transform = "{1, 0, 0, 1, 184, 0}";
},
{
name = serifUC;
transform = "{-1, 0, 0, 1, 128, 0}";
},
{
name = serifUC;
transform = "{-1, 0, 0, -1, 624, 707}";
},
{
name = serifUC;
transform = "{1, 0, 0, -1, 676, 707}";
},
{
name = serifUC;
transform = "{-1, 0, 0, -1, 128, 707}";
}
);
layerId = "6D97EE47-94AA-478E-ABFB-936E6C32B491";
paths = (
{
closed = 1;
nodes = (
"159 616 LINE",
"184 623 LINE",
"184 0 LINE",
"128 0 LINE",
"128 707 LINE",
"201 707 LINE",
"643 120 LINE",
"622 113 LINE",
"622 707 LINE",
"678 707 LINE",
"678 141 LINE SMOOTH",
"678 89 OFFCURVE",
"676 -53 OFFCURVE",
"671 -92 CURVE SMOOTH",
"666 -129 OFFCURVE",
"650 -179 OFFCURVE",
"606 -209 CURVE SMOOTH",
"569 -234 OFFCURVE",
"526 -239 OFFCURVE",
"477 -229 CURVE",
"471 -147 LINE",
"519 -159 OFFCURVE",
"571 -155 OFFCURVE",
"596 -131 CURVE SMOOTH",
"618 -109 OFFCURVE",
"624 -80 OFFCURVE",
"622 2 CURVE"
);
}
);
width = 804;
}
);
leftKerningGroup = H;
leftMetricsKey = N;
rightKerningGroup = H;
rightMetricsKey = N;
unicode = 014A;
},
{
glyphname = Nhookleft;
lastChange = "2021-01-14 23:03:29 +0000";
layers = (
{
background = {
paths = (
{
closed = 1;
nodes = (
"173 141 LINE",
"173 89 OFFCURVE",
"171 -53 OFFCURVE",
"166 -92 CURVE SMOOTH",
"161 -129 OFFCURVE",
"145 -179 OFFCURVE",
"101 -209 CURVE SMOOTH",
"64 -234 OFFCURVE",
"21 -239 OFFCURVE",
"-28 -229 CURVE",
"-34 -147 LINE",
"14 -159 OFFCURVE",
"66 -156 OFFCURVE",
"91 -131 CURVE SMOOTH",
"113 -109 OFFCURVE",
"119 -80 OFFCURVE",
"117 2 CURVE"
);
},
{
closed = 1;
nodes = (
"-752 616 LINE",
"-727 623 LINE",
"-727 0 LINE",
"-783 0 LINE",
"-783 707 LINE",
"-707 707 LINE",
"-265 120 LINE",
"-289 113 LINE",
"-289 707 LINE",
"-233 707 LINE",
"-233 141 LINE SMOOTH",
"-233 89 OFFCURVE",
"-235 -53 OFFCURVE",
"-240 -92 CURVE SMOOTH",
"-245 -129 OFFCURVE",
"-261 -179 OFFCURVE",
"-305 -209 CURVE SMOOTH",
"-342 -234 OFFCURVE",
"-385 -239 OFFCURVE",
"-434 -229 CURVE",
"-440 -147 LINE",
"-392 -159 OFFCURVE",
"-340 -156 OFFCURVE",
"-315 -131 CURVE SMOOTH",
"-293 -109 OFFCURVE",
"-287 -80 OFFCURVE",
"-289 2 CURVE"
);
}
);
};
components = (
{
name = serifUC;
transform = "{-1, 0, 0, -1, 117, 707}";
},
{
name = serifUC;
transform = "{-1, 0, 0, -1, 611, 707}";
},
{
name = serifUC;
transform = "{1, 0, 0, -1, 667, 707}";
}
);
layerId = "6D97EE47-94AA-478E-ABFB-936E6C32B491";
paths = (
{
closed = 1;
nodes = (
"632 120 LINE",
"611 113 LINE",
"611 707 LINE",
"667 707 LINE",
"667 -14 LINE",
"623 -14 LINE",
"148 616 LINE",
"173 623 LINE",
"173 0 LINE",
"117 2 LINE",
"117 707 LINE",
"190 707 LINE"
);
},
{
closed = 1;
nodes = (
"173 141 LINE",
"173 89 OFFCURVE",
"175 -53 OFFCURVE",
"170 -92 CURVE SMOOTH",
"165 -134 OFFCURVE",
"145 -179 OFFCURVE",
"101 -209 CURVE SMOOTH",
"64 -234 OFFCURVE",
"21 -239 OFFCURVE",
"-28 -229 CURVE",
"-34 -147 LINE",
"14 -159 OFFCURVE",
"66 -156 OFFCURVE",
"91 -131 CURVE SMOOTH",
"113 -109 OFFCURVE",
"119 -80 OFFCURVE",
"117 2 CURVE"
);
}
);
width = 795;
}
);
leftKerningGroup = Nhookleft;
rightKerningGroup = H;
rightMetricsKey = N;
unicode = 019D;
},
{
glyphname = O;
lastChange = "2020-11-19 15:54:49 +0000";
layers = (
{
anchors = (
{
name = BOTTOM;
position = "{438, 0}";
},
{
name = TOP;
position = "{428, 707}";
}
);
background = {
paths = (
{
closed = 1;
nodes = (
"160 591 OFFCURVE",
"101 417 OFFCURVE",
"169 252 CURVE SMOOTH",
"235 86 OFFCURVE",
"399 2 OFFCURVE",
"541 59 CURVE SMOOTH",
"683 116 OFFCURVE",
"741 291 OFFCURVE",
"675 456 CURVE SMOOTH",
"608 622 OFFCURVE",
"445 706 OFFCURVE",
"303 649 CURVE SMOOTH"
);
},
{
closed = 1;
nodes = (
"844 306 OFFCURVE",
"747 89 OFFCURVE",
"559 13 CURVE SMOOTH",
"371 -63 OFFCURVE",
"151 26 OFFCURVE",
"76 214 CURVE SMOOTH",
"0 402 OFFCURVE",
"96 618 OFFCURVE",
"284 694 CURVE SMOOTH",
"472 770 OFFCURVE",
"691 682 OFFCURVE",
"768 494 CURVE SMOOTH"
);
}
);
};
layerId = "6D97EE47-94AA-478E-ABFB-936E6C32B491";
paths = (
{
closed = 1;
nodes = (
"200 607 OFFCURVE",
"141 506 OFFCURVE",
"141 390 CURVE SMOOTH",
"141 345 OFFCURVE",
"150 298 OFFCURVE",
"169 252 CURVE SMOOTH",
"221 121 OFFCURVE",
"334 41 OFFCURVE",
"449 41 CURVE SMOOTH",
"480 41 OFFCURVE",
"511 47 OFFCURVE",
"541 59 CURVE SMOOTH",
"643 100 OFFCURVE",
"702 203 OFFCURVE",
"702 319 CURVE SMOOTH",
"702 363 OFFCURVE",
"693 410 OFFCURVE",
"675 456 CURVE SMOOTH",
"622 587 OFFCURVE",
"510 667 OFFCURVE",
"395 667 CURVE SMOOTH",
"364 667 OFFCURVE",
"333 661 OFFCURVE",
"303 649 CURVE SMOOTH"
);
},
{
closed = 1;
nodes = (
"786 450 OFFCURVE",
"794 405 OFFCURVE",
"794 360 CURVE SMOOTH",
"794 213 OFFCURVE",
"703 71 OFFCURVE",
"559 13 CURVE SMOOTH",
"514 -5 OFFCURVE",
"466 -14 OFFCURVE",
"419 -14 CURVE SMOOTH",
"273 -14 OFFCURVE",
"133 71 OFFCURVE",
"76 214 CURVE SMOOTH",
"58 258 OFFCURVE",
"50 303 OFFCURVE",
"50 348 CURVE SMOOTH",
"50 495 OFFCURVE",
"140 636 OFFCURVE",
"284 694 CURVE SMOOTH",
"330 712 OFFCURVE",
"377 721 OFFCURVE",
"424 721 CURVE SMOOTH",
"570 721 OFFCURVE",
"710 636 OFFCURVE",
"768 494 CURVE SMOOTH"
);
}
);
width = 844;
}
);
leftKerningGroup = O;
rightKerningGroup = O;
unicode = 004F;
},
{
glyphname = Oslash;
lastChange = "2021-06-09 20:20:05 +0000";
layers = (
{
background = {
paths = (
{
closed = 1;
nodes = (
"2506 781 LINE",
"2005 -87 LINE",
"1952 -73 LINE",
"2453 795 LINE"
);
},
{
closed = 1;
nodes = (
"1199 -88 LINE",
"1166 -57 LINE",
"1659 797 LINE",
"1692 766 LINE"
);
},
{
closed = 1;
nodes = (
"660 799 LINE",
"702 784 LINE",
"198 -90 LINE",
"156 -75 LINE"
);
}
);
};
components = (
{
name = O;
}
);
guideLines = (
{
angle = 60.0352;
position = "{417, 377}";
},
{
angle = 60;
position = "{467, 376}";
}
);
layerId = "6D97EE47-94AA-478E-ABFB-936E6C32B491";
paths = (
{
closed = 1;
nodes = (
"660 799 LINE",
"699 778 LINE",
"192 -100 LINE",
"154 -78 LINE"
);
}
);
width = 844;
}
);
leftKerningGroup = O;
leftMetricsKey = O;
rightKerningGroup = O;
rightMetricsKey = O;
unicode = 00D8;
},
{
glyphname = OE;
lastChange = "2020-09-10 17:32:20 +0000";
layers = (
{
background = {
anchors = (
{
name = BOTTOM;
position = "{1924, 0}";
},
{
name = TOP;
position = "{1924, 707}";
}
);
components = (
{
alignment = -1;
name = O;
transform = "{1, 0, 0, 1, 1160, 0}";
},
{
name = serifUC;
transform = "{-1, 0, 0, 1, 2167, 0}";
},
{
name = serifUC;
transform = "{-1, 0, 0, -1, 2167, 1272}";
},
{
name = E;
transform = "{1, 0, 0, 1, 4560, 0}";
},
{
alignment = -1;
name = E;
transform = "{1, 0, 0, 1, 450, 0}";
},
{
name = O;
}
);
paths = (
{
closed = 1;
nodes = (
"441 1266 OFFCURVE",
"441 1257 OFFCURVE",
"448 1253 CURVE",
"454 1248 OFFCURVE",
"464 1247 OFFCURVE",
"484 1247 CURVE SMOOTH",
"528 1247 OFFCURVE",
"553 1249 OFFCURVE",
"568 1258 CURVE SMOOTH",
"583 1267 OFFCURVE",
"587 1284 OFFCURVE",
"592 1315 CURVE",
"616 1318 LINE",
"618 1315 LINE",
"616 1306 OFFCURVE",
"614 1296 OFFCURVE",
"612 1286 CURVE",
"608 1269 OFFCURVE",
"605 1246 OFFCURVE",
"603 1222 CURVE",
"600 1218 LINE",
"578 1219 OFFCURVE",
"556 1219 OFFCURVE",
"536 1220 CURVE",
"527 1221 OFFCURVE",
"518 1221 OFFCURVE",
"508 1221 CURVE",
"489 1221 OFFCURVE",
"470 1222 OFFCURVE",
"454 1222 CURVE SMOOTH",
"446 1222 OFFCURVE",
"438 1222 OFFCURVE",
"432 1222 CURVE SMOOTH",
"410 1222 OFFCURVE",
"391 1221 OFFCURVE",
"377 1219 CURVE SMOOTH",
"369 1218 OFFCURVE",
"362 1217 OFFCURVE",
"354 1217 CURVE",
"358 1242 LINE",
"391 1247 OFFCURVE",
"401 1257 OFFCURVE",
"401 1289 CURVE SMOOTH",
"402 1522 LINE SMOOTH",
"402 1546 OFFCURVE",
"398 1552 OFFCURVE",
"381 1552 CURVE SMOOTH",
"379 1552 OFFCURVE",
"377 1552 OFFCURVE",
"375 1552 CURVE",
"373 1552 OFFCURVE",
"371 1552 OFFCURVE",
"369 1552 CURVE",
"367 1551 OFFCURVE",
"364 1551 OFFCURVE",
"362 1551 CURVE",
"361 1553 LINE",
"365 1578 LINE",
"373 1577 OFFCURVE",
"382 1577 OFFCURVE",
"391 1577 CURVE SMOOTH",
"398 1576 OFFCURVE",
"407 1576 OFFCURVE",
"416 1576 CURVE SMOOTH",
"425 1576 OFFCURVE",
"434 1576 OFFCURVE",
"442 1576 CURVE SMOOTH",
"487 1576 OFFCURVE",
"519 1577 OFFCURVE",
"545 1578 CURVE SMOOTH",
"571 1579 OFFCURVE",
"591 1581 OFFCURVE",
"609 1583 CURVE",
"611 1579 LINE",
"607 1562 OFFCURVE",
"604 1545 OFFCURVE",
"601 1523 CURVE SMOOTH",
"599 1512 OFFCURVE",
"598 1500 OFFCURVE",
"598 1487 CURVE",
"571 1485 LINE",
"571 1491 OFFCURVE",
"572 1497 OFFCURVE",
"572 1502 CURVE",
"572 1505 OFFCURVE",
"572 1507 OFFCURVE",
"572 1509 CURVE SMOOTH",
"572 1527 OFFCURVE",
"571 1537 OFFCURVE",
"559 1542 CURVE SMOOTH",
"553 1545 OFFCURVE",
"545 1547 OFFCURVE",
"534 1547 CURVE SMOOTH",
"522 1548 OFFCURVE",
"507 1548 OFFCURVE",
"487 1548 CURVE SMOOTH",
"478 1548 OFFCURVE",
"471 1548 OFFCURVE",
"466 1548 CURVE",
"456 1547 OFFCURVE",
"451 1545 OFFCURVE",
"449 1539 CURVE",
"449 1536 OFFCURVE",
"448 1532 OFFCURVE",
"448 1527 CURVE",
"444 1419 LINE",
"450 1419 OFFCURVE",
"459 1419 OFFCURVE",
"471 1419 CURVE",
"483 1418 OFFCURVE",
"493 1418 OFFCURVE",
"501 1418 CURVE SMOOTH",
"512 1418 OFFCURVE",
"527 1419 OFFCURVE",
"542 1421 CURVE SMOOTH",
"551 1422 OFFCURVE",
"559 1423 OFFCURVE",
"569 1424 CURVE",
"571 1422 LINE",
"563 1389 LINE",
"554 1389 OFFCURVE",
"545 1389 OFFCURVE",
"536 1389 CURVE SMOOTH",
"520 1390 OFFCURVE",
"501 1391 OFFCURVE",
"486 1391 CURVE SMOOTH",
"468 1391 OFFCURVE",
"452 1388 OFFCURVE",
"443 1387 CURVE",
"442 1372 OFFCURVE",
"442 1358 OFFCURVE",
"442 1347 CURVE SMOOTH",
"441 1325 OFFCURVE",
"441 1309 OFFCURVE",
"441 1297 CURVE SMOOTH",
"441 1291 OFFCURVE",
"441 1285 OFFCURVE",
"441 1281 CURVE SMOOTH"
);
},
{
closed = 1;
nodes = (
"-393 1244 OFFCURVE",
"-363 1259 OFFCURVE",
"-342 1284 CURVE SMOOTH",
"-321 1310 OFFCURVE",
"-309 1346 OFFCURVE",
"-309 1388 CURVE SMOOTH",
"-309 1436 OFFCURVE",
"-322 1476 OFFCURVE",
"-344 1504 CURVE SMOOTH",
"-367 1533 OFFCURVE",
"-398 1549 OFFCURVE",
"-436 1549 CURVE SMOOTH",
"-471 1549 OFFCURVE",
"-499 1535 OFFCURVE",
"-520 1509 CURVE SMOOTH",
"-541 1484 OFFCURVE",
"-552 1448 OFFCURVE",
"-552 1405 CURVE SMOOTH",
"-552 1358 OFFCURVE",
"-539 1317 OFFCURVE",
"-518 1289 CURVE SMOOTH",
"-496 1261 OFFCURVE",
"-465 1244 OFFCURVE",
"-429 1244 CURVE SMOOTH"
);
},
{
closed = 1;
nodes = (
"-492 1216 OFFCURVE",
"-530 1233 OFFCURVE",
"-557 1263 CURVE SMOOTH",
"-584 1294 OFFCURVE",
"-600 1336 OFFCURVE",
"-600 1387 CURVE SMOOTH",
"-600 1442 OFFCURVE",
"-580 1491 OFFCURVE",
"-547 1527 CURVE SMOOTH",
"-514 1562 OFFCURVE",
"-468 1583 OFFCURVE",
"-417 1583 CURVE SMOOTH",
"-371 1583 OFFCURVE",
"-331 1566 OFFCURVE",
"-303 1536 CURVE SMOOTH",
"-276 1506 OFFCURVE",
"-260 1462 OFFCURVE",
"-260 1412 CURVE SMOOTH",
"-260 1356 OFFCURVE",
"-281 1307 OFFCURVE",
"-314 1272 CURVE SMOOTH",
"-347 1237 OFFCURVE",
"-393 1216 OFFCURVE",
"-446 1216 CURVE SMOOTH"
);
},
{
closed = 1;
nodes = (
"113 1281 LINE SMOOTH",
"113 1266 OFFCURVE",
"113 1257 OFFCURVE",
"120 1253 CURVE",
"126 1248 OFFCURVE",
"137 1247 OFFCURVE",
"157 1247 CURVE SMOOTH",
"201 1247 OFFCURVE",
"225 1249 OFFCURVE",
"240 1258 CURVE SMOOTH",
"255 1267 OFFCURVE",
"259 1284 OFFCURVE",
"264 1315 CURVE",
"288 1318 LINE",
"290 1315 LINE",
"288 1306 OFFCURVE",
"286 1296 OFFCURVE",
"284 1286 CURVE",
"281 1269 OFFCURVE",
"277 1246 OFFCURVE",
"275 1222 CURVE",
"272 1218 LINE",
"249 1219 OFFCURVE",
"228 1220 OFFCURVE",
"207 1221 CURVE",
"198 1221 OFFCURVE",
"189 1221 OFFCURVE",
"179 1222 CURVE",
"160 1222 OFFCURVE",
"142 1222 OFFCURVE",
"126 1223 CURVE SMOOTH",
"117 1223 OFFCURVE",
"109 1223 OFFCURVE",
"103 1223 CURVE SMOOTH",
"74 1223 OFFCURVE",
"48 1222 OFFCURVE",
"26 1219 CURVE SMOOTH",
"3 1217 OFFCURVE",
"-18 1216 OFFCURVE",
"-38 1216 CURVE SMOOTH",
"-83 1216 OFFCURVE",
"-120 1233 OFFCURVE",
"-146 1263 CURVE SMOOTH",
"-173 1294 OFFCURVE",
"-188 1337 OFFCURVE",
"-188 1387 CURVE SMOOTH",
"-188 1442 OFFCURVE",
"-168 1491 OFFCURVE",
"-136 1527 CURVE SMOOTH",
"-104 1562 OFFCURVE",
"-60 1583 OFFCURVE",
"-9 1583 CURVE SMOOTH",
"9 1583 OFFCURVE",
"29 1582 OFFCURVE",
"48 1579 CURVE SMOOTH",
"68 1576 OFFCURVE",
"89 1575 OFFCURVE",
"112 1575 CURVE SMOOTH",
"191 1575 OFFCURVE",
"241 1577 OFFCURVE",
"281 1583 CURVE",
"283 1579 LINE",
"279 1562 OFFCURVE",
"276 1545 OFFCURVE",
"273 1523 CURVE SMOOTH",
"272 1512 OFFCURVE",
"271 1500 OFFCURVE",
"270 1487 CURVE",
"243 1485 LINE",
"243 1491 OFFCURVE",
"244 1497 OFFCURVE",
"244 1502 CURVE",
"244 1505 OFFCURVE",
"244 1507 OFFCURVE",
"244 1509 CURVE SMOOTH",
"244 1527 OFFCURVE",
"243 1537 OFFCURVE",
"231 1542 CURVE SMOOTH",
"225 1545 OFFCURVE",
"217 1547 OFFCURVE",
"206 1547 CURVE SMOOTH",
"194 1548 OFFCURVE",
"178 1548 OFFCURVE",
"159 1548 CURVE SMOOTH",
"150 1548 OFFCURVE",
"143 1548 OFFCURVE",
"138 1548 CURVE",
"127 1547 OFFCURVE",
"123 1545 OFFCURVE",
"122 1539 CURVE",
"121 1536 OFFCURVE",
"121 1532 OFFCURVE",
"120 1527 CURVE",
"116 1419 LINE",
"173 1418 LINE SMOOTH",
"184 1418 OFFCURVE",
"199 1419 OFFCURVE",
"214 1421 CURVE SMOOTH",
"223 1422 OFFCURVE",
"232 1423 OFFCURVE",
"241 1424 CURVE",
"243 1422 LINE",
"236 1389 LINE",
"226 1389 OFFCURVE",
"217 1389 OFFCURVE",
"208 1389 CURVE SMOOTH",
"192 1390 OFFCURVE",
"173 1391 OFFCURVE",
"158 1391 CURVE",
"114 1387 LINE"
);
},
{
closed = 1;
nodes = (
"14 1244 OFFCURVE",
"39 1251 OFFCURVE",
"55 1266 CURVE SMOOTH",
"71 1281 OFFCURVE",
"78 1304 OFFCURVE",
"78 1338 CURVE SMOOTH",
"78 1482 LINE SMOOTH",
"78 1509 OFFCURVE",
"73 1526 OFFCURVE",
"58 1537 CURVE SMOOTH",
"42 1547 OFFCURVE",
"17 1551 OFFCURVE",
"-23 1551 CURVE SMOOTH",
"-58 1551 OFFCURVE",
"-87 1536 OFFCURVE",
"-108 1511 CURVE SMOOTH",
"-128 1485 OFFCURVE",
"-141 1448 OFFCURVE",
"-141 1406 CURVE SMOOTH",
"-141 1357 OFFCURVE",
"-128 1318 OFFCURVE",
"-107 1289 CURVE SMOOTH",
"-86 1261 OFFCURVE",
"-57 1244 OFFCURVE",
"-21 1244 CURVE SMOOTH"
);
},
{
closed = 1;
nodes = (
"3229 1220 OFFCURVE",
"3234 1222 OFFCURVE",
"3239 1234 CURVE",
"3246 1252 OFFCURVE",
"3258 1294 OFFCURVE",
"3261 1308 CURVE",
"3258 1311 OFFCURVE",
"3247 1314 OFFCURVE",
"3243 1314 CURVE",
"3236 1297 OFFCURVE",
"3224 1274 OFFCURVE",
"3216 1263 CURVE SMOOTH",
"3205 1248 OFFCURVE",
"3192 1244 OFFCURVE",
"3174 1244 CURVE SMOOTH",
"3153 1244 OFFCURVE",
"3065 1245 OFFCURVE",
"3032 1248 CURVE",
"3030 1248 OFFCURVE",
"3029 1251 OFFCURVE",
"3031 1253 CURVE",
"3070 1285 OFFCURVE",
"3092 1336 OFFCURVE",
"3094 1380 CURVE",
"3094 1382 OFFCURVE",
"3096 1384 OFFCURVE",
"3097 1384 CURVE SMOOTH",
"3121 1384 OFFCURVE",
"3148 1384 OFFCURVE",
"3165 1383 CURVE SMOOTH",
"3176 1382 OFFCURVE",
"3182 1376 OFFCURVE",
"3185 1365 CURVE",
"3187 1358 OFFCURVE",
"3188 1352 OFFCURVE",
"3189 1342 CURVE",
"3193 1341 OFFCURVE",
"3205 1340 OFFCURVE",
"3209 1343 CURVE",
"3208 1356 OFFCURVE",
"3207 1370 OFFCURVE",
"3207 1394 CURVE SMOOTH",
"3207 1411 OFFCURVE",
"3209 1437 OFFCURVE",
"3211 1449 CURVE",
"3209 1451 OFFCURVE",
"3196 1452 OFFCURVE",
"3192 1451 CURVE",
"3191 1442 OFFCURVE",
"3188 1434 OFFCURVE",
"3186 1427 CURVE SMOOTH",
"3183 1417 OFFCURVE",
"3178 1411 OFFCURVE",
"3166 1410 CURVE SMOOTH",
"3147 1409 OFFCURVE",
"3124 1409 OFFCURVE",
"3097 1409 CURVE SMOOTH",
"3096 1409 OFFCURVE",
"3094 1411 OFFCURVE",
"3094 1412 CURVE",
"3092 1462 OFFCURVE",
"3075 1506 OFFCURVE",
"3034 1538 CURVE",
"3033 1539 OFFCURVE",
"3033 1541 OFFCURVE",
"3034 1541 CURVE",
"3044 1542 OFFCURVE",
"3157 1542 OFFCURVE",
"3168 1541 CURVE SMOOTH",
"3186 1539 OFFCURVE",
"3192 1533 OFFCURVE",
"3197 1520 CURVE SMOOTH",
"3199 1512 OFFCURVE",
"3202 1499 OFFCURVE",
"3204 1484 CURVE",
"3207 1482 OFFCURVE",
"3219 1483 OFFCURVE",
"3222 1486 CURVE",
"3223 1512 OFFCURVE",
"3227 1548 OFFCURVE",
"3231 1564 CURVE",
"3229 1566 LINE",
"3218 1564 OFFCURVE",
"3189 1564 OFFCURVE",
"3167 1564 CURVE SMOOTH",
"3005 1564 LINE SMOOTH",
"2994 1564 OFFCURVE",
"2981 1567 OFFCURVE",
"2974 1568 CURVE",
"2961 1571 OFFCURVE",
"2941 1574 OFFCURVE",
"2924 1574 CURVE SMOOTH",
"2865 1574 OFFCURVE",
"2807 1546 OFFCURVE",
"2776 1503 CURVE SMOOTH",
"2753 1473 OFFCURVE",
"2742 1437 OFFCURVE",
"2742 1396 CURVE SMOOTH",
"2742 1346 OFFCURVE",
"2756 1299 OFFCURVE",
"2790 1263 CURVE SMOOTH",
"2819 1232 OFFCURVE",
"2864 1212 OFFCURVE",
"2915 1212 CURVE SMOOTH",
"2936 1212 OFFCURVE",
"2953 1214 OFFCURVE",
"2973 1219 CURVE",
"2976 1221 OFFCURVE",
"2987 1222 OFFCURVE",
"2991 1222 CURVE SMOOTH",
"3009 1222 OFFCURVE",
"3172 1221 OFFCURVE",
"3208 1220 CURVE SMOOTH"
);
},
{
closed = 1;
nodes = (
"2908 1237 OFFCURVE",
"2887 1243 OFFCURVE",
"2867 1256 CURVE SMOOTH",
"2818 1287 OFFCURVE",
"2796 1350 OFFCURVE",
"2796 1409 CURVE SMOOTH",
"2796 1466 OFFCURVE",
"2816 1516 OFFCURVE",
"2856 1539 CURVE SMOOTH",
"2871 1547 OFFCURVE",
"2887 1552 OFFCURVE",
"2906 1552 CURVE SMOOTH",
"2936 1552 OFFCURVE",
"2959 1543 OFFCURVE",
"2979 1529 CURVE SMOOTH",
"3023 1499 OFFCURVE",
"3043 1442 OFFCURVE",
"3043 1382 CURVE SMOOTH",
"3043 1331 OFFCURVE",
"3030 1283 OFFCURVE",
"2995 1256 CURVE SMOOTH",
"2981 1243 OFFCURVE",
"2959 1237 OFFCURVE",
"2936 1237 CURVE SMOOTH"
);
},
{
closed = 1;
nodes = (
"3356 1549 OFFCURVE",
"3365 1547 OFFCURVE",
"3372 1545 CURVE",
"3386 1542 OFFCURVE",
"3388 1537 OFFCURVE",
"3389 1517 CURVE SMOOTH",
"3389 1507 OFFCURVE",
"3389 1457 OFFCURVE",
"3389 1407 CURVE SMOOTH",
"3389 1344 OFFCURVE",
"3389 1283 OFFCURVE",
"3389 1272 CURVE SMOOTH",
"3387 1253 OFFCURVE",
"3383 1246 OFFCURVE",
"3370 1242 CURVE SMOOTH",
"3360 1239 OFFCURVE",
"3345 1238 OFFCURVE",
"3328 1237 CURVE",
"3326 1234 OFFCURVE",
"3326 1222 OFFCURVE",
"3328 1221 CURVE",
"3351 1221 OFFCURVE",
"3379 1222 OFFCURVE",
"3416 1222 CURVE SMOOTH",
"3474 1222 OFFCURVE",
"3514 1220 OFFCURVE",
"3561 1220 CURVE SMOOTH",
"3588 1220 OFFCURVE",
"3592 1223 OFFCURVE",
"3595 1229 CURVE",
"3603 1246 OFFCURVE",
"3616 1288 OFFCURVE",
"3618 1305 CURVE",
"3616 1308 OFFCURVE",
"3605 1312 OFFCURVE",
"3602 1311 CURVE",
"3595 1294 OFFCURVE",
"3583 1272 OFFCURVE",
"3574 1262 CURVE",
"3564 1249 OFFCURVE",
"3557 1244 OFFCURVE",
"3533 1244 CURVE SMOOTH",
"3511 1244 OFFCURVE",
"3462 1244 OFFCURVE",
"3451 1247 CURVE",
"3444 1249 OFFCURVE",
"3438 1257 OFFCURVE",
"3438 1268 CURVE",
"3437 1295 OFFCURVE",
"3437 1354 OFFCURVE",
"3437 1379 CURVE SMOOTH",
"3437 1381 OFFCURVE",
"3439 1384 OFFCURVE",
"3440 1384 CURVE SMOOTH",
"3461 1384 OFFCURVE",
"3507 1384 OFFCURVE",
"3523 1383 CURVE SMOOTH",
"3536 1382 OFFCURVE",
"3540 1374 OFFCURVE",
"3542 1367 CURVE",
"3544 1360 OFFCURVE",
"3545 1356 OFFCURVE",
"3547 1344 CURVE",
"3549 1341 OFFCURVE",
"3563 1342 OFFCURVE",
"3566 1344 CURVE",
"3565 1358 OFFCURVE",
"3564 1374 OFFCURVE",
"3564 1395 CURVE SMOOTH",
"3564 1414 OFFCURVE",
"3567 1436 OFFCURVE",
"3568 1447 CURVE",
"3566 1450 OFFCURVE",
"3553 1451 OFFCURVE",
"3550 1449 CURVE",
"3548 1441 OFFCURVE",
"3546 1433 OFFCURVE",
"3544 1427 CURVE",
"3541 1418 OFFCURVE",
"3537 1411 OFFCURVE",
"3525 1410 CURVE SMOOTH",
"3505 1408 OFFCURVE",
"3462 1408 OFFCURVE",
"3440 1409 CURVE SMOOTH",
"3438 1409 OFFCURVE",
"3437 1411 OFFCURVE",
"3437 1413 CURVE SMOOTH",
"3437 1438 OFFCURVE",
"3437 1499 OFFCURVE",
"3438 1531 CURVE SMOOTH",
"3438 1533 OFFCURVE",
"3441 1540 OFFCURVE",
"3444 1541 CURVE",
"3452 1542 OFFCURVE",
"3519 1542 OFFCURVE",
"3529 1541 CURVE",
"3548 1539 OFFCURVE",
"3553 1533 OFFCURVE",
"3557 1520 CURVE",
"3559 1512 OFFCURVE",
"3562 1502 OFFCURVE",
"3563 1486 CURVE",
"3565 1484 OFFCURVE",
"3578 1484 OFFCURVE",
"3581 1487 CURVE",
"3582 1509 OFFCURVE",
"3586 1547 OFFCURVE",
"3591 1563 CURVE",
"3591 1564 OFFCURVE",
"3589 1566 OFFCURVE",
"3588 1566 CURVE",
"3577 1564 OFFCURVE",
"3548 1564 OFFCURVE",
"3527 1564 CURVE SMOOTH",
"3417 1564 LINE SMOOTH",
"3386 1564 OFFCURVE",
"3357 1566 OFFCURVE",
"3343 1566 CURVE",
"3341 1563 OFFCURVE",
"3340 1553 OFFCURVE",
"3343 1551 CURVE"
);
},
{
closed = 1;
nodes = (
"2554 1212 OFFCURVE",
"2610 1237 OFFCURVE",
"2644 1285 CURVE SMOOTH",
"2667 1317 OFFCURVE",
"2678 1352 OFFCURVE",
"2678 1401 CURVE SMOOTH",
"2678 1491 OFFCURVE",
"2621 1574 OFFCURVE",
"2508 1574 CURVE SMOOTH",
"2451 1574 OFFCURVE",
"2390 1546 OFFCURVE",
"2359 1503 CURVE SMOOTH",
"2337 1473 OFFCURVE",
"2325 1437 OFFCURVE",
"2325 1396 CURVE SMOOTH",
"2325 1346 OFFCURVE",
"2339 1299 OFFCURVE",
"2373 1263 CURVE SMOOTH",
"2402 1232 OFFCURVE",
"2445 1212 OFFCURVE",
"2498 1212 CURVE SMOOTH"
);
},
{
closed = 1;
nodes = (
"2491 1237 OFFCURVE",
"2469 1243 OFFCURVE",
"2450 1256 CURVE SMOOTH",
"2401 1287 OFFCURVE",
"2379 1351 OFFCURVE",
"2379 1409 CURVE SMOOTH",
"2379 1466 OFFCURVE",
"2398 1516 OFFCURVE",
"2439 1539 CURVE SMOOTH",
"2453 1547 OFFCURVE",
"2469 1552 OFFCURVE",
"2489 1552 CURVE SMOOTH",
"2518 1552 OFFCURVE",
"2542 1543 OFFCURVE",
"2562 1529 CURVE SMOOTH",
"2606 1499 OFFCURVE",
"2626 1441 OFFCURVE",
"2626 1381 CURVE SMOOTH",
"2626 1330 OFFCURVE",
"2613 1284 OFFCURVE",
"2579 1256 CURVE SMOOTH",
"2564 1244 OFFCURVE",
"2543 1237 OFFCURVE",
"2519 1237 CURVE SMOOTH"
);
},
{
closed = 1;
nodes = (
"1893 342 LINE",
"1893 393 LINE",
"2136 393 LINE",
"2136 342 LINE"
);
},
{
closed = 1;
nodes = (
"1737 656 LINE",
"1737 707 LINE",
"2171 707 LINE",
"2171 656 LINE"
);
},
{
closed = 1;
nodes = (
"1737 0 LINE",
"1737 51 LINE",
"2195 51 LINE",
"2195 0 LINE"
);
},
{
closed = 1;
nodes = (
"2101 406 OFFCURVE",
"2104 444 OFFCURVE",
"2104 463 CURVE",
"2115 463 OFFCURVE",
"2129 463 OFFCURVE",
"2136 463 CURVE",
"2136 376 LINE",
"2088 376 LINE"
);
},
{
closed = 1;
nodes = (
"2136 351 LINE",
"2136 263 LINE",
"2129 263 OFFCURVE",
"2115 263 OFFCURVE",
"2104 263 CURVE",
"2104 282 OFFCURVE",
"2101 321 OFFCURVE",
"2088 351 CURVE"
);
},
{
closed = 1;
nodes = (
"2114 704 LINE",
"2171 707 LINE",
"2176 571 LINE",
"2169 571 OFFCURVE",
"2156 571 OFFCURVE",
"2143 570 CURVE",
"2143 589 OFFCURVE",
"2137 628 OFFCURVE",
"2122 658 CURVE"
);
},
{
closed = 1;
nodes = (
"2169 85 OFFCURVE",
"2193 146 OFFCURVE",
"2197 159 CURVE",
"2208 156 OFFCURVE",
"2222 153 OFFCURVE",
"2228 151 CURVE",
"2195 0 LINE",
"2124 13 LINE",
"2143 51 LINE"
);
},
{
closed = 1;
nodes = (
"3949 591 OFFCURVE",
"3891 417 OFFCURVE",
"3958 252 CURVE SMOOTH",
"4024 86 OFFCURVE",
"4188 2 OFFCURVE",
"4330 59 CURVE SMOOTH",
"4472 116 OFFCURVE",
"4531 291 OFFCURVE",
"4464 456 CURVE SMOOTH",
"4397 621 OFFCURVE",
"4233 706 OFFCURVE",
"4092 649 CURVE SMOOTH"
);
},
{
closed = 1;
nodes = (
"4633 306 OFFCURVE",
"4536 89 OFFCURVE",
"4348 13 CURVE SMOOTH",
"4161 -63 OFFCURVE",
"3941 26 OFFCURVE",
"3865 214 CURVE SMOOTH",
"3789 402 OFFCURVE",
"3886 618 OFFCURVE",
"4073 694 CURVE SMOOTH",
"4261 770 OFFCURVE",
"4481 682 OFFCURVE",
"4557 494 CURVE SMOOTH"
);
},
{
closed = 1;
nodes = (
"4499 342 LINE",
"4499 393 LINE",
"4842 393 LINE",
"4842 342 LINE"
);
},
{
closed = 1;
nodes = (
"4499 0 LINE",
"4499 707 LINE",
"4587 707 LINE",
"4587 0 LINE"
);
},
{
closed = 1;
nodes = (
"4499 656 LINE",
"4499 707 LINE",
"4877 707 LINE",
"4877 656 LINE"
);
},
{
closed = 1;
nodes = (
"4499 0 LINE",
"4499 51 LINE",
"4901 51 LINE",
"4901 0 LINE"
);
},
{
closed = 1;
nodes = (
"4807 406 OFFCURVE",
"4810 444 OFFCURVE",
"4810 463 CURVE",
"4821 463 OFFCURVE",
"4836 463 OFFCURVE",
"4842 463 CURVE",
"4842 376 LINE",
"4794 376 LINE"
);
},
{
closed = 1;
nodes = (
"4842 351 LINE",
"4842 263 LINE",
"4836 263 OFFCURVE",
"4821 263 OFFCURVE",
"4810 263 CURVE",
"4810 282 OFFCURVE",
"4807 321 OFFCURVE",
"4794 351 CURVE"
);
},
{
closed = 1;
nodes = (
"4821 704 LINE",
"4877 707 LINE",
"4882 571 LINE",
"4875 571 OFFCURVE",
"4862 571 OFFCURVE",
"4849 570 CURVE",
"4849 589 OFFCURVE",
"4843 628 OFFCURVE",
"4828 658 CURVE"
);
},
{
closed = 1;
nodes = (
"4875 85 OFFCURVE",
"4899 146 OFFCURVE",
"4903 159 CURVE",
"4914 156 OFFCURVE",
"4928 153 OFFCURVE",
"4934 151 CURVE",
"4901 0 LINE",
"4831 13 LINE",
"4849 51 LINE"
);
},
{
closed = 1;
nodes = (
"2783 591 OFFCURVE",
"2724 417 OFFCURVE",
"2791 252 CURVE SMOOTH",
"2858 86 OFFCURVE",
"3021 2 OFFCURVE",
"3163 59 CURVE SMOOTH",
"3306 116 OFFCURVE",
"3364 291 OFFCURVE",
"3297 456 CURVE SMOOTH",
"3231 621 OFFCURVE",
"3067 706 OFFCURVE",
"2925 649 CURVE SMOOTH"
);
},
{
closed = 1;
nodes = (
"3466 306 OFFCURVE",
"3369 89 OFFCURVE",
"3182 13 CURVE SMOOTH",
"2994 -63 OFFCURVE",
"2774 26 OFFCURVE",
"2698 214 CURVE SMOOTH",
"2622 402 OFFCURVE",
"2719 618 OFFCURVE",
"2907 694 CURVE SMOOTH",
"3094 770 OFFCURVE",
"3314 682 OFFCURVE",
"3390 494 CURVE SMOOTH"
);
},
{
closed = 1;
nodes = (
"588 26 LINE",
"579 22 OFFCURVE",
"569 17 OFFCURVE",
"559 13 CURVE SMOOTH",
"371 -63 OFFCURVE",
"151 26 OFFCURVE",
"76 214 CURVE SMOOTH",
"-1 404 OFFCURVE",
"98 619 OFFCURVE",
"284 694 CURVE SMOOTH",
"385 735 OFFCURVE",
"495 728 OFFCURVE",
"588 684 CURVE",
"588 586 LINE",
"508 661 OFFCURVE",
"400 688 OFFCURVE",
"303 649 CURVE SMOOTH",
"160 591 OFFCURVE",
"101 417 OFFCURVE",
"169 252 CURVE SMOOTH",
"235 86 OFFCURVE",
"399 2 OFFCURVE",
"541 59 CURVE SMOOTH",
"558 66 OFFCURVE",
"573 74 OFFCURVE",
"588 84 CURVE"
);
}
);
};
components = (
{
alignment = -1;
name = E;
transform = "{1, 0, 0, 1, 450, 0}";
}
);
layerId = "6D97EE47-94AA-478E-ABFB-936E6C32B491";
paths = (
{
closed = 1;
nodes = (
"588 26 LINE",
"579 22 OFFCURVE",
"569 17 OFFCURVE",
"559 13 CURVE SMOOTH",
"371 -63 OFFCURVE",
"151 26 OFFCURVE",
"76 214 CURVE SMOOTH",
"-1 404 OFFCURVE",
"98 619 OFFCURVE",
"284 694 CURVE SMOOTH",
"385 735 OFFCURVE",
"495 728 OFFCURVE",
"588 684 CURVE",
"588 606 LINE",
"508 667 OFFCURVE",
"400 688 OFFCURVE",
"303 649 CURVE SMOOTH",
"160 591 OFFCURVE",
"101 417 OFFCURVE",
"169 252 CURVE SMOOTH",
"235 86 OFFCURVE",
"399 2 OFFCURVE",
"541 59 CURVE SMOOTH",
"558 66 OFFCURVE",
"573 74 OFFCURVE",
"588 84 CURVE"
);
}
);
width = 1048;
}
);
leftKerningGroup = O;
leftMetricsKey = O;
rightKerningGroup = E;
rightMetricsKey = E;
unicode = 0152;
},
{
glyphname = P;
lastChange = "2020-11-19 15:54:58 +0000";
layers = (
{
background = {
paths = (
{
closed = 1;
nodes = (
"1288 254 OFFCURVE",
"1389 387 OFFCURVE",
"1373 508 CURVE SMOOTH",
"1356 635 OFFCURVE",
"1233 704 OFFCURVE",
"1144 712 CURVE SMOOTH",
"1061 719 OFFCURVE",
"1008 707 OFFCURVE",
"851 695 CURVE",
"938 682 LINE",
"938 0 LINE",
"1025 0 LINE",
"1025 664 LINE",
"1135 681 OFFCURVE",
"1263 624 OFFCURVE",
"1284 496 CURVE SMOOTH",
"1301 392 OFFCURVE",
"1240 303 OFFCURVE",
"1082 293 CURVE",
"1087 261 LINE"
);
},
{
closed = 1;
nodes = (
"938 692 LINE",
"851 695 LINE",
"854 663 LINE",
"872 664 OFFCURVE",
"911 666 OFFCURVE",
"942 655 CURVE"
);
},
{
closed = 1;
nodes = (
"282 293 LINE",
"440 303 OFFCURVE",
"501 392 OFFCURVE",
"484 496 CURVE SMOOTH",
"463 624 OFFCURVE",
"335 681 OFFCURVE",
"225 664 CURVE",
"225 0 LINE",
"138 0 LINE",
"138 682 LINE",
"51 695 LINE",
"208 707 OFFCURVE",
"261 718 OFFCURVE",
"344 712 CURVE SMOOTH",
"433 705 OFFCURVE",
"560 638 OFFCURVE",
"578 510 CURVE SMOOTH",
"595 386 OFFCURVE",
"488 254 OFFCURVE",
"287 261 CURVE"
);
},
{
closed = 1;
nodes = (
"111 666 OFFCURVE",
"72 664 OFFCURVE",
"54 663 CURVE",
"51 695 LINE",
"138 692 LINE",
"142 655 LINE"
);
}
);
};
components = (
{
name = serifUC;
transform = "{1.1, 0, 0, 1, 225, 0}";
},
{
name = serifUC;
transform = "{-1, 0, 0, 1, 138, 0}";
}
);
layerId = "6D97EE47-94AA-478E-ABFB-936E6C32B491";
paths = (
{
closed = 1;
nodes = (
"282 300 LINE",
"440 310 OFFCURVE",
"501 399 OFFCURVE",
"484 503 CURVE SMOOTH",
"463 631 OFFCURVE",
"335 688 OFFCURVE",
"225 671 CURVE",
"225 0 LINE",
"138 0 LINE",
"138 689 LINE",
"51 702 LINE",
"208 714 OFFCURVE",
"261 725 OFFCURVE",
"344 719 CURVE SMOOTH",
"433 713 OFFCURVE",
"560 645 OFFCURVE",
"578 517 CURVE SMOOTH",
"595 393 OFFCURVE",
"488 261 OFFCURVE",
"287 268 CURVE"
);
},
{
closed = 1;
nodes = (
"117 674 OFFCURVE",
"74 674 OFFCURVE",
"54 672 CURVE",
"51 702 LINE",
"147 709 LINE",
"152 664 LINE"
);
}
);
width = 630;
}
);
leftKerningGroup = H;
leftMetricsKey = H;
rightKerningGroup = P;
rightMetricsKey = O;
unicode = 0050;
},
{
glyphname = Thorn;
lastChange = "2020-11-21 19:04:28 +0000";
layers = (
{
background = {
paths = (
{
closed = 1;
nodes = (
"1265 206 LINE",
"1312 209 OFFCURVE",
"1374 214 OFFCURVE",
"1426 238 CURVE SMOOTH",
"1482 264 OFFCURVE",
"1519 328 OFFCURVE",
"1512 391 CURVE SMOOTH",
"1506 440 OFFCURVE",
"1473 481 OFFCURVE",
"1433 503 CURVE SMOOTH",
"1388 528 OFFCURVE",
"1326 527 OFFCURVE",
"1254 514 CURVE",
"1239 549 LINE",
"1282 558 OFFCURVE",
"1304 569 OFFCURVE",
"1391 569 CURVE SMOOTH",
"1472 568 OFFCURVE",
"1579 526 OFFCURVE",
"1599 404 CURVE SMOOTH",
"1614 304 OFFCURVE",
"1509 219 OFFCURVE",
"1449 197 CURVE SMOOTH",
"1392 176 OFFCURVE",
"1337 168 OFFCURVE",
"1272 168 CURVE"
);
},
{
closed = 0;
nodes = (
"225 1264 LINE",
"335 1281 OFFCURVE",
"463 1224 OFFCURVE",
"484 1096 CURVE SMOOTH",
"501 992 OFFCURVE",
"440 903 OFFCURVE",
"282 893 CURVE",
"287 861 LINE",
"488 854 OFFCURVE",
"589 987 OFFCURVE",
"573 1108 CURVE SMOOTH",
"556 1235 OFFCURVE",
"433 1305 OFFCURVE",
"344 1312 CURVE SMOOTH",
"261 1318 OFFCURVE",
"208 1307 OFFCURVE",
"51 1295 CURVE"
);
},
{
closed = 1;
nodes = (
"712 583 LINE SMOOTH",
"762 587 OFFCURVE",
"798 589 OFFCURVE",
"844 586 CURVE SMOOTH",
"933 579 OFFCURVE",
"1056 509 OFFCURVE",
"1073 382 CURVE SMOOTH",
"1089 261 OFFCURVE",
"988 128 OFFCURVE",
"787 135 CURVE",
"782 167 LINE",
"940 177 OFFCURVE",
"1001 266 OFFCURVE",
"984 370 CURVE SMOOTH",
"963 498 OFFCURVE",
"835 555 OFFCURVE",
"725 538 CURVE"
);
},
{
closed = 1;
nodes = (
"212 563 LINE SMOOTH",
"258 567 OFFCURVE",
"290 569 OFFCURVE",
"332 566 CURVE SMOOTH",
"413 559 OFFCURVE",
"525 496 OFFCURVE",
"541 380 CURVE SMOOTH",
"555 270 OFFCURVE",
"463 149 OFFCURVE",
"280 155 CURVE",
"276 184 LINE",
"420 193 OFFCURVE",
"475 274 OFFCURVE",
"460 369 CURVE SMOOTH",
"441 486 OFFCURVE",
"324 538 OFFCURVE",
"224 522 CURVE"
);
}
);
};
components = (
{
name = I;
}
);
guideLines = (
{
alignment = center;
angle = 8;
position = "{454, 368}";
}
);
layerId = "6D97EE47-94AA-478E-ABFB-936E6C32B491";
paths = (
{
closed = 1;
nodes = (
"206 552 LINE",
"253 562 OFFCURVE",
"284 563 OFFCURVE",
"327 558 CURVE SMOOTH",
"409 549 OFFCURVE",
"517 490 OFFCURVE",
"531 379 CURVE SMOOTH",
"545 273 OFFCURVE",
"453 154 OFFCURVE",
"270 163 CURVE",
"266 194 LINE",
"404 201 OFFCURVE",
"457 276 OFFCURVE",
"442 369 CURVE SMOOTH",
"425 482 OFFCURVE",
"312 530 OFFCURVE",
"219 511 CURVE"
);
}
);
width = 582;
}
);
leftKerningGroup = H;
leftMetricsKey = H;
rightKerningGroup = Thorn;
rightMetricsKey = P;
unicode = 00DE;
},
{
glyphname = Q;
lastChange = "2020-06-27 22:32:08 +0000";
layers = (
{
background = {
paths = (
{
closed = 1;
nodes = (
"845 306 OFFCURVE",
"748 89 OFFCURVE",
"560 13 CURVE SMOOTH",
"372 -63 OFFCURVE",
"152 26 OFFCURVE",
"77 214 CURVE SMOOTH",
"1 402 OFFCURVE",
"97 618 OFFCURVE",
"285 694 CURVE SMOOTH",
"473 770 OFFCURVE",
"692 682 OFFCURVE",
"769 494 CURVE SMOOTH"
);
},
{
closed = 1;
nodes = (
"161 591 OFFCURVE",
"102 417 OFFCURVE",
"170 252 CURVE SMOOTH",
"236 86 OFFCURVE",
"400 2 OFFCURVE",
"542 59 CURVE SMOOTH",
"684 116 OFFCURVE",
"742 291 OFFCURVE",
"676 456 CURVE SMOOTH",
"609 622 OFFCURVE",
"446 706 OFFCURVE",
"304 649 CURVE SMOOTH"
);
},
{
closed = 1;
nodes = (
"622 3 OFFCURVE",
"657 -17 OFFCURVE",
"686 -28 CURVE SMOOTH",
"747 -51 OFFCURVE",
"789 -78 OFFCURVE",
"877 -57 CURVE",
"887 -88 LINE",
"721 -131 OFFCURVE",
"642 -110 OFFCURVE",
"490 -33 CURVE SMOOTH",
"468 -22 OFFCURVE",
"442 -4 OFFCURVE",
"413 18 CURVE",
"584 29 LINE"
);
}
);
};
layerId = "6D97EE47-94AA-478E-ABFB-936E6C32B491";
paths = (
{
closed = 1;
nodes = (
"371 -63 OFFCURVE",
"151 26 OFFCURVE",
"76 214 CURVE SMOOTH",
"0 402 OFFCURVE",
"96 618 OFFCURVE",
"284 694 CURVE SMOOTH",
"472 770 OFFCURVE",
"691 682 OFFCURVE",
"768 494 CURVE SMOOTH",
"845 304 OFFCURVE",
"748 89 OFFCURVE",
"559 13 CURVE SMOOTH"
);
},
{
closed = 1;
nodes = (
"683 116 OFFCURVE",
"741 291 OFFCURVE",
"675 456 CURVE SMOOTH",
"608 622 OFFCURVE",
"445 706 OFFCURVE",
"303 649 CURVE SMOOTH",
"160 591 OFFCURVE",
"101 417 OFFCURVE",
"169 252 CURVE SMOOTH",
"235 86 OFFCURVE",
"399 2 OFFCURVE",
"541 59 CURVE SMOOTH"
);
},
{
closed = 1;
nodes = (
"630 -90 OFFCURVE",
"743 -158 OFFCURVE",
"853 -168 CURVE",
"850 -200 LINE",
"685 -190 OFFCURVE",
"561 -136 OFFCURVE",
"445 -13 CURVE",
"542 8 LINE"
);
}
);
width = 833;
}
);
leftKerningGroup = O;
leftMetricsKey = O;
rightKerningGroup = O;
unicode = 0051;
},
{
glyphname = R;
lastChange = "2020-11-19 15:55:11 +0000";
layers = (
{
anchors = (
{
name = BOTTOM;
position = "{356, 0}";
},
{
name = TOP;
position = "{287, 707}";
}
);
background = {
paths = (
{
closed = 1;
nodes = (
"111 666 OFFCURVE",
"72 664 OFFCURVE",
"53 663 CURVE",
"50 695 LINE",
"138 692 LINE",
"142 655 LINE"
);
},
{
closed = 1;
nodes = (
"138 0 LINE",
"138 690 LINE",
"225 690 LINE",
"225 0 LINE"
);
},
{
closed = 1;
nodes = (
"219 344 LINE",
"404 349 OFFCURVE",
"485 467 OFFCURVE",
"450 563 CURVE SMOOTH",
"420 644 OFFCURVE",
"356 682 OFFCURVE",
"224 668 CURVE",
"50 695 LINE",
"306 717 OFFCURVE",
"478 739 OFFCURVE",
"532 604 CURVE SMOOTH",
"569 509 OFFCURVE",
"525 332 OFFCURVE",
"219 308 CURVE"
);
},
{
closed = 1;
nodes = (
"413 311 OFFCURVE",
"482 203 OFFCURVE",
"541 128 CURVE SMOOTH",
"590 65 OFFCURVE",
"626 33 OFFCURVE",
"713 0 CURVE",
"704 -29 LINE",
"566 -20 OFFCURVE",
"519 12 OFFCURVE",
"466 73 CURVE SMOOTH",
"418 129 OFFCURVE",
"325 307 OFFCURVE",
"296 352 CURVE",
"379 376 LINE"
);
}
);
};
components = (
{
name = serifUC;
transform = "{1.04, 0, 0, 1, 225, 0}";
},
{
name = serifUC;
transform = "{-1, 0, 0, 1, 138, 0}";
}
);
layerId = "6D97EE47-94AA-478E-ABFB-936E6C32B491";
paths = (
{
closed = 1;
nodes = (
"138 0 LINE",
"138 699 LINE",
"225 699 LINE",
"225 0 LINE"
);
},
{
closed = 1;
nodes = (
"219 353 LINE",
"404 358 OFFCURVE",
"485 476 OFFCURVE",
"450 572 CURVE SMOOTH",
"420 653 OFFCURVE",
"356 691 OFFCURVE",
"224 677 CURVE",
"50 704 LINE",
"306 726 OFFCURVE",
"478 748 OFFCURVE",
"532 613 CURVE SMOOTH",
"570 518 OFFCURVE",
"525 341 OFFCURVE",
"219 317 CURVE"
);
},
{
closed = 1;
nodes = (
"413 311 OFFCURVE",
"482 203 OFFCURVE",
"541 128 CURVE SMOOTH",
"590 65 OFFCURVE",
"626 33 OFFCURVE",
"713 0 CURVE",
"704 -29 LINE",
"566 -20 OFFCURVE",
"519 12 OFFCURVE",
"466 73 CURVE SMOOTH",
"418 129 OFFCURVE",
"325 307 OFFCURVE",
"296 352 CURVE",
"379 376 LINE"
);
},
{
closed = 1;
nodes = (
"116 676 OFFCURVE",
"73 676 OFFCURVE",
"53 674 CURVE",
"50 704 LINE",
"146 711 LINE",
"151 666 LINE"
);
}
);
width = 707;
}
);
leftKerningGroup = H;
leftMetricsKey = H;
rightKerningGroup = R;
unicode = 0052;
},
{
glyphname = S;
lastChange = "2021-01-08 19:26:24 +0000";
layers = (
{
anchors = (
{
name = BOTTOM;
position = "{282, 0}";
},
{
name = TOP;
position = "{292, 707}";
}
);
background = {
paths = (
{
closed = 1;
nodes = (
"1697 300 OFFCURVE",
"1633 338 OFFCURVE",
"1571 374 CURVE SMOOTH",
"1516 406 OFFCURVE",
"1429 456 OFFCURVE",
"1403 507 CURVE SMOOTH",
"1365 582 OFFCURVE",
"1416 659 OFFCURVE",
"1484 678 CURVE SMOOTH",
"1537 693 OFFCURVE",
"1580 681 OFFCURVE",
"1610 662 CURVE SMOOTH",
"1650 637 OFFCURVE",
"1662 584 OFFCURVE",
"1667 546 CURVE",
"1700 550 LINE",
"1679 711 LINE",
"1644 717 OFFCURVE",
"1562 740 OFFCURVE",
"1477 724 CURVE SMOOTH",
"1395 709 OFFCURVE",
"1302 654 OFFCURVE",
"1302 535 CURVE SMOOTH",
"1302 419 OFFCURVE",
"1429 352 OFFCURVE",
"1495 312 CURVE SMOOTH",
"1556 275 OFFCURVE",
"1615 238 OFFCURVE",
"1622 179 CURVE SMOOTH",
"1630 111 OFFCURVE",
"1584 51 OFFCURVE",
"1507 42 CURVE SMOOTH",
"1421 32 OFFCURVE",
"1372 63 OFFCURVE",
"1342 101 CURVE SMOOTH",
"1314 137 OFFCURVE",
"1296 195 OFFCURVE",
"1289 230 CURVE",
"1278 228 OFFCURVE",
"1268 227 OFFCURVE",
"1257 224 CURVE",
"1288 32 LINE",
"1296 21 OFFCURVE",
"1481 -33 OFFCURVE",
"1593 13 CURVE SMOOTH",
"1699 57 OFFCURVE",
"1726 131 OFFCURVE",
"1711 218 CURVE SMOOTH"
);
},
{
closed = 1;
nodes = (
"1086 294 OFFCURVE",
"1022 343 OFFCURVE",
"960 379 CURVE SMOOTH",
"905 411 OFFCURVE",
"818 462 OFFCURVE",
"792 513 CURVE SMOOTH",
"754 588 OFFCURVE",
"805 659 OFFCURVE",
"873 678 CURVE SMOOTH",
"926 693 OFFCURVE",
"969 681 OFFCURVE",
"999 662 CURVE SMOOTH",
"1039 637 OFFCURVE",
"1051 584 OFFCURVE",
"1056 546 CURVE",
"1089 550 LINE",
"1067 711 LINE",
"1032 717 OFFCURVE",
"951 740 OFFCURVE",
"866 724 CURVE SMOOTH",
"784 709 OFFCURVE",
"691 660 OFFCURVE",
"691 541 CURVE SMOOTH",
"691 424 OFFCURVE",
"818 356 OFFCURVE",
"884 318 CURVE SMOOTH",
"946 282 OFFCURVE",
"1004 232 OFFCURVE",
"1011 174 CURVE SMOOTH",
"1019 106 OFFCURVE",
"973 51 OFFCURVE",
"896 42 CURVE SMOOTH",
"810 32 OFFCURVE",
"761 63 OFFCURVE",
"731 101 CURVE SMOOTH",
"702 137 OFFCURVE",
"685 195 OFFCURVE",
"677 230 CURVE",
"667 228 OFFCURVE",
"657 227 OFFCURVE",
"646 224 CURVE",
"677 32 LINE",
"685 21 OFFCURVE",
"870 -33 OFFCURVE",
"982 13 CURVE SMOOTH",
"1087 56 OFFCURVE",
"1115 125 OFFCURVE",
"1100 213 CURVE SMOOTH"
);
},
{
closed = 1;
nodes = (
"515 123 OFFCURVE",
"485 47 OFFCURVE",
"382 5 CURVE SMOOTH",
"270 -41 OFFCURVE",
"85 13 OFFCURVE",
"77 24 CURVE",
"46 216 LINE",
"79 222 LINE",
"87 187 OFFCURVE",
"103 130 OFFCURVE",
"132 94 CURVE SMOOTH",
"162 56 OFFCURVE",
"210 25 OFFCURVE",
"296 36 CURVE SMOOTH",
"373 45 OFFCURVE",
"419 103 OFFCURVE",
"411 171 CURVE SMOOTH",
"404 230 OFFCURVE",
"346 280 OFFCURVE",
"284 316 CURVE SMOOTH",
"218 356 OFFCURVE",
"91 429 OFFCURVE",
"91 546 CURVE SMOOTH",
"91 665 OFFCURVE",
"184 709 OFFCURVE",
"266 724 CURVE SMOOTH",
"351 739 OFFCURVE",
"432 717 OFFCURVE",
"467 711 CURVE",
"489 549 LINE",
"456 546 LINE",
"451 584 OFFCURVE",
"438 635 OFFCURVE",
"399 661 CURVE SMOOTH",
"369 681 OFFCURVE",
"326 691 OFFCURVE",
"273 677 CURVE SMOOTH",
"205 659 OFFCURVE",
"154 593 OFFCURVE",
"192 518 CURVE SMOOTH",
"218 467 OFFCURVE",
"305 418 OFFCURVE",
"360 385 CURVE SMOOTH",
"422 349 OFFCURVE",
"486 292 OFFCURVE",
"500 210 CURVE SMOOTH"
);
}
);
};
layerId = "6D97EE47-94AA-478E-ABFB-936E6C32B491";
paths = (
{
closed = 1;
nodes = (
"513 118 OFFCURVE",
"483 45 OFFCURVE",
"382 4 CURVE SMOOTH",
"270 -41 OFFCURVE",
"85 12 OFFCURVE",
"77 23 CURVE",
"46 215 LINE",
"79 221 LINE",
"87 186 OFFCURVE",
"103 129 OFFCURVE",
"132 93 CURVE SMOOTH",
"162 55 OFFCURVE",
"210 24 OFFCURVE",
"296 35 CURVE SMOOTH",
"373 45 OFFCURVE",
"419 102 OFFCURVE",
"411 170 CURVE SMOOTH",
"404 229 OFFCURVE",
"346 275 OFFCURVE",
"284 311 CURVE SMOOTH",
"217 350 OFFCURVE",
"91 420 OFFCURVE",
"91 537 CURVE SMOOTH",
"91 656 OFFCURVE",
"184 700 OFFCURVE",
"266 715 CURVE SMOOTH",
"351 731 OFFCURVE",
"432 708 OFFCURVE",
"467 702 CURVE",
"489 540 LINE",
"456 536 LINE",
"451 574 OFFCURVE",
"438 626 OFFCURVE",
"399 652 CURVE SMOOTH",
"369 672 OFFCURVE",
"326 682 OFFCURVE",
"273 668 CURVE SMOOTH",
"205 650 OFFCURVE",
"154 584 OFFCURVE",
"192 509 CURVE SMOOTH",
"218 458 OFFCURVE",
"305 413 OFFCURVE",
"360 380 CURVE SMOOTH",
"421 343 OFFCURVE",
"488 287 OFFCURVE",
"500 205 CURVE SMOOTH"
);
}
);
width = 554;
}
);
leftKerningGroup = S;
rightKerningGroup = S;
unicode = 0053;
},
{
glyphname = Germandbls;
lastChange = "2021-01-15 13:27:48 +0000";
layers = (
{
background = {
paths = (
{
closed = 1;
nodes = (
"1615 1574 LINE",
"1729 1545 OFFCURVE",
"1813 1459 OFFCURVE",
"1813 1359 CURVE SMOOTH",
"1813 1257 OFFCURVE",
"1704 1180 OFFCURVE",
"1586 1180 CURVE SMOOTH",
"1580 1180 OFFCURVE",
"1574 1181 OFFCURVE",
"1567 1181 CURVE",
"1564 1149 LINE",
"1582 1146 OFFCURVE",
"1599 1145 OFFCURVE",
"1617 1145 CURVE SMOOTH",
"1746 1145 OFFCURVE",
"1849 1219 OFFCURVE",
"1882 1322 CURVE SMOOTH",
"1889 1346 OFFCURVE",
"1893 1370 OFFCURVE",
"1893 1392 CURVE SMOOTH",
"1893 1438 OFFCURVE",
"1878 1482 OFFCURVE",
"1851 1524 CURVE SMOOTH",
"1822 1568 OFFCURVE",
"1774 1617 OFFCURVE",
"1685 1656 CURVE",
"1664 1630 LINE",
"1635 1597 LINE"
);
},
{
closed = 1;
nodes = (
"1804 1825 LINE",
"1751 1875 OFFCURVE",
"1710 1893 OFFCURVE",
"1679 1905 CURVE SMOOTH",
"1650 1916 OFFCURVE",
"1614 1921 OFFCURVE",
"1574 1921 CURVE SMOOTH",
"1544 1921 OFFCURVE",
"1516 1915 OFFCURVE",
"1500 1910 CURVE SMOOTH",
"1462 1900 OFFCURVE",
"1425 1878 OFFCURVE",
"1399 1853 CURVE SMOOTH",
"1320 1777 OFFCURVE",
"1316 1672 OFFCURVE",
"1316 1579 CURVE SMOOTH",
"1316 1200 LINE",
"1404 1200 LINE",
"1404 1579 LINE SMOOTH",
"1404 1589 OFFCURVE",
"1404 1603 OFFCURVE",
"1404 1618 CURVE SMOOTH",
"1404 1679 OFFCURVE",
"1406 1769 OFFCURVE",
"1437 1805 CURVE SMOOTH",
"1462 1835 OFFCURVE",
"1483 1847 OFFCURVE",
"1513 1854 CURVE SMOOTH",
"1527 1857 OFFCURVE",
"1544 1860 OFFCURVE",
"1564 1860 CURVE SMOOTH",
"1580 1860 OFFCURVE",
"1597 1858 OFFCURVE",
"1615 1853 CURVE SMOOTH",
"1660 1840 OFFCURVE",
"1699 1815 OFFCURVE",
"1727 1769 CURVE",
"1735 1817 LINE",
"1603 1603 LINE",
"1616 1574 LINE",
"1657 1594 LINE"
);
},
{
closed = 1;
nodes = (
"2361 1092 OFFCURVE",
"2346 1044 OFFCURVE",
"2301 1011 CURVE SMOOTH",
"2265 984 OFFCURVE",
"2229 976 OFFCURVE",
"2180 986 CURVE",
"2168 1073 LINE",
"2215 1057 OFFCURVE",
"2273 1074 OFFCURVE",
"2293 1096 CURVE SMOOTH",
"2311 1115 OFFCURVE",
"2317 1140 OFFCURVE",
"2317 1202 CURVE",
"2365 1129 LINE"
);
},
{
closed = 1;
nodes = (
"3001 1334 OFFCURVE",
"3015 1151 OFFCURVE",
"2933 1114 CURVE SMOOTH",
"2879 1089 OFFCURVE",
"2830 1135 OFFCURVE",
"2821 1197 CURVE",
"2732 1163 LINE",
"2747 1099 OFFCURVE",
"2842 1036 OFFCURVE",
"2951 1080 CURVE SMOOTH",
"3097 1139 OFFCURVE",
"3081 1317 OFFCURVE",
"3081 1453 CURVE",
"3081 1520 LINE",
"3081 1643 OFFCURVE",
"3067 1827 OFFCURVE",
"3149 1863 CURVE SMOOTH",
"3204 1888 OFFCURVE",
"3246 1848 OFFCURVE",
"3255 1786 CURVE",
"3340 1819 LINE",
"3325 1883 OFFCURVE",
"3240 1942 OFFCURVE",
"3131 1898 CURVE SMOOTH",
"2985 1839 OFFCURVE",
"3001 1661 OFFCURVE",
"3001 1524 CURVE",
"3001 1458 LINE"
);
},
{
closed = 1;
nodes = (
"2409 1546 OFFCURVE",
"2461 1514 OFFCURVE",
"2492 1489 CURVE SMOOTH",
"2539 1452 OFFCURVE",
"2590 1396 OFFCURVE",
"2590 1331 CURVE SMOOTH",
"2590 1243 OFFCURVE",
"2528 1192 OFFCURVE",
"2437 1192 CURVE SMOOTH",
"2391 1192 OFFCURVE",
"2333 1203 OFFCURVE",
"2288 1271 CURVE",
"2358 1308 LINE",
"2364 1292 OFFCURVE",
"2376 1267 OFFCURVE",
"2397 1249 CURVE SMOOTH",
"2414 1235 OFFCURVE",
"2435 1230 OFFCURVE",
"2449 1230 CURVE SMOOTH",
"2494 1230 OFFCURVE",
"2516 1260 OFFCURVE",
"2516 1309 CURVE SMOOTH",
"2516 1358 OFFCURVE",
"2466 1401 OFFCURVE",
"2431 1427 CURVE SMOOTH",
"2391 1458 OFFCURVE",
"2326 1498 OFFCURVE",
"2305 1558 CURVE SMOOTH",
"2299 1575 OFFCURVE",
"2296 1591 OFFCURVE",
"2296 1606 CURVE SMOOTH",
"2296 1638 OFFCURVE",
"2306 1666 OFFCURVE",
"2323 1690 CURVE SMOOTH",
"2346 1723 OFFCURVE",
"2378 1743 OFFCURVE",
"2399 1771 CURVE SMOOTH",
"2412 1788 OFFCURVE",
"2425 1812 OFFCURVE",
"2425 1839 CURVE SMOOTH",
"2425 1850 OFFCURVE",
"2423 1861 OFFCURVE",
"2418 1873 CURVE SMOOTH",
"2401 1913 OFFCURVE",
"2364 1933 OFFCURVE",
"2324 1933 CURVE SMOOTH",
"2290 1933 OFFCURVE",
"2254 1918 OFFCURVE",
"2229 1889 CURVE SMOOTH",
"2198 1853 OFFCURVE",
"2189 1802 OFFCURVE",
"2189 1737 CURVE SMOOTH",
"2189 1729 OFFCURVE",
"2189 1716 OFFCURVE",
"2189 1699 CURVE SMOOTH",
"2189 1633 OFFCURVE",
"2190 1511 OFFCURVE",
"2190 1436 CURVE SMOOTH",
"2190 1364 OFFCURVE",
"2190 1258 OFFCURVE",
"2190 1200 CURVE",
"2109 1200 LINE",
"2109 1600 LINE",
"2058 1600 LINE",
"2069 1656 LINE",
"2109 1656 LINE",
"2109 1731 OFFCURVE",
"2111 1843 OFFCURVE",
"2181 1920 CURVE SMOOTH",
"2229 1973 OFFCURVE",
"2292 1997 OFFCURVE",
"2353 1997 CURVE SMOOTH",
"2397 1997 OFFCURVE",
"2461 1973 OFFCURVE",
"2491 1901 CURVE SMOOTH",
"2498 1884 OFFCURVE",
"2502 1865 OFFCURVE",
"2502 1846 CURVE SMOOTH",
"2502 1823 OFFCURVE",
"2496 1800 OFFCURVE",
"2481 1779 CURVE SMOOTH",
"2451 1736 OFFCURVE",
"2401 1712 OFFCURVE",
"2379 1689 CURVE SMOOTH",
"2363 1672 OFFCURVE",
"2355 1654 OFFCURVE",
"2355 1634 CURVE SMOOTH",
"2355 1611 OFFCURVE",
"2360 1595 OFFCURVE",
"2381 1574 CURVE SMOOTH"
);
},
{
closed = 1;
nodes = (
"1804 0 LINE",
"1804 379 LINE",
"1804 418 LINE SMOOTH",
"1804 454 OFFCURVE",
"1805 505 OFFCURVE",
"1812 547 CURVE SMOOTH",
"1817 575 OFFCURVE",
"1824 607 OFFCURVE",
"1849 631 CURVE SMOOTH",
"1875 656 OFFCURVE",
"1917 678 OFFCURVE",
"1977 669 CURVE SMOOTH",
"2046 659 OFFCURVE",
"2090 625 OFFCURVE",
"2137 572 CURVE",
"2139 623 LINE",
"2007 404 LINE",
"2070 358 OFFCURVE",
"2121 318 OFFCURVE",
"2166 275 CURVE SMOOTH",
"2204 239 OFFCURVE",
"2228 191 OFFCURVE",
"2233 166 CURVE SMOOTH",
"2240 132 OFFCURVE",
"2232 96 OFFCURVE",
"2210 69 CURVE SMOOTH",
"2189 43 OFFCURVE",
"2149 31 OFFCURVE",
"2108 32 CURVE SMOOTH",
"2063 33 OFFCURVE",
"2028 61 OFFCURVE",
"2008 83 CURVE SMOOTH",
"1988 105 OFFCURVE",
"1965 144 OFFCURVE",
"1951 202 CURVE",
"1917 195 LINE",
"1943 35 LINE",
"1967 17 OFFCURVE",
"2050 -14 OFFCURVE",
"2096 -14 CURVE SMOOTH",
"2179 -14 OFFCURVE",
"2226 9 OFFCURVE",
"2262 49 CURVE SMOOTH",
"2290 80 OFFCURVE",
"2317 123 OFFCURVE",
"2308 199 CURVE SMOOTH",
"2297 294 OFFCURVE",
"2187 392 OFFCURVE",
"2075 470 CURVE",
"2075 421 LINE",
"2204 625 LINE",
"2151 675 OFFCURVE",
"2110 693 OFFCURVE",
"2079 705 CURVE SMOOTH",
"2050 716 OFFCURVE",
"2014 721 OFFCURVE",
"1974 721 CURVE SMOOTH",
"1944 721 OFFCURVE",
"1916 715 OFFCURVE",
"1900 710 CURVE",
"1862 700 OFFCURVE",
"1825 678 OFFCURVE",
"1799 653 CURVE SMOOTH",
"1720 577 OFFCURVE",
"1716 472 OFFCURVE",
"1716 379 CURVE SMOOTH",
"1716 0 LINE"
);
},
{
closed = 0;
nodes = (
"564 36 LINE",
"478 25 OFFCURVE",
"430 56 OFFCURVE",
"400 94 CURVE SMOOTH",
"371 130 OFFCURVE",
"355 187 OFFCURVE",
"347 222 CURVE",
"314 216 LINE",
"345 24 LINE",
"353 13 OFFCURVE",
"538 -41 OFFCURVE",
"650 5 CURVE SMOOTH"
);
},
{
closed = 1;
nodes = (
"1004 0 LINE",
"1004 379 LINE",
"1004 418 LINE SMOOTH",
"1004 454 OFFCURVE",
"1005 505 OFFCURVE",
"1012 547 CURVE SMOOTH",
"1017 575 OFFCURVE",
"1024 607 OFFCURVE",
"1049 631 CURVE SMOOTH",
"1075 656 OFFCURVE",
"1117 678 OFFCURVE",
"1177 669 CURVE SMOOTH",
"1246 659 OFFCURVE",
"1297 615 OFFCURVE",
"1337 562 CURVE",
"1339 623 LINE",
"1207 404 LINE",
"1270 358 OFFCURVE",
"1321 318 OFFCURVE",
"1366 275 CURVE SMOOTH",
"1404 239 OFFCURVE",
"1428 191 OFFCURVE",
"1433 166 CURVE SMOOTH",
"1440 132 OFFCURVE",
"1432 96 OFFCURVE",
"1410 69 CURVE SMOOTH",
"1389 43 OFFCURVE",
"1349 31 OFFCURVE",
"1308 32 CURVE SMOOTH",
"1263 33 OFFCURVE",
"1228 61 OFFCURVE",
"1208 83 CURVE SMOOTH",
"1188 105 OFFCURVE",
"1165 144 OFFCURVE",
"1151 202 CURVE",
"1117 195 LINE",
"1145 24 LINE",
"1174 6 OFFCURVE",
"1250 -14 OFFCURVE",
"1296 -14 CURVE SMOOTH",
"1379 -14 OFFCURVE",
"1426 9 OFFCURVE",
"1462 49 CURVE SMOOTH",
"1490 80 OFFCURVE",
"1517 123 OFFCURVE",
"1508 199 CURVE SMOOTH",
"1497 294 OFFCURVE",
"1387 392 OFFCURVE",
"1275 470 CURVE",
"1275 421 LINE",
"1404 625 LINE",
"1351 675 OFFCURVE",
"1310 693 OFFCURVE",
"1279 705 CURVE SMOOTH",
"1250 716 OFFCURVE",
"1214 721 OFFCURVE",
"1174 721 CURVE SMOOTH",
"1144 721 OFFCURVE",
"1116 715 OFFCURVE",
"1100 710 CURVE",
"1062 700 OFFCURVE",
"1025 678 OFFCURVE",
"999 653 CURVE SMOOTH",
"920 577 OFFCURVE",
"916 472 OFFCURVE",
"916 379 CURVE SMOOTH",
"916 0 LINE"
);
},
{
closed = 1;
nodes = (
"578 1011 OFFCURVE",
"631 1054 OFFCURVE",
"631 1127 CURVE SMOOTH",
"631 1208 OFFCURVE",
"576 1273 OFFCURVE",
"437 1371 CURVE",
"430 1374 OFFCURVE",
"429 1379 OFFCURVE",
"434 1387 CURVE",
"553 1577 LINE",
"467 1624 OFFCURVE",
"380 1649 OFFCURVE",
"314 1649 CURVE SMOOTH",
"252 1649 OFFCURVE",
"217 1629 OFFCURVE",
"200 1566 CURVE SMOOTH",
"191 1535 OFFCURVE",
"187 1491 OFFCURVE",
"187 1433 CURVE SMOOTH",
"187 1088 LINE SMOOTH",
"187 1044 OFFCURVE",
"192 1027 OFFCURVE",
"217 1019 CURVE SMOOTH",
"229 1016 OFFCURVE",
"249 1014 OFFCURVE",
"277 1014 CURVE SMOOTH",
"278 1014 OFFCURVE",
"279 1012 OFFCURVE",
"279 1007 CURVE SMOOTH",
"279 1003 OFFCURVE",
"278 1001 OFFCURVE",
"277 1001 CURVE SMOOTH",
"150 1002 LINE",
"25 1001 LINE SMOOTH",
"23 1001 OFFCURVE",
"22 1003 OFFCURVE",
"22 1007 CURVE SMOOTH",
"22 1012 OFFCURVE",
"23 1014 OFFCURVE",
"25 1014 CURVE SMOOTH",
"77 1014 OFFCURVE",
"99 1020 OFFCURVE",
"109 1041 CURVE",
"114 1051 OFFCURVE",
"117 1067 OFFCURVE",
"117 1088 CURVE SMOOTH",
"117 1409 LINE SMOOTH",
"117 1500 OFFCURVE",
"156 1593 OFFCURVE",
"235 1647 CURVE SMOOTH",
"274 1674 OFFCURVE",
"320 1687 OFFCURVE",
"374 1687 CURVE SMOOTH",
"421 1687 OFFCURVE",
"482 1675 OFFCURVE",
"557 1650 CURVE SMOOTH",
"573 1645 OFFCURVE",
"584 1643 OFFCURVE",
"587 1643 CURVE SMOOTH",
"594 1643 OFFCURVE",
"600 1645 OFFCURVE",
"605 1650 CURVE SMOOTH",
"609 1654 OFFCURVE",
"617 1664 OFFCURVE",
"628 1679 CURVE",
"630 1681 OFFCURVE",
"632 1683 OFFCURVE",
"634 1683 CURVE SMOOTH",
"639 1683 OFFCURVE",
"643 1679 OFFCURVE",
"640 1675 CURVE",
"479 1423 LINE",
"627 1324 OFFCURVE",
"686 1257 OFFCURVE",
"686 1179 CURVE SMOOTH",
"686 1118 OFFCURVE",
"651 1055 OFFCURVE",
"588 1017 CURVE SMOOTH",
"557 998 OFFCURVE",
"519 988 OFFCURVE",
"477 988 CURVE SMOOTH",
"430 988 OFFCURVE",
"396 997 OFFCURVE",
"353 1023 CURVE",
"345 1026 OFFCURVE",
"344 1030 OFFCURVE",
"343 1043 CURVE",
"329 1155 LINE",
"328 1161 OFFCURVE",
"340 1163 OFFCURVE",
"341 1157 CURVE SMOOTH",
"351 1111 OFFCURVE",
"391 1061 OFFCURVE",
"441 1032 CURVE SMOOTH",
"466 1018 OFFCURVE",
"491 1011 OFFCURVE",
"515 1011 CURVE SMOOTH"
);
},
{
closed = 1;
nodes = (
"-148 1372 OFFCURVE",
"-73 1299 OFFCURVE",
"-73 1199 CURVE SMOOTH",
"-73 1123 OFFCURVE",
"-113 1058 OFFCURVE",
"-178 1024 CURVE SMOOTH",
"-211 1005 OFFCURVE",
"-248 997 OFFCURVE",
"-288 997 CURVE SMOOTH",
"-312 997 OFFCURVE",
"-338 998 OFFCURVE",
"-365 1000 CURVE SMOOTH",
"-385 1001 OFFCURVE",
"-412 1003 OFFCURVE",
"-447 1003 CURVE SMOOTH",
"-520 1002 LINE",
"-533 1001 OFFCURVE",
"-551 1001 OFFCURVE",
"-574 1001 CURVE SMOOTH",
"-576 1001 OFFCURVE",
"-577 1003 OFFCURVE",
"-577 1007 CURVE SMOOTH",
"-577 1012 OFFCURVE",
"-576 1014 OFFCURVE",
"-574 1014 CURVE SMOOTH",
"-547 1014 OFFCURVE",
"-527 1016 OFFCURVE",
"-514 1019 CURVE",
"-489 1027 OFFCURVE",
"-481 1045 OFFCURVE",
"-481 1088 CURVE SMOOTH",
"-481 1588 LINE SMOOTH",
"-481 1631 OFFCURVE",
"-489 1648 OFFCURVE",
"-513 1657 CURVE",
"-526 1660 OFFCURVE",
"-546 1662 OFFCURVE",
"-573 1662 CURVE SMOOTH",
"-575 1662 OFFCURVE",
"-576 1664 OFFCURVE",
"-576 1669 CURVE SMOOTH",
"-576 1673 OFFCURVE",
"-575 1675 OFFCURVE",
"-573 1675 CURVE SMOOTH",
"-520 1674 LINE SMOOTH",
"-490 1673 OFFCURVE",
"-465 1672 OFFCURVE",
"-447 1672 CURVE SMOOTH",
"-421 1672 OFFCURVE",
"-398 1674 OFFCURVE",
"-381 1675 CURVE",
"-359 1677 OFFCURVE",
"-339 1678 OFFCURVE",
"-319 1678 CURVE SMOOTH",
"-198 1678 OFFCURVE",
"-139 1621 OFFCURVE",
"-139 1536 CURVE SMOOTH",
"-139 1467 OFFCURVE",
"-187 1411 OFFCURVE",
"-263 1381 CURVE"
);
},
{
closed = 1;
nodes = (
"-381 1662 OFFCURVE",
"-396 1658 OFFCURVE",
"-404 1637 CURVE SMOOTH",
"-409 1626 OFFCURVE",
"-411 1609 OFFCURVE",
"-411 1585 CURVE SMOOTH",
"-411 1381 LINE",
"-362 1379 LINE SMOOTH",
"-258 1379 OFFCURVE",
"-209 1438 OFFCURVE",
"-209 1527 CURVE SMOOTH",
"-209 1609 OFFCURVE",
"-251 1662 OFFCURVE",
"-343 1662 CURVE SMOOTH"
);
},
{
closed = 1;
nodes = (
"-201 1016 OFFCURVE",
"-149 1069 OFFCURVE",
"-149 1173 CURVE SMOOTH",
"-149 1282 OFFCURVE",
"-217 1356 OFFCURVE",
"-329 1357 CURVE",
"-346 1358 OFFCURVE",
"-373 1357 OFFCURVE",
"-411 1356 CURVE",
"-411 1088 LINE SMOOTH",
"-411 1051 OFFCURVE",
"-402 1032 OFFCURVE",
"-372 1024 CURVE",
"-357 1018 OFFCURVE",
"-334 1016 OFFCURVE",
"-304 1016 CURVE SMOOTH"
);
},
{
closed = 1;
nodes = (
"204 0 LINE",
"204 379 LINE",
"204 418 LINE SMOOTH",
"204 454 OFFCURVE",
"205 505 OFFCURVE",
"212 547 CURVE SMOOTH",
"217 575 OFFCURVE",
"224 607 OFFCURVE",
"249 631 CURVE SMOOTH",
"275 656 OFFCURVE",
"317 678 OFFCURVE",
"377 669 CURVE SMOOTH",
"446 659 OFFCURVE",
"497 615 OFFCURVE",
"537 562 CURVE",
"539 623 LINE",
"407 404 LINE",
"470 356 OFFCURVE",
"520 318 OFFCURVE",
"566 275 CURVE SMOOTH",
"607 237 OFFCURVE",
"631 191 OFFCURVE",
"636 166 CURVE SMOOTH",
"643 132 OFFCURVE",
"637 98 OFFCURVE",
"610 69 CURVE SMOOTH",
"587 45 OFFCURVE",
"549 31 OFFCURVE",
"508 32 CURVE SMOOTH",
"463 33 OFFCURVE",
"430 61 OFFCURVE",
"410 83 CURVE SMOOTH",
"390 105 OFFCURVE",
"365 150 OFFCURVE",
"351 219 CURVE",
"317 212 LINE",
"347 24 LINE",
"376 6 OFFCURVE",
"450 -14 OFFCURVE",
"496 -14 CURVE SMOOTH",
"577 -14 OFFCURVE",
"623 8 OFFCURVE",
"662 45 CURVE SMOOTH",
"694 76 OFFCURVE",
"720 123 OFFCURVE",
"711 199 CURVE SMOOTH",
"700 294 OFFCURVE",
"593 387 OFFCURVE",
"477 472 CURVE",
"475 421 LINE",
"604 625 LINE",
"551 675 OFFCURVE",
"510 693 OFFCURVE",
"479 705 CURVE SMOOTH",
"450 716 OFFCURVE",
"414 721 OFFCURVE",
"374 721 CURVE SMOOTH",
"344 721 OFFCURVE",
"316 715 OFFCURVE",
"300 710 CURVE",
"262 700 OFFCURVE",
"225 678 OFFCURVE",
"199 653 CURVE SMOOTH",
"120 577 OFFCURVE",
"116 472 OFFCURVE",
"116 379 CURVE SMOOTH",
"116 0 LINE"
);
}
);
};
components = (
{
name = serifUC;
transform = "{0.9, 0, 0, 1, 204, 0}";
},
{
name = serifUC;
transform = "{-1, 0, 0, 1, 116, 0}";
}
);
guideLines = (
{
alignment = center;
angle = -68;
position = "{375, 460}";
},
{
alignment = center;
angle = 22;
position = "{370, 218}";
},
{
alignment = center;
angle = -38;
position = "{375, 431}";
},
{
alignment = center;
angle = -38;
position = "{375, 554}";
},
{
angle = 237.9999;
position = "{488, 516}";
},
{
angle = 237.9999;
position = "{535, 516}";
}
);
layerId = "6D97EE47-94AA-478E-ABFB-936E6C32B491";
paths = (
{
closed = 1;
nodes = (
"116 379 LINE SMOOTH",
"116 472 OFFCURVE",
"120 577 OFFCURVE",
"199 653 CURVE SMOOTH",
"225 678 OFFCURVE",
"262 700 OFFCURVE",
"300 710 CURVE",
"316 715 OFFCURVE",
"344 721 OFFCURVE",
"374 721 CURVE SMOOTH",
"414 721 OFFCURVE",
"450 716 OFFCURVE",
"479 705 CURVE SMOOTH",
"510 693 OFFCURVE",
"551 675 OFFCURVE",
"604 625 CURVE",
"476 421 LINE",
"477 472 LINE",
"593 387 OFFCURVE",
"700 294 OFFCURVE",
"711 199 CURVE SMOOTH",
"720 123 OFFCURVE",
"694 76 OFFCURVE",
"662 45 CURVE SMOOTH",
"623 8 OFFCURVE",
"585 -14 OFFCURVE",
"504 -14 CURVE SMOOTH",
"458 -14 OFFCURVE",
"384 6 OFFCURVE",
"355 24 CURVE",
"325 212 LINE",
"359 219 LINE",
"373 150 OFFCURVE",
"398 105 OFFCURVE",
"418 83 CURVE SMOOTH",
"438 61 OFFCURVE",
"471 33 OFFCURVE",
"516 32 CURVE SMOOTH",
"557 31 OFFCURVE",
"587 45 OFFCURVE",
"610 69 CURVE SMOOTH",
"637 98 OFFCURVE",
"642 132 OFFCURVE",
"636 166 CURVE SMOOTH",
"631 191 OFFCURVE",
"607 237 OFFCURVE",
"566 275 CURVE SMOOTH",
"520 318 OFFCURVE",
"478 349 OFFCURVE",
"415 397 CURVE",
"550 616 LINE",
"537 557 LINE",
"496 611 OFFCURVE",
"446 659 OFFCURVE",
"377 669 CURVE SMOOTH",
"317 678 OFFCURVE",
"275 656 OFFCURVE",
"249 631 CURVE SMOOTH",
"224 607 OFFCURVE",
"217 575 OFFCURVE",
"212 547 CURVE SMOOTH",
"205 505 OFFCURVE",
"204 454 OFFCURVE",
"204 418 CURVE SMOOTH",
"204 379 LINE",
"204 0 LINE",
"116 0 LINE"
);
}
);
width = 738;
}
);
leftKerningGroup = H;
rightKerningGroup = B;
rightMetricsKey = B;
unicode = 1E9E;
},
{
glyphname = Schwa;
lastChange = "2018-07-02 15:36:35 +0000";
layers = (
{
background = {
components = (
{
alignment = -1;
name = e;
transform = "{-1.56, 0, 0, -1.56, -920, 707}";
},
{
name = O;
transform = "{1, 0, 0, 1, -909, 0}";
}
);
paths = (
{
closed = 1;
nodes = (
"-1262 982 OFFCURVE",
"-1161 1027 OFFCURVE",
"-1099 1113 CURVE SMOOTH",
"-1058 1170 OFFCURVE",
"-1038 1233 OFFCURVE",
"-1038 1321 CURVE SMOOTH",
"-1038 1484 OFFCURVE",
"-1141 1633 OFFCURVE",
"-1345 1633 CURVE SMOOTH",
"-1448 1633 OFFCURVE",
"-1557 1582 OFFCURVE",
"-1612 1506 CURVE SMOOTH",
"-1652 1451 OFFCURVE",
"-1674 1387 OFFCURVE",
"-1674 1313 CURVE SMOOTH",
"-1674 1223 OFFCURVE",
"-1647 1139 OFFCURVE",
"-1588 1073 CURVE SMOOTH",
"-1537 1016 OFFCURVE",
"-1458 982 OFFCURVE",
"-1362 982 CURVE SMOOTH"
);
},
{
closed = 1;
nodes = (
"-1375 1026 OFFCURVE",
"-1414 1038 OFFCURVE",
"-1449 1060 CURVE SMOOTH",
"-1538 1116 OFFCURVE",
"-1576 1231 OFFCURVE",
"-1576 1336 CURVE SMOOTH",
"-1576 1438 OFFCURVE",
"-1542 1527 OFFCURVE",
"-1469 1571 CURVE SMOOTH",
"-1444 1586 OFFCURVE",
"-1414 1593 OFFCURVE",
"-1379 1593 CURVE SMOOTH",
"-1327 1593 OFFCURVE",
"-1284 1578 OFFCURVE",
"-1248 1553 CURVE SMOOTH",
"-1169 1498 OFFCURVE",
"-1133 1394 OFFCURVE",
"-1133 1286 CURVE SMOOTH",
"-1133 1194 OFFCURVE",
"-1154 1110 OFFCURVE",
"-1217 1061 CURVE SMOOTH",
"-1244 1040 OFFCURVE",
"-1282 1026 OFFCURVE",
"-1324 1026 CURVE SMOOTH"
);
},
{
closed = 1;
nodes = (
"-2014 981 OFFCURVE",
"-1960 985 OFFCURVE",
"-1913 1008 CURVE SMOOTH",
"-1801 1063 OFFCURVE",
"-1740 1169 OFFCURVE",
"-1740 1322 CURVE SMOOTH",
"-1740 1483 OFFCURVE",
"-1832 1634 OFFCURVE",
"-2016 1634 CURVE SMOOTH",
"-2082 1634 OFFCURVE",
"-2163 1611 OFFCURVE",
"-2207 1589 CURVE",
"-2223 1574 OFFCURVE",
"-2254 1509 OFFCURVE",
"-2262 1489 CURVE SMOOTH",
"-2264 1484 OFFCURVE",
"-2243 1470 OFFCURVE",
"-2238 1471 CURVE",
"-2210 1521 OFFCURVE",
"-2187 1554 OFFCURVE",
"-2158 1566 CURVE",
"-2132 1578 OFFCURVE",
"-2092 1585 OFFCURVE",
"-2059 1585 CURVE SMOOTH",
"-1883 1585 OFFCURVE",
"-1831 1423 OFFCURVE",
"-1831 1296 CURVE SMOOTH",
"-1831 1279 LINE",
"-1832 1275 OFFCURVE",
"-1834 1274 OFFCURVE",
"-1835 1274 CURVE SMOOTH",
"-1863 1274 OFFCURVE",
"-2071 1274 OFFCURVE",
"-2121 1273 CURVE SMOOTH",
"-2174 1272 OFFCURVE",
"-2238 1266 OFFCURVE",
"-2266 1256 CURVE",
"-2268 1251 OFFCURVE",
"-2274 1233 OFFCURVE",
"-2274 1215 CURVE SMOOTH",
"-2274 1098 OFFCURVE",
"-2188 981 OFFCURVE",
"-2040 981 CURVE SMOOTH"
);
},
{
closed = 1;
nodes = (
"-2127 1019 OFFCURVE",
"-2180 1120 OFFCURVE",
"-2180 1202 CURVE SMOOTH",
"-2180 1217 OFFCURVE",
"-2169 1231 OFFCURVE",
"-2159 1233 CURVE SMOOTH",
"-2126 1240 OFFCURVE",
"-1958 1237 OFFCURVE",
"-1838 1237 CURVE SMOOTH",
"-1835 1237 OFFCURVE",
"-1834 1233 OFFCURVE",
"-1834 1231 CURVE",
"-1837 1174 OFFCURVE",
"-1860 1019 OFFCURVE",
"-2007 1019 CURVE SMOOTH"
);
},
{
closed = 1;
nodes = (
"-290 1303 LINE",
"-292 1243 LINE",
"-717 1209 LINE",
"-717 1131 OFFCURVE",
"-632 1053 OFFCURVE",
"-538 1053 CURVE SMOOTH",
"-502 1053 OFFCURVE",
"-468 1065 OFFCURVE",
"-429 1086 CURVE SMOOTH",
"-349 1129 OFFCURVE",
"-280 1292 OFFCURVE",
"-349 1467 CURVE SMOOTH",
"-389 1569 OFFCURVE",
"-467 1649 OFFCURVE",
"-544 1649 CURVE SMOOTH",
"-636 1649 OFFCURVE",
"-726 1581 OFFCURVE",
"-773 1539 CURVE",
"-806 1567 LINE",
"-758 1637 OFFCURVE",
"-653 1721 OFFCURVE",
"-533 1721 CURVE SMOOTH",
"-402 1721 OFFCURVE",
"-307 1630 OFFCURVE",
"-257 1505 CURVE SMOOTH",
"-204 1372 OFFCURVE",
"-246 1178 OFFCURVE",
"-357 1074 CURVE SMOOTH",
"-417 1018 OFFCURVE",
"-482 983 OFFCURVE",
"-575 983 CURVE SMOOTH",
"-700 983 OFFCURVE",
"-819 1085 OFFCURVE",
"-819 1241 CURVE SMOOTH",
"-819 1252 OFFCURVE",
"-818 1263 OFFCURVE",
"-817 1275 CURVE"
);
},
{
closed = 1;
nodes = (
"1227 721 OFFCURVE",
"1169 712 OFFCURVE",
"1100 694 CURVE",
"1022 546 LINE",
"1052 531 LINE",
"1106 615 OFFCURVE",
"1166 674 OFFCURVE",
"1261 674 CURVE SMOOTH",
"1428 674 OFFCURVE",
"1562 504 OFFCURVE",
"1562 319 CURVE SMOOTH",
"1562 268 LINE",
"1598 286 LINE",
"1012 289 LINE",
"1011 277 OFFCURVE",
"1010 266 OFFCURVE",
"1010 255 CURVE SMOOTH",
"1010 99 OFFCURVE",
"1153 -14 OFFCURVE",
"1300 -14 CURVE SMOOTH",
"1363 -14 OFFCURVE",
"1437 -7 OFFCURVE",
"1509 47 CURVE SMOOTH",
"1587 105 OFFCURVE",
"1654 187 OFFCURVE",
"1654 360 CURVE SMOOTH",
"1654 562 OFFCURVE",
"1492 721 OFFCURVE",
"1284 721 CURVE SMOOTH"
);
},
{
closed = 1;
nodes = (
"1197 39 OFFCURVE",
"1107 159 OFFCURVE",
"1107 237 CURVE",
"1592 241 LINE",
"1560 286 LINE",
"1542 135 OFFCURVE",
"1467 39 OFFCURVE",
"1309 39 CURVE SMOOTH"
);
},
{
closed = 1;
nodes = (
"2942 721 OFFCURVE",
"2874 640 OFFCURVE",
"2847 602 CURVE",
"2877 580 LINE",
"2904 613 OFFCURVE",
"2952 667 OFFCURVE",
"3051 667 CURVE SMOOTH",
"3217 667 OFFCURVE",
"3352 504 OFFCURVE",
"3352 319 CURVE SMOOTH",
"3352 268 LINE",
"3388 305 LINE",
"2802 289 LINE",
"2801 277 OFFCURVE",
"2800 266 OFFCURVE",
"2800 255 CURVE SMOOTH",
"2800 99 OFFCURVE",
"2943 -14 OFFCURVE",
"3090 -14 CURVE SMOOTH",
"3153 -14 OFFCURVE",
"3227 -7 OFFCURVE",
"3299 47 CURVE SMOOTH",
"3377 105 OFFCURVE",
"3444 187 OFFCURVE",
"3444 360 CURVE SMOOTH",
"3444 562 OFFCURVE",
"3277 721 OFFCURVE",
"3074 721 CURVE SMOOTH"
);
},
{
closed = 1;
nodes = (
"3332 135 OFFCURVE",
"3258 39 OFFCURVE",
"3099 39 CURVE SMOOTH",
"2987 39 OFFCURVE",
"2897 159 OFFCURVE",
"2897 237 CURVE",
"3384 260 LINE",
"3351 288 LINE"
);
},
{
closed = 1;
nodes = (
"2117 721 OFFCURVE",
"2059 712 OFFCURVE",
"1990 694 CURVE",
"1912 546 LINE",
"1942 531 LINE",
"1996 615 OFFCURVE",
"2056 674 OFFCURVE",
"2151 674 CURVE SMOOTH",
"2318 674 OFFCURVE",
"2452 504 OFFCURVE",
"2452 319 CURVE SMOOTH",
"2452 304 LINE",
"1902 289 LINE",
"1901 277 OFFCURVE",
"1900 266 OFFCURVE",
"1900 255 CURVE SMOOTH",
"1900 99 OFFCURVE",
"2043 -14 OFFCURVE",
"2190 -14 CURVE SMOOTH",
"2253 -14 OFFCURVE",
"2327 -7 OFFCURVE",
"2399 47 CURVE SMOOTH",
"2477 105 OFFCURVE",
"2544 187 OFFCURVE",
"2544 360 CURVE SMOOTH",
"2544 562 OFFCURVE",
"2382 721 OFFCURVE",
"2174 721 CURVE SMOOTH"
);
},
{
closed = 1;
nodes = (
"2087 39 OFFCURVE",
"1997 159 OFFCURVE",
"1997 237 CURVE",
"2446 258 LINE",
"2422 123 OFFCURVE",
"2347 39 OFFCURVE",
"2199 39 CURVE SMOOTH"
);
},
{
closed = 1;
nodes = (
"594 1305 LINE",
"603 1245 LINE",
"184 1215 LINE",
"184 1115 OFFCURVE",
"319 1029 OFFCURVE",
"424 1086 CURVE SMOOTH",
"588 1175 OFFCURVE",
"568 1471 OFFCURVE",
"409 1571 CURVE SMOOTH",
"292 1645 OFFCURVE",
"177 1595 OFFCURVE",
"116 1540 CURVE",
"82 1568 LINE",
"147 1661 OFFCURVE",
"309 1778 OFFCURVE",
"478 1690 CURVE SMOOTH",
"608 1622 OFFCURVE",
"655 1483 OFFCURVE",
"652 1364 CURVE SMOOTH",
"649 1241 OFFCURVE",
"598 1138 OFFCURVE",
"530 1076 CURVE SMOOTH",
"467 1019 OFFCURVE",
"386 986 OFFCURVE",
"312 986 CURVE SMOOTH",
"179 986 OFFCURVE",
"53 1103 OFFCURVE",
"72 1277 CURVE"
);
},
{
closed = 1;
nodes = (
"184 1115 OFFCURVE",
"289 990 OFFCURVE",
"431 1067 CURVE SMOOTH",
"619 1169 OFFCURVE",
"609 1488 OFFCURVE",
"433 1599 CURVE SMOOTH",
"316 1673 OFFCURVE",
"177 1595 OFFCURVE",
"116 1540 CURVE",
"177 1595 OFFCURVE",
"292 1645 OFFCURVE",
"409 1571 CURVE SMOOTH",
"568 1471 OFFCURVE",
"588 1175 OFFCURVE",
"424 1086 CURVE SMOOTH",
"319 1029 OFFCURVE",
"184 1115 OFFCURVE",
"184 1215 CURVE"
);
},
{
closed = 1;
nodes = (
"105 608 OFFCURVE",
"47 506 OFFCURVE",
"47 390 CURVE SMOOTH",
"47 345 OFFCURVE",
"56 298 OFFCURVE",
"75 252 CURVE SMOOTH",
"127 122 OFFCURVE",
"235 41 OFFCURVE",
"348 41 CURVE SMOOTH",
"378 41 OFFCURVE",
"408 47 OFFCURVE",
"437 59 CURVE SMOOTH",
"537 100 OFFCURVE",
"594 203 OFFCURVE",
"594 319 CURVE SMOOTH",
"594 363 OFFCURVE",
"586 410 OFFCURVE",
"568 456 CURVE SMOOTH",
"517 588 OFFCURVE",
"407 667 OFFCURVE",
"295 667 CURVE SMOOTH",
"265 667 OFFCURVE",
"234 661 OFFCURVE",
"205 649 CURVE SMOOTH"
);
},
{
closed = 1;
nodes = (
"676 450 OFFCURVE",
"684 405 OFFCURVE",
"684 360 CURVE SMOOTH",
"684 213 OFFCURVE",
"595 71 OFFCURVE",
"455 13 CURVE SMOOTH",
"411 -5 OFFCURVE",
"364 -14 OFFCURVE",
"318 -14 CURVE SMOOTH",
"176 -14 OFFCURVE",
"40 72 OFFCURVE",
"-16 214 CURVE SMOOTH",
"-34 258 OFFCURVE",
"-41 303 OFFCURVE",
"-41 348 CURVE SMOOTH",
"-41 495 OFFCURVE",
"45 637 OFFCURVE",
"187 694 CURVE SMOOTH",
"232 712 OFFCURVE",
"277 721 OFFCURVE",
"323 721 CURVE SMOOTH",
"466 721 OFFCURVE",
"602 636 OFFCURVE",
"659 494 CURVE SMOOTH"
);
},
{
closed = 1;
nodes = (
"40 266 OFFCURVE",
"41 277 OFFCURVE",
"42 289 CURVE",
"58 289 LINE",
"40 255 LINE"
);
}
);
};
guideLines = (
{
angle = 22;
position = "{125, 318}";
},
{
angle = 112;
position = "{284, 401}";
}
);
layerId = "6D97EE47-94AA-478E-ABFB-936E6C32B491";
paths = (
{
closed = 1;
nodes = (
"593 172 OFFCURVE",
"524 34 OFFCURVE",
"347 34 CURVE SMOOTH",
"223 34 OFFCURVE",
"143 153 OFFCURVE",
"143 238 CURVE",
"619 238 LINE",
"628 289 LINE",
"42 289 LINE",
"41 277 OFFCURVE",
"40 266 OFFCURVE",
"40 255 CURVE SMOOTH",
"40 99 OFFCURVE",
"183 -14 OFFCURVE",
"330 -14 CURVE SMOOTH",
"393 -14 OFFCURVE",
"467 -7 OFFCURVE",
"539 47 CURVE SMOOTH",
"617 105 OFFCURVE",
"684 187 OFFCURVE",
"684 360 CURVE SMOOTH",
"684 562 OFFCURVE",
"527 721 OFFCURVE",
"324 721 CURVE SMOOTH",
"192 721 OFFCURVE",
"108 647 OFFCURVE",
"78 609 CURVE",
"108 580 LINE",
"142 613 OFFCURVE",
"216 667 OFFCURVE",
"301 667 CURVE SMOOTH",
"467 667 OFFCURVE",
"593 507 OFFCURVE",
"593 319 CURVE SMOOTH"
);
}
);
width = 734;
}
);
leftKerningGroup = Schwa;
rightKerningGroup = O;
rightMetricsKey = O;
unicode = 018F;
},
{
glyphname = T;
lastChange = "2020-12-03 22:10:32 +0000";
layers = (
{
anchors = (
{
name = BOTTOM;
position = "{319, 0}";
},
{
name = TOP;
position = "{319, 707}";
}
);
background = {
components = (
{
name = serifUC;
transform = "{1, 0, 0, 1, 362, 960}";
},
{
name = serifUC;
transform = "{-1, 0, 0, 1, 275, 960}";
},
{
name = serifUC;
transform = "{1, 0, 0, 1, 1262, 960}";
},
{
name = serifUC;
transform = "{-1, 0, 0, 1, 1175, 960}";
}
);
paths = (
{
closed = 1;
nodes = (
"1175 960 LINE",
"1175 1667 LINE",
"1262 1667 LINE",
"1262 960 LINE"
);
},
{
closed = 1;
nodes = (
"935 1616 LINE",
"935 1667 LINE",
"1502 1667 LINE",
"1502 1616 LINE"
);
},
{
closed = 1;
nodes = (
"982 1667 LINE",
"959 1603 OFFCURVE",
"950 1546 OFFCURVE",
"942 1491 CURVE",
"910 1491 LINE",
"910 1667 LINE"
);
},
{
closed = 1;
nodes = (
"1502 1491 LINE",
"1470 1491 LINE",
"1462 1546 OFFCURVE",
"1453 1603 OFFCURVE",
"1430 1667 CURVE",
"1502 1667 LINE"
);
},
{
closed = 1;
nodes = (
"603 1493 LINE",
"570 1497 LINE",
"573 1562 OFFCURVE",
"573 1605 OFFCURVE",
"570 1667 CURVE",
"628 1667 LINE"
);
},
{
closed = 1;
nodes = (
"275 960 LINE",
"275 1667 LINE",
"362 1667 LINE",
"362 960 LINE"
);
},
{
closed = 1;
nodes = (
"35 1616 LINE",
"35 1667 LINE",
"602 1667 LINE",
"602 1616 LINE"
);
},
{
closed = 1;
nodes = (
"82 1667 LINE",
"59 1603 OFFCURVE",
"50 1546 OFFCURVE",
"42 1491 CURVE",
"10 1491 LINE",
"10 1667 LINE"
);
},
{
closed = 1;
nodes = (
"275 0 LINE",
"275 707 LINE",
"362 707 LINE",
"362 0 LINE"
);
},
{
closed = 1;
nodes = (
"35 656 LINE",
"35 707 LINE",
"602 707 LINE",
"602 656 LINE"
);
},
{
closed = 1;
nodes = (
"628 707 LINE",
"616 646 OFFCURVE",
"609 596 OFFCURVE",
"603 531 CURVE",
"569 531 LINE",
"569 707 LINE"
);
},
{
closed = 1;
nodes = (
"82 707 LINE",
"59 643 OFFCURVE",
"50 586 OFFCURVE",
"42 531 CURVE",
"10 531 LINE",
"10 707 LINE"
);
},
{
closed = 1;
nodes = (
"803 531 LINE",
"770 535 LINE",
"773 600 OFFCURVE",
"773 645 OFFCURVE",
"770 707 CURVE",
"828 707 LINE"
);
}
);
};
components = (
{
name = serifUC;
transform = "{1, 0, 0, 1, 362, 0}";
},
{
name = serifUC;
transform = "{-1, 0, 0, 1, 275, 0}";
}
);
guideLines = (
{
angle = 81.7729;
position = "{597, 493}";
}
);
layerId = "6D97EE47-94AA-478E-ABFB-936E6C32B491";
paths = (
{
closed = 1;
nodes = (
"275 0 LINE",
"275 707 LINE",
"362 707 LINE",
"362 0 LINE"
);
},
{
closed = 1;
nodes = (
"35 656 LINE",
"35 707 LINE",
"602 707 LINE",
"602 656 LINE"
);
},
{
closed = 1;
nodes = (
"82 707 LINE",
"59 643 OFFCURVE",
"50 586 OFFCURVE",
"42 531 CURVE",
"10 531 LINE",
"10 707 LINE"
);
},
{
closed = 1;
nodes = (
"602 528 LINE",
"571 531 LINE",
"572 584 OFFCURVE",
"574 639 OFFCURVE",
"557 707 CURVE",
"628 707 LINE"
);
}
);
width = 638;
}
);
leftKerningGroup = T;
rightKerningGroup = T;
unicode = 0054;
},
{
glyphname = Tbar;
lastChange = "2020-11-04 21:31:19 +0000";
layers = (
{
background = {
paths = (
{
closed = 1;
nodes = (
"144 338 LINE",
"152 382 LINE",
"494 382 LINE",
"486 338 LINE"
);
}
);
};
components = (
{
name = T;
}
);
layerId = "6D97EE47-94AA-478E-ABFB-936E6C32B491";
paths = (
{
closed = 1;
nodes = (
"144 339 LINE",
"144 381 LINE",
"494 381 LINE",
"494 339 LINE"
);
}
);
width = 638;
}
);
leftKerningGroup = T;
leftMetricsKey = T;
rightKerningGroup = T;
rightMetricsKey = T;
unicode = 0166;
},
{
glyphname = U;
lastChange = "2020-11-21 19:06:16 +0000";
layers = (
{
anchors = (
{
name = BOTTOM;
position = "{437, 0}";
},
{
name = TOP;
position = "{436, 707}";
}
);
background = {
components = (
{
name = serifUC;
transform = "{-1, 0, 0, -1, 1138, 707}";
},
{
name = serifUC;
transform = "{1, 0, 0, -1, 1225, 707}";
},
{
name = serifUC;
transform = "{-1, 0, 0, -1, 1651, 707}";
},
{
name = serifUC;
transform = "{1, 0, 0, -1, 1705, 707}";
},
{
name = serifUC;
transform = "{-1, 0, 0, -1, 138, 707}";
},
{
name = serifUC;
transform = "{1, 0, 0, -1, 225, 707}";
},
{
name = serifUC;
transform = "{-1, 0, 0, -1, 651, 707}";
},
{
name = serifUC;
transform = "{1, 0, 0, -1, 705, 707}";
}
);
paths = (
{
closed = 1;
nodes = (
"1653 305 OFFCURVE",
"1656 218 OFFCURVE",
"1640 162 CURVE SMOOTH",
"1614 76 OFFCURVE",
"1528 38 OFFCURVE",
"1433 38 CURVE SMOOTH",
"1335 38 OFFCURVE",
"1263 97 OFFCURVE",
"1240 166 CURVE SMOOTH",
"1223 220 OFFCURVE",
"1225 338 OFFCURVE",
"1225 389 CURVE SMOOTH",
"1225 440 OFFCURVE",
"1225 707 OFFCURVE",
"1225 707 CURVE SMOOTH",
"1138 707 LINE SMOOTH",
"1138 707 OFFCURVE",
"1138 488 OFFCURVE",
"1138 384 CURVE SMOOTH",
"1138 281 OFFCURVE",
"1139 192 OFFCURVE",
"1163 134 CURVE SMOOTH",
"1213 18 OFFCURVE",
"1340 -14 OFFCURVE",
"1423 -14 CURVE SMOOTH",
"1506 -14 OFFCURVE",
"1645 15 OFFCURVE",
"1686 139 CURVE SMOOTH",
"1706 199 OFFCURVE",
"1704 306 OFFCURVE",
"1704 393 CURVE SMOOTH",
"1704 498 OFFCURVE",
"1704 707 OFFCURVE",
"1704 707 CURVE SMOOTH",
"1653 707 LINE SMOOTH",
"1653 707 OFFCURVE",
"1653 495 OFFCURVE",
"1653 400 CURVE SMOOTH"
);
},
{
closed = 1;
nodes = (
"651 305 OFFCURVE",
"654 218 OFFCURVE",
"638 162 CURVE SMOOTH",
"612 76 OFFCURVE",
"528 38 OFFCURVE",
"433 38 CURVE SMOOTH",
"335 38 OFFCURVE",
"263 97 OFFCURVE",
"240 166 CURVE SMOOTH",
"223 220 OFFCURVE",
"225 338 OFFCURVE",
"225 389 CURVE SMOOTH",
"225 440 OFFCURVE",
"225 707 OFFCURVE",
"225 707 CURVE SMOOTH",
"138 707 LINE SMOOTH",
"138 707 OFFCURVE",
"138 488 OFFCURVE",
"138 384 CURVE SMOOTH",
"138 281 OFFCURVE",
"139 192 OFFCURVE",
"163 134 CURVE SMOOTH",
"213 18 OFFCURVE",
"340 -14 OFFCURVE",
"423 -14 CURVE SMOOTH",
"506 -14 OFFCURVE",
"646 15 OFFCURVE",
"687 139 CURVE SMOOTH",
"707 199 OFFCURVE",
"705 306 OFFCURVE",
"705 393 CURVE SMOOTH",
"705 498 OFFCURVE",
"705 707 OFFCURVE",
"705 707 CURVE SMOOTH",
"651 707 LINE SMOOTH",
"651 707 OFFCURVE",
"651 495 OFFCURVE",
"651 400 CURVE SMOOTH"
);
}
);
};
components = (
{
name = serifUC;
transform = "{-1, 0, 0, -1, 138, 707}";
},
{
name = serifUC;
transform = "{1, 0, 0, -1, 225, 707}";
},
{
name = serifUC;
transform = "{-1, 0, 0, -1, 650, 707}";
},
{
name = serifUC;
transform = "{1, 0, 0, -1, 706, 707}";
}
);
layerId = "6D97EE47-94AA-478E-ABFB-936E6C32B491";
paths = (
{
closed = 1;
nodes = (
"650 495 OFFCURVE",
"650 707 OFFCURVE",
"650 707 CURVE SMOOTH",
"706 707 LINE SMOOTH",
"706 707 OFFCURVE",
"706 498 OFFCURVE",
"706 393 CURVE SMOOTH",
"706 306 OFFCURVE",
"708 199 OFFCURVE",
"688 139 CURVE SMOOTH",
"647 15 OFFCURVE",
"506 -14 OFFCURVE",
"423 -14 CURVE SMOOTH",
"340 -14 OFFCURVE",
"213 18 OFFCURVE",
"163 134 CURVE SMOOTH",
"139 192 OFFCURVE",
"138 281 OFFCURVE",
"138 384 CURVE SMOOTH",
"138 488 OFFCURVE",
"138 707 OFFCURVE",
"138 707 CURVE SMOOTH",
"225 707 LINE SMOOTH",
"225 707 OFFCURVE",
"225 440 OFFCURVE",
"225 389 CURVE SMOOTH",
"225 338 OFFCURVE",
"223 220 OFFCURVE",
"240 166 CURVE SMOOTH",
"263 97 OFFCURVE",
"335 38 OFFCURVE",
"433 38 CURVE SMOOTH",
"528 38 OFFCURVE",
"611 76 OFFCURVE",
"637 162 CURVE SMOOTH",
"653 218 OFFCURVE",
"650 305 OFFCURVE",
"650 400 CURVE SMOOTH"
);
}
);
width = 834;
}
);
leftKerningGroup = U;
leftMetricsKey = H;
rightKerningGroup = U;
rightMetricsKey = "=H-10";
unicode = 0055;
},
{
glyphname = Uogonek;
lastChange = "2018-05-01 12:50:49 +0000";
layers = (
{
background = {
components = (
{
name = U;
},
{
alignment = -1;
name = ogonekcomb;
transform = "{1, 0, 0, 1, 408, 0}";
}
);
paths = (
{
closed = 1;
nodes = (
"569 9 OFFCURVE",
"649 83 OFFCURVE",
"663 152 CURVE",
"644 152 LINE",
"608 76 OFFCURVE",
"563 33 OFFCURVE",
"521 0 CURVE",
"560 0 LINE"
);
}
);
};
components = (
{
name = U;
},
{
alignment = -1;
name = ogonekcomb;
transform = "{1, 0, 0, 1, 345, 0}";
}
);
layerId = "6D97EE47-94AA-478E-ABFB-936E6C32B491";
width = 834;
}
);
leftKerningGroup = U;
rightKerningGroup = U;
unicode = 0172;
},
{
glyphname = V;
lastChange = "2021-01-14 14:15:55 +0000";
layers = (
{
background = {
paths = (
{
closed = 1;
nodes = (
"376 -14 LINE",
"335 -14 LINE",
"83 661 LINE",
"163 700 LINE",
"377 124 LINE",
"612 699 LINE",
"652 661 LINE"
);
},
{
closed = 1;
nodes = (
"177 707 LINE",
"177 661 LINE",
"83 661 LINE",
"83 707 LINE"
);
},
{
closed = 1;
nodes = (
"652 707 LINE",
"652 661 LINE",
"597 661 LINE",
"597 707 LINE"
);
}
);
};
components = (
{
name = serifUC;
transform = "{-0.9, 0, 0, -1, 83, 707}";
},
{
name = serifUC;
transform = "{1, 0, 0, -1, 177, 707}";
},
{
name = serifUC;
transform = "{-1, 0, 0, -1, 597, 707}";
},
{
name = serifUC;
transform = "{0.8, 0, 0, -1, 652, 707}";
}
);
guideLines = (
{
angle = 110.5;
position = "{303, 323}";
},
{
angle = 110.5;
position = "{209, 323}";
},
{
angle = 68;
position = "{459, 323}";
},
{
angle = 68;
position = "{514, 323}";
}
);
layerId = "6D97EE47-94AA-478E-ABFB-936E6C32B491";
paths = (
{
closed = 1;
nodes = (
"376 -14 LINE",
"335 -14 LINE",
"83 661 LINE",
"163 700 LINE",
"390 90 LINE",
"363 90 LINE",
"612 699 LINE",
"652 661 LINE"
);
},
{
closed = 1;
nodes = (
"177 707 LINE",
"177 661 LINE",
"83 661 LINE",
"83 707 LINE"
);
},
{
closed = 1;
nodes = (
"652 707 LINE",
"652 661 LINE",
"597 661 LINE",
"597 707 LINE"
);
}
);
width = 726;
}
);
leftKerningGroup = V;
rightKerningGroup = V;
unicode = 0056;
},
{
glyphname = W;
lastChange = "2021-01-14 22:13:57 +0000";
layers = (
{
components = (
{
name = serifUC;
transform = "{-0.88, 0, 0, -1, 81, 707}";
},
{
name = serifUC;
transform = "{1, 0, 0, -1, 170, 707}";
},
{
name = serifUC;
transform = "{-1, 0, 0, -1, 849, 707}";
},
{
name = serifUC;
transform = "{0.82, 0, 0, -1, 901, 707}";
}
);
guideLines = (
{
angle = 76;
position = "{773, 354}";
},
{
angle = 76;
position = "{826, 354}";
},
{
angle = 68;
position = "{378, 323}";
},
{
angle = 68;
position = "{433, 323}";
},
{
angle = 111;
position = "{650, 340}";
},
{
angle = 111;
position = "{587, 262}";
}
);
layerId = "6D97EE47-94AA-478E-ABFB-936E6C32B491";
paths = (
{
closed = 1;
nodes = (
"907 684 LINE",
"735 -14 LINE",
"694 -14 LINE",
"499 484 LINE",
"296 -14 LINE",
"255 -14 LINE",
"77 673 LINE",
"162 694 LINE",
"305 143 LINE",
"499 619 LINE",
"540 619 LINE",
"724 152 LINE",
"857 696 LINE"
);
},
{
closed = 1;
nodes = (
"170 707 LINE",
"170 661 LINE",
"81 661 LINE",
"81 707 LINE"
);
},
{
closed = 1;
nodes = (
"901 707 LINE",
"901 661 LINE",
"849 661 LINE",
"849 707 LINE"
);
}
);
width = 949;
}
);
leftKerningGroup = W;
leftMetricsKey = V;
rightKerningGroup = W;
unicode = 0057;
},
{
glyphname = X;
lastChange = "2021-01-14 15:26:53 +0000";
layers = (
{
background = {
components = (
{
name = serifUC;
transform = "{1, 0, 0, 1, 147, 0}";
},
{
name = serifUC;
transform = "{-0.82, 0, 0, 1, 84, 0}";
},
{
name = serifUC;
transform = "{0.87, 0, 0, 1, 594, 0}";
},
{
name = serifUC;
transform = "{-1, 0, 0, 1, 489, 0}";
},
{
name = serifUC;
transform = "{1, 0, 0, -1, 194, 707}";
},
{
name = serifUC;
transform = "{-0.88, 0, 0, -1, 89, 707}";
},
{
name = serifUC;
transform = "{0.82, 0, 0, -1, 577, 707}";
},
{
name = serifUC;
transform = "{-1, 0, 0, -1, 514, 707}";
}
);
paths = (
{
closed = 1;
nodes = (
"332 402 LINE",
"529 683 LINE",
"586 673 LINE",
"365 357 LINE"
);
},
{
closed = 1;
nodes = (
"495 35 LINE",
"74 683 LINE",
"180 683 LINE",
"594 46 LINE",
"557 22 LINE"
);
},
{
closed = 1;
nodes = (
"147 46 LINE",
"147 0 LINE",
"84 0 LINE",
"84 46 LINE"
);
},
{
closed = 1;
nodes = (
"594 46 LINE",
"594 0 LINE",
"489 0 LINE",
"489 46 LINE"
);
},
{
closed = 1;
nodes = (
"89 707 LINE",
"194 707 LINE",
"194 661 LINE",
"89 661 LINE"
);
},
{
closed = 1;
nodes = (
"514 707 LINE",
"577 707 LINE",
"577 661 LINE",
"514 661 LINE"
);
},
{
closed = 1;
nodes = (
"139 34 LINE",
"74 32 LINE",
"311 372 LINE",
"342 325 LINE"
);
}
);
};
components = (
{
name = serifUC;
transform = "{1, 0, 0, 1, 139, 0}";
},
{
name = serifUC;
transform = "{-0.82, 0, 0, 1, 76, 0}";
},
{
name = serifUC;
transform = "{0.87, 0, 0, 1, 594, 0}";
},
{
name = serifUC;
transform = "{-1, 0, 0, 1, 489, 0}";
},
{
name = serifUC;
transform = "{1, 0, 0, -1, 194, 707}";
},
{
name = serifUC;
transform = "{-0.88, 0, 0, -1, 89, 707}";
},
{
name = serifUC;
transform = "{0.82, 0, 0, -1, 577, 707}";
},
{
name = serifUC;
transform = "{-1, 0, 0, -1, 515, 707}";
}
);
guideLines = (
{
angle = 123;
position = "{196, 495}";
},
{
angle = 123;
position = "{302, 495}";
},
{
angle = 55;
position = "{364, 355}";
},
{
angle = 55;
position = "{300, 355}";
}
);
layerId = "6D97EE47-94AA-478E-ABFB-936E6C32B491";
paths = (
{
closed = 1;
nodes = (
"333 402 LINE",
"530 683 LINE",
"586 673 LINE",
"365 357 LINE"
);
},
{
closed = 1;
nodes = (
"495 35 LINE",
"74 683 LINE",
"180 683 LINE",
"594 46 LINE",
"557 22 LINE"
);
},
{
closed = 1;
nodes = (
"139 46 LINE",
"139 0 LINE",
"76 0 LINE",
"76 46 LINE"
);
},
{
closed = 1;
nodes = (
"594 46 LINE",
"594 0 LINE",
"489 0 LINE",
"489 46 LINE"
);
},
{
closed = 1;
nodes = (
"89 707 LINE",
"194 707 LINE",
"194 661 LINE",
"89 661 LINE"
);
},
{
closed = 1;
nodes = (
"515 707 LINE",
"577 707 LINE",
"577 661 LINE",
"515 661 LINE"
);
},
{
closed = 1;
nodes = (
"131 34 LINE",
"66 32 LINE",
"303 372 LINE",
"334 325 LINE"
);
}
);
width = 675;
}
);
leftKerningGroup = X;
rightKerningGroup = X;
unicode = 0058;
},
{
glyphname = Y;
lastChange = "2020-09-24 13:35:38 +0000";
layers = (
{
anchors = (
{
name = TOP;
position = "{339, 707}";
}
);
components = (
{
name = serifUC;
transform = "{1, 0, 0, 1, 378, 0}";
},
{
name = serifUC;
transform = "{-1, 0, 0, 1, 291, 0}";
},
{
name = serifUC;
transform = "{1, 0, 0, -1, 180, 707}";
},
{
name = serifUC;
transform = "{-0.88, 0, 0, -1, 81, 707}";
},
{
name = serifUC;
transform = "{0.82, 0, 0, -1, 576, 707}";
},
{
name = serifUC;
transform = "{-1, 0, 0, -1, 519, 707}";
}
);
layerId = "6D97EE47-94AA-478E-ABFB-936E6C32B491";
paths = (
{
closed = 1;
nodes = (
"354 260 LINE",
"309 285 LINE",
"540 699 LINE",
"584 674 LINE"
);
},
{
closed = 1;
nodes = (
"291 0 LINE",
"291 339 LINE",
"378 339 LINE",
"378 0 LINE"
);
},
{
closed = 1;
nodes = (
"299 266 LINE",
"80 662 LINE",
"157 704 LINE",
"376 309 LINE"
);
},
{
closed = 1;
nodes = (
"180 707 LINE",
"180 661 LINE",
"81 661 LINE",
"81 707 LINE"
);
},
{
closed = 1;
nodes = (
"576 707 LINE",
"576 661 LINE",
"519 661 LINE",
"519 707 LINE"
);
}
);
width = 652;
}
);
leftKerningGroup = V;
rightKerningGroup = V;
unicode = 0059;
},
{
glyphname = Z;
lastChange = "2020-11-19 15:56:37 +0000";
layers = (
{
anchors = (
{
name = TOP;
position = "{289, 707}";
}
);
layerId = "6D97EE47-94AA-478E-ABFB-936E6C32B491";
paths = (
{
closed = 1;
nodes = (
"60 0 LINE",
"60 51 LINE",
"556 51 LINE",
"556 0 LINE"
);
},
{
closed = 1;
nodes = (
"43 656 LINE",
"43 707 LINE",
"508 707 LINE",
"508 656 LINE"
);
},
{
closed = 1;
nodes = (
"110 701 LINE",
"85 639 OFFCURVE",
"79 587 OFFCURVE",
"68 534 CURVE",
"36 536 LINE",
"43 707 LINE"
);
},
{
closed = 1;
nodes = (
"555 669 LINE",
"105 0 LINE",
"40 0 LINE",
"25 38 LINE",
"474 707 LINE",
"538 707 LINE"
);
},
{
closed = 1;
nodes = (
"500 51 LINE",
"531 90 OFFCURVE",
"560 161 OFFCURVE",
"564 175 CURVE",
"595 167 LINE",
"556 0 LINE",
"478 8 LINE"
);
}
);
width = 620;
}
);
leftKerningGroup = Z;
leftMetricsKey = "=H/2";
rightKerningGroup = Z;
rightMetricsKey = "=H/2";
unicode = 005A;
},
{
glyphname = K.ss01;
lastChange = "2020-07-03 22:03:34 +0000";
layers = (
{
anchors = (
{
name = BOTTOM;
position = "{356, 0}";
}
);
background = {
components = (
{
alignment = -1;
name = K;
transform = "{1, 0, 0, 1, 4, 0}";
},
{
name = serifUC;
transform = "{-1, 0, 0, 1, 1042, 0}";
},
{
name = serifUC;
transform = "{-1, 0, 0, -1, 1042, 707}";
},
{
name = serifUC;
transform = "{1, 0, 0, 1, 1129, 0}";
},
{
name = serifUC;
transform = "{1, 0, 0, -1, 1129, 707}";
},
{
name = serifUC;
transform = "{-0.82, 0, 0, -1, 1409, 707}";
},
{
name = serifUC;
transform = "{1, 0, 0, -1, 1479, 707}";
}
);
paths = (
{
closed = 1;
nodes = (
"1479 659 LINE",
"1181 338 LINE",
"1143 373 LINE",
"1409 659 LINE",
"1448 700 LINE",
"1485 666 LINE"
);
},
{
closed = 1;
nodes = (
"1042 0 LINE",
"1042 707 LINE",
"1129 707 LINE",
"1129 0 LINE"
);
},
{
closed = 1;
nodes = (
"1479 707 LINE",
"1479 659 LINE",
"1409 659 LINE",
"1409 707 LINE"
);
},
{
closed = 1;
nodes = (
"1234 403 LINE",
"1288 328 OFFCURVE",
"1499 -29 OFFCURVE",
"1620 -114 CURVE SMOOTH",
"1739 -198 OFFCURVE",
"1818 -220 OFFCURVE",
"1907 -224 CURVE",
"1909 -255 LINE",
"1739 -254 OFFCURVE",
"1599 -196 OFFCURVE",
"1473 -82 CURVE SMOOTH",
"1366 15 OFFCURVE",
"1209 309 OFFCURVE",
"1143 373 CURVE"
);
}
);
};
components = (
{
name = serifUC;
transform = "{1.04, 0, 0, 1, 225, 0}";
},
{
name = serifUC;
transform = "{-1, 0, 0, 1, 138, 0}";
},
{
name = serifUC;
transform = "{-1, 0, 0, -1, 138, 707}";
},
{
name = serifUC;
transform = "{1, 0, 0, -1, 225, 707}";
},
{
name = serifUC;
transform = "{-0.82, 0, 0, -1, 512, 707}";
},
{
name = serifUC;
transform = "{1, 0, 0, -1, 580, 707}";
}
);
layerId = "6D97EE47-94AA-478E-ABFB-936E6C32B491";
paths = (
{
closed = 1;
nodes = (
"374 333 OFFCURVE",
"620 13 OFFCURVE",
"683 -57 CURVE SMOOTH",
"736 -116 OFFCURVE",
"768 -157 OFFCURVE",
"857 -184 CURVE",
"850 -214 LINE",
"713 -213 OFFCURVE",
"670 -177 OFFCURVE",
"614 -119 CURVE SMOOTH",
"563 -67 OFFCURVE",
"275 331 OFFCURVE",
"243 373 CURVE",
"331 392 LINE"
);
},
{
closed = 1;
nodes = (
"138 0 LINE",
"138 707 LINE",
"225 707 LINE",
"225 0 LINE"
);
},
{
closed = 1;
nodes = (
"281 338 LINE",
"243 373 LINE",
"548 700 LINE",
"585 666 LINE"
);
},
{
closed = 1;
nodes = (
"580 707 LINE",
"580 661 LINE",
"512 661 LINE",
"512 707 LINE"
);
}
);
width = 657;
}
);
leftKerningGroup = H;
leftMetricsKey = K;
rightKerningGroup = K.ss01;
},
{
glyphname = Q.ss01;
lastChange = "2020-11-21 19:04:39 +0000";
layers = (
{
background = {
paths = (
{
closed = 1;
nodes = (
"659 -271 OFFCURVE",
"679 -250 OFFCURVE",
"679 -224 CURVE SMOOTH",
"679 -199 OFFCURVE",
"659 -178 OFFCURVE",
"633 -178 CURVE SMOOTH",
"607 -178 OFFCURVE",
"587 -199 OFFCURVE",
"587 -224 CURVE SMOOTH",
"587 -250 OFFCURVE",
"607 -271 OFFCURVE",
"633 -271 CURVE SMOOTH"
);
},
{
closed = 1;
nodes = (
"1979 14 OFFCURVE",
"2071 28 OFFCURVE",
"2093 41 CURVE",
"2179 8 OFFCURVE",
"2553 -166 OFFCURVE",
"2701 -169 CURVE SMOOTH",
"2854 -173 OFFCURVE",
"2971 -114 OFFCURVE",
"2993 -101 CURVE",
"2999 -108 OFFCURVE",
"3005 -116 OFFCURVE",
"3012 -126 CURVE",
"2904 -212 OFFCURVE",
"2698 -247 OFFCURVE",
"2553 -227 CURVE SMOOTH",
"2409 -206 OFFCURVE",
"2030 -16 OFFCURVE",
"1940 0 CURVE"
);
},
{
closed = 1;
nodes = (
"2399 306 OFFCURVE",
"2303 89 OFFCURVE",
"2115 13 CURVE SMOOTH",
"1927 -63 OFFCURVE",
"1707 26 OFFCURVE",
"1631 214 CURVE SMOOTH",
"1555 402 OFFCURVE",
"1652 618 OFFCURVE",
"1840 694 CURVE SMOOTH",
"2028 770 OFFCURVE",
"2247 682 OFFCURVE",
"2323 494 CURVE SMOOTH"
);
},
{
closed = 1;
nodes = (
"1716 591 OFFCURVE",
"1657 417 OFFCURVE",
"1724 252 CURVE SMOOTH",
"1791 86 OFFCURVE",
"1954 2 OFFCURVE",
"2096 59 CURVE SMOOTH",
"2239 116 OFFCURVE",
"2297 291 OFFCURVE",
"2230 456 CURVE SMOOTH",
"2164 622 OFFCURVE",
"2000 706 OFFCURVE",
"1858 649 CURVE SMOOTH"
);
},
{
closed = 1;
nodes = (
"844 306 OFFCURVE",
"747 89 OFFCURVE",
"559 13 CURVE SMOOTH",
"371 -63 OFFCURVE",
"151 26 OFFCURVE",
"76 214 CURVE SMOOTH",
"0 402 OFFCURVE",
"96 618 OFFCURVE",
"284 694 CURVE SMOOTH",
"472 770 OFFCURVE",
"691 682 OFFCURVE",
"768 494 CURVE SMOOTH"
);
},
{
closed = 1;
nodes = (
"160 591 OFFCURVE",
"101 417 OFFCURVE",
"169 252 CURVE SMOOTH",
"235 86 OFFCURVE",
"399 2 OFFCURVE",
"541 59 CURVE SMOOTH",
"683 116 OFFCURVE",
"741 291 OFFCURVE",
"675 456 CURVE SMOOTH",
"608 622 OFFCURVE",
"445 706 OFFCURVE",
"303 649 CURVE SMOOTH"
);
},
{
closed = 1;
nodes = (
"535 38 LINE",
"621 4 OFFCURVE",
"997 -169 OFFCURVE",
"1145 -173 CURVE SMOOTH",
"1299 -176 OFFCURVE",
"1416 -116 OFFCURVE",
"1437 -101 CURVE",
"1456 -126 LINE",
"1348 -212 OFFCURVE",
"1143 -247 OFFCURVE",
"997 -227 CURVE SMOOTH",
"854 -206 OFFCURVE",
"475 -16 OFFCURVE",
"385 0 CURVE"
);
}
);
};
layerId = "6D97EE47-94AA-478E-ABFB-936E6C32B491";
paths = (
{
closed = 1;
nodes = (
"844 306 OFFCURVE",
"747 89 OFFCURVE",
"559 13 CURVE SMOOTH",
"371 -63 OFFCURVE",
"151 26 OFFCURVE",
"76 214 CURVE SMOOTH",
"0 402 OFFCURVE",
"96 618 OFFCURVE",
"284 694 CURVE SMOOTH",
"472 770 OFFCURVE",
"691 682 OFFCURVE",
"768 494 CURVE SMOOTH"
);
},
{
closed = 1;
nodes = (
"160 591 OFFCURVE",
"101 417 OFFCURVE",
"169 252 CURVE SMOOTH",
"235 86 OFFCURVE",
"399 2 OFFCURVE",
"541 59 CURVE SMOOTH",
"683 116 OFFCURVE",
"741 291 OFFCURVE",
"675 456 CURVE SMOOTH",
"608 622 OFFCURVE",
"445 706 OFFCURVE",
"303 649 CURVE SMOOTH"
);
},
{
closed = 1;
nodes = (
"534 34 LINE",
"620 1 OFFCURVE",
"986 -172 OFFCURVE",
"1134 -175 CURVE SMOOTH",
"1279 -178 OFFCURVE",
"1361 -149 OFFCURVE",
"1437 -101 CURVE",
"1456 -126 LINE",
"1314 -221 OFFCURVE",
"1166 -251 OFFCURVE",
"997 -227 CURVE SMOOTH",
"854 -206 OFFCURVE",
"475 -16 OFFCURVE",
"385 0 CURVE"
);
}
);
width = 849;
}
);
leftKerningGroup = O;
leftMetricsKey = O;
rightKerningGroup = Q.ss01;
},
{
glyphname = R.ss01;
lastChange = "2020-06-30 23:34:40 +0000";
layers = (
{
anchors = (
{
name = BOTTOM;
position = "{356, 0}";
},
{
name = TOP;
position = "{287, 707}";
}
);
background = {
components = (
{
alignment = -1;
name = R;
transform = "{1, 0, 0, 1, 800, 0}";
},
{
name = serifUC;
transform = "{1, 0, 0, 1, 1925, 0}";
},
{
name = serifUC;
transform = "{-1, 0, 0, 1, 1838, 0}";
}
);
paths = (
{
closed = 1;
nodes = (
"1811 666 OFFCURVE",
"1772 664 OFFCURVE",
"1753 663 CURVE",
"1750 695 LINE",
"1838 692 LINE",
"1842 655 LINE"
);
},
{
closed = 1;
nodes = (
"1838 0 LINE",
"1838 690 LINE",
"1925 690 LINE",
"1925 0 LINE"
);
},
{
closed = 1;
nodes = (
"1919 344 LINE",
"2104 349 OFFCURVE",
"2185 467 OFFCURVE",
"2150 563 CURVE SMOOTH",
"2120 644 OFFCURVE",
"2056 682 OFFCURVE",
"1924 668 CURVE",
"1750 695 LINE",
"2006 717 OFFCURVE",
"2178 739 OFFCURVE",
"2232 604 CURVE SMOOTH",
"2270 509 OFFCURVE",
"2225 332 OFFCURVE",
"1919 308 CURVE"
);
},
{
closed = 1;
nodes = (
"2069 362 LINE",
"2130 293 OFFCURVE",
"2372 -32 OFFCURVE",
"2501 -104 CURVE SMOOTH",
"2628 -175 OFFCURVE",
"2714 -187 OFFCURVE",
"2803 -182 CURVE",
"2808 -212 LINE",
"2639 -229 OFFCURVE",
"2494 -186 OFFCURVE",
"2356 -86 CURVE SMOOTH",
"2239 -1 OFFCURVE",
"2053 275 OFFCURVE",
"1981 332 CURVE"
);
},
{
closed = 1;
nodes = (
"111 666 OFFCURVE",
"72 664 OFFCURVE",
"53 663 CURVE",
"50 695 LINE",
"138 692 LINE",
"142 655 LINE"
);
},
{
closed = 1;
nodes = (
"138 0 LINE",
"138 690 LINE",
"225 690 LINE",
"225 0 LINE"
);
},
{
closed = 1;
nodes = (
"219 344 LINE",
"404 349 OFFCURVE",
"485 467 OFFCURVE",
"450 563 CURVE SMOOTH",
"420 644 OFFCURVE",
"356 682 OFFCURVE",
"224 668 CURVE",
"50 695 LINE",
"306 717 OFFCURVE",
"478 739 OFFCURVE",
"532 604 CURVE SMOOTH",
"569 509 OFFCURVE",
"525 332 OFFCURVE",
"219 308 CURVE"
);
},
{
closed = 1;
nodes = (
"416 311 OFFCURVE",
"607 17 OFFCURVE",
"665 -57 CURVE SMOOTH",
"714 -120 OFFCURVE",
"750 -152 OFFCURVE",
"837 -185 CURVE",
"828 -214 LINE",
"690 -205 OFFCURVE",
"643 -173 OFFCURVE",
"590 -112 CURVE SMOOTH",
"542 -56 OFFCURVE",
"325 307 OFFCURVE",
"296 352 CURVE",
"379 376 LINE"
);
}
);
};
components = (
{
alignment = -1;
name = serifUC;
transform = "{1.04, 0, 0, 1, 225, 0}";
},
{
alignment = -1;
name = serifUC;
transform = "{-1, 0, 0, 1, 138, 0}";
}
);
layerId = "6D97EE47-94AA-478E-ABFB-936E6C32B491";
paths = (
{
closed = 1;
nodes = (
"111 675 OFFCURVE",
"72 673 OFFCURVE",
"53 672 CURVE",
"50 704 LINE",
"138 701 LINE",
"142 664 LINE"
);
},
{
closed = 1;
nodes = (
"138 0 LINE",
"138 699 LINE",
"225 699 LINE",
"225 0 LINE"
);
},
{
closed = 1;
nodes = (
"219 353 LINE",
"404 358 OFFCURVE",
"485 476 OFFCURVE",
"450 572 CURVE SMOOTH",
"420 653 OFFCURVE",
"356 691 OFFCURVE",
"224 677 CURVE",
"50 704 LINE",
"306 726 OFFCURVE",
"478 748 OFFCURVE",
"532 613 CURVE SMOOTH",
"570 518 OFFCURVE",
"525 341 OFFCURVE",
"219 317 CURVE"
);
},
{
closed = 1;
nodes = (
"416 311 OFFCURVE",
"607 17 OFFCURVE",
"665 -57 CURVE SMOOTH",
"714 -120 OFFCURVE",
"750 -152 OFFCURVE",
"837 -185 CURVE",
"828 -214 LINE",
"690 -205 OFFCURVE",
"643 -173 OFFCURVE",
"590 -112 CURVE SMOOTH",
"542 -56 OFFCURVE",
"325 307 OFFCURVE",
"296 352 CURVE",
"379 376 LINE"
);
}
);
width = 637;
}
);
leftKerningGroup = H;
leftMetricsKey = R;
rightKerningGroup = R.ss01;
},
{
glyphname = Y.ss01;
lastChange = "2020-06-27 22:45:28 +0000";
layers = (
{
anchors = (
{
name = TOP;
position = "{301, 707}";
}
);
background = {
components = (
{
name = Y;
transform = "{1, 0, 0, 1, -36, 0}";
}
);
paths = (
{
closed = 1;
nodes = (
"1854 0 LINE",
"1854 339 LINE",
"1942 339 LINE",
"1942 0 LINE"
);
},
{
closed = 1;
nodes = (
"1854 339 LINE",
"1854 491 OFFCURVE",
"1722 651 OFFCURVE",
"1604 698 CURVE",
"1616 728 LINE",
"1792 672 OFFCURVE",
"1941 557 OFFCURVE",
"1942 339 CURVE"
);
},
{
closed = 1;
nodes = (
"1892 556 OFFCURVE",
"2000 658 OFFCURVE",
"2171 728 CURVE",
"2183 700 LINE",
"2039 636 OFFCURVE",
"1943 492 OFFCURVE",
"1943 339 CURVE",
"1855 339 LINE"
);
},
{
closed = 1;
nodes = (
"1054 339 LINE",
"1054 491 OFFCURVE",
"922 651 OFFCURVE",
"804 698 CURVE",
"816 728 LINE",
"992 672 OFFCURVE",
"1141 557 OFFCURVE",
"1142 339 CURVE"
);
},
{
closed = 1;
nodes = (
"1092 556 OFFCURVE",
"1200 658 OFFCURVE",
"1371 728 CURVE",
"1383 700 LINE",
"1239 636 OFFCURVE",
"1143 492 OFFCURVE",
"1143 339 CURVE",
"1055 339 LINE"
);
},
{
closed = 1;
nodes = (
"-112 539 OFFCURVE",
"-115 519 OFFCURVE",
"-117 519 CURVE",
"-129 522 OFFCURVE",
"-138 523 OFFCURVE",
"-151 523 CURVE SMOOTH",
"-253 523 OFFCURVE",
"-364 368 OFFCURVE",
"-364 206 CURVE SMOOTH",
"-364 187 LINE SMOOTH",
"-364 95 OFFCURVE",
"-357 84 OFFCURVE",
"-287 78 CURVE",
"-286 78 OFFCURVE",
"-284 56 OFFCURVE",
"-288 57 CURVE",
"-311 60 OFFCURVE",
"-361 62 OFFCURVE",
"-392 62 CURVE SMOOTH",
"-435 62 OFFCURVE",
"-482 61 OFFCURVE",
"-513 57 CURVE",
"-517 56 OFFCURVE",
"-515 78 OFFCURVE",
"-513 78 CURVE",
"-446 85 OFFCURVE",
"-436 90 OFFCURVE",
"-436 187 CURVE SMOOTH",
"-436 206 LINE SMOOTH",
"-436 391 OFFCURVE",
"-535 517 OFFCURVE",
"-649 517 CURVE SMOOTH",
"-659 517 OFFCURVE",
"-667 516 OFFCURVE",
"-676 515 CURVE",
"-678 514 OFFCURVE",
"-681 534 OFFCURVE",
"-677 536 CURVE",
"-652 544 OFFCURVE",
"-627 549 OFFCURVE",
"-604 549 CURVE SMOOTH",
"-495 549 OFFCURVE",
"-405 460 OFFCURVE",
"-378 344 CURVE",
"-339 490 OFFCURVE",
"-253 549 OFFCURVE",
"-166 549 CURVE SMOOTH",
"-149 549 OFFCURVE",
"-132 546 OFFCURVE",
"-116 540 CURVE"
);
},
{
closed = 1;
nodes = (
"254 0 LINE",
"254 279 LINE",
"342 279 LINE",
"342 0 LINE"
);
},
{
closed = 1;
nodes = (
"254 279 LINE",
"254 431 OFFCURVE",
"122 651 OFFCURVE",
"4 698 CURVE",
"16 728 LINE",
"192 672 OFFCURVE",
"341 497 OFFCURVE",
"342 279 CURVE"
);
},
{
closed = 1;
nodes = (
"291 496 OFFCURVE",
"399 658 OFFCURVE",
"570 728 CURVE",
"582 700 LINE",
"438 636 OFFCURVE",
"342 432 OFFCURVE",
"342 279 CURVE",
"254 279 LINE"
);
}
);
};
components = (
{
name = serifUC;
transform = "{1, 0, 0, 1, 342, 0}";
},
{
name = serifUC;
transform = "{-1, 0, 0, 1, 254, 0}";
}
);
layerId = "6D97EE47-94AA-478E-ABFB-936E6C32B491";
paths = (
{
closed = 1;
nodes = (
"254 0 LINE",
"254 249 LINE",
"342 249 LINE",
"342 0 LINE"
);
},
{
closed = 1;
nodes = (
"254 249 LINE",
"257 432 OFFCURVE",
"150 628 OFFCURVE",
"4 698 CURVE",
"16 728 LINE",
"219 670 OFFCURVE",
"356 491 OFFCURVE",
"342 249 CURVE"
);
},
{
closed = 1;
nodes = (
"272 467 OFFCURVE",
"374 650 OFFCURVE",
"570 728 CURVE",
"582 700 LINE",
"415 619 OFFCURVE",
"342 421 OFFCURVE",
"342 249 CURVE",
"254 249 LINE"
);
}
);
width = 586;
}
);
leftKerningGroup = V;
leftMetricsKey = Y;
rightKerningGroup = V;
rightMetricsKey = Y;
},
{
glyphname = Z.ss01;
lastChange = "2020-10-09 18:42:55 +0000";
layers = (
{
anchors = (
{
name = TOP;
position = "{279, 707}";
}
);
background = {
components = (
{
name = Z;
}
);
};
layerId = "6D97EE47-94AA-478E-ABFB-936E6C32B491";
paths = (
{
closed = 1;
nodes = (
"60 0 LINE",
"60 80 LINE",
"522 80 LINE",
"522 0 LINE"
);
},
{
closed = 1;
nodes = (
"43 629 LINE",
"43 707 LINE",
"474 707 LINE",
"474 629 LINE"
);
},
{
closed = 1;
nodes = (
"110 701 LINE",
"85 639 OFFCURVE",
"79 587 OFFCURVE",
"68 534 CURVE",
"36 536 LINE",
"43 707 LINE"
);
},
{
closed = 1;
nodes = (
"521 669 LINE",
"71 0 LINE",
"40 0 LINE",
"25 38 LINE",
"474 707 LINE",
"504 707 LINE"
);
},
{
closed = 1;
nodes = (
"466 51 LINE",
"497 90 OFFCURVE",
"526 161 OFFCURVE",
"530 175 CURVE",
"561 167 LINE",
"522 0 LINE",
"444 8 LINE"
);
}
);
width = 586;
}
);
leftKerningGroup = Z;
leftMetricsKey = Z;
rightKerningGroup = Z;
rightMetricsKey = Z;
},
{
glyphname = A.ss10;
lastChange = "2021-01-14 22:29:09 +0000";
layers = (
{
annotations = (
{
position = "{629, 1073}";
text = "border 24 px";
type = Text;
}
);
background = {
components = (
{
name = A;
transform = "{1, 0, 0, 1, 339, 0}";
}
);
paths = (
{
closed = 1;
nodes = (
"1944 32 LINE",
"1959 32 OFFCURVE",
"1991 35 OFFCURVE",
"2016 48 CURVE",
"2267 665 LINE",
"2252 707 LINE",
"2334 737 LINE",
"2584 48 LINE",
"2610 35 OFFCURVE",
"2645 32 OFFCURVE",
"2661 32 CURVE",
"2661 0 LINE",
"2403 0 LINE",
"2403 32 LINE",
"2422 32 OFFCURVE",
"2461 35 OFFCURVE",
"2491 48 CURVE",
"2418 249 LINE",
"2153 249 LINE",
"2071 48 LINE",
"2101 35 OFFCURVE",
"2140 32 OFFCURVE",
"2159 32 CURVE",
"2159 0 LINE",
"1944 0 LINE"
);
},
{
closed = 1;
nodes = (
"2399 300 LINE",
"2293 592 LINE",
"2174 300 LINE"
);
},
{
closed = 1;
nodes = (
"2821 1027 LINE",
"2821 -360 LINE",
"1784 -360 LINE",
"1784 1027 LINE"
);
},
{
closed = 1;
nodes = (
"1704 -440 LINE",
"2901 -440 LINE",
"2901 1107 LINE",
"1704 1107 LINE"
);
},
{
closed = 1;
nodes = (
"1804 -340 LINE",
"2801 -340 LINE",
"2801 1007 LINE",
"1804 1007 LINE"
);
}
);
};
guideLines = (
{
angle = 90;
position = "{344, 0}";
},
{
angle = 90;
position = "{204, 0}";
},
{
angle = 90;
position = "{1201, 0}";
},
{
angle = 90;
position = "{1061, 0}";
}
);
layerId = "6D97EE47-94AA-478E-ABFB-936E6C32B491";
paths = (
{
closed = 1;
nodes = (
"1225 1037 LINE",
"1225 -360 LINE",
"180 -360 LINE",
"180 1037 LINE"
);
},
{
closed = 1;
nodes = (
"100 -440 LINE",
"1305 -440 LINE",
"1305 1117 LINE",
"100 1117 LINE"
);
},
{
closed = 1;
nodes = (
"204 -336 LINE",
"1201 -336 LINE",
"1201 1013 LINE",
"204 1013 LINE"
);
},
{
closed = 1;
nodes = (
"344 30 LINE",
"359 30 OFFCURVE",
"390 33 OFFCURVE",
"415 45 CURVE",
"667 665 LINE",
"652 707 LINE",
"734 737 LINE",
"985 46 LINE",
"1011 33 OFFCURVE",
"1045 30 OFFCURVE",
"1061 30 CURVE",
"1061 0 LINE",
"804 0 LINE",
"804 30 LINE",
"823 30 OFFCURVE",
"862 33 OFFCURVE",
"892 46 CURVE",
"818 249 LINE",
"556 249 LINE",
"473 46 LINE",
"503 33 OFFCURVE",
"542 30 OFFCURVE",
"561 30 CURVE",
"561 0 LINE",
"344 0 LINE"
);
},
{
closed = 1;
nodes = (
"800 300 LINE",
"695 589 LINE",
"577 300 LINE"
);
}
);
width = 1405;
}
);
},
{
glyphname = B.ss10;
lastChange = "2020-07-05 13:51:35 +0000";
layers = (
{
background = {
components = (
{
name = B;
transform = "{1, 0, 0, 1, 294, 0}";
}
);
paths = (
{
closed = 1;
nodes = (
"2098 662 OFFCURVE",
"2025 677 OFFCURVE",
"1919 664 CURVE",
"1919 395 LINE",
"1943 394 OFFCURVE",
"2043 388 OFFCURVE",
"2090 419 CURVE SMOOTH",
"2134 448 OFFCURVE",
"2161 512 OFFCURVE",
"2133 579 CURVE SMOOTH"
);
},
{
closed = 1;
nodes = (
"2181 77 OFFCURVE",
"2219 136 OFFCURVE",
"2198 217 CURVE SMOOTH",
"2183 276 OFFCURVE",
"2139 316 OFFCURVE",
"2086 334 CURVE SMOOTH",
"2031 353 OFFCURVE",
"1969 349 OFFCURVE",
"1919 349 CURVE",
"1919 69 LINE",
"1946 46 OFFCURVE",
"2042 33 OFFCURVE",
"2109 54 CURVE SMOOTH"
);
},
{
closed = 1;
nodes = (
"2020 0 OFFCURVE",
"1972 0 OFFCURVE",
"1744 0 CURVE",
"1744 32 LINE",
"1763 32 OFFCURVE",
"1802 35 OFFCURVE",
"1832 48 CURVE",
"1832 656 LINE",
"1802 666 OFFCURVE",
"1765 664 OFFCURVE",
"1747 663 CURVE",
"1744 695 LINE",
"1901 707 OFFCURVE",
"1961 712 OFFCURVE",
"2030 712 CURVE SMOOTH",
"2134 712 OFFCURVE",
"2189 669 OFFCURVE",
"2214 613 CURVE SMOOTH",
"2253 526 OFFCURVE",
"2202 432 OFFCURVE",
"2130 398 CURVE",
"2179 382 OFFCURVE",
"2267 332 OFFCURVE",
"2289 238 CURVE SMOOTH",
"2313 137 OFFCURVE",
"2241 0 OFFCURVE",
"2054 0 CURVE SMOOTH"
);
},
{
closed = 1;
nodes = (
"2454 1027 LINE",
"2454 -360 LINE",
"1584 -360 LINE",
"1584 1027 LINE"
);
},
{
closed = 1;
nodes = (
"1504 -440 LINE",
"2534 -440 LINE",
"2534 1107 LINE",
"1504 1107 LINE"
);
},
{
closed = 1;
nodes = (
"1604 -340 LINE",
"2434 -340 LINE",
"2434 1007 LINE",
"1604 1007 LINE"
);
}
);
};
guideLines = (
{
angle = 90;
position = "{344, 0}";
},
{
angle = 90;
position = "{204, 0}";
},
{
angle = 90;
position = "{1034, 0}";
},
{
angle = 90;
position = "{894, 0}";
}
);
layerId = "6D97EE47-94AA-478E-ABFB-936E6C32B491";
paths = (
{
closed = 1;
nodes = (
"1058 1037 LINE",
"1058 -360 LINE",
"180 -360 LINE",
"180 1037 LINE"
);
},
{
closed = 1;
nodes = (
"100 -440 LINE",
"1138 -440 LINE",
"1138 1117 LINE",
"100 1117 LINE"
);
},
{
closed = 1;
nodes = (
"204 -336 LINE",
"1034 -336 LINE",
"1034 1013 LINE",
"204 1013 LINE"
);
},
{
closed = 1;
nodes = (
"344 30 LINE",
"363 30 OFFCURVE",
"402 33 OFFCURVE",
"432 46 CURVE",
"432 669 LINE",
"400 676 OFFCURVE",
"365 676 OFFCURVE",
"347 674 CURVE",
"344 704 LINE",
"501 716 OFFCURVE",
"561 721 OFFCURVE",
"630 721 CURVE SMOOTH",
"734 721 OFFCURVE",
"789 678 OFFCURVE",
"814 622 CURVE SMOOTH",
"853 535 OFFCURVE",
"802 432 OFFCURVE",
"730 398 CURVE",
"779 382 OFFCURVE",
"867 332 OFFCURVE",
"889 238 CURVE SMOOTH",
"914 137 OFFCURVE",
"841 0 OFFCURVE",
"654 0 CURVE SMOOTH",
"519 0 LINE",
"344 0 LINE"
);
},
{
closed = 1;
nodes = (
"546 46 OFFCURVE",
"642 33 OFFCURVE",
"709 54 CURVE SMOOTH",
"781 77 OFFCURVE",
"818 136 OFFCURVE",
"798 217 CURVE SMOOTH",
"783 276 OFFCURVE",
"739 316 OFFCURVE",
"686 334 CURVE SMOOTH",
"632 354 OFFCURVE",
"569 349 OFFCURVE",
"519 349 CURVE",
"519 69 LINE"
);
},
{
closed = 1;
nodes = (
"543 394 OFFCURVE",
"643 388 OFFCURVE",
"690 419 CURVE SMOOTH",
"734 447 OFFCURVE",
"761 521 OFFCURVE",
"733 588 CURVE SMOOTH",
"698 671 OFFCURVE",
"625 686 OFFCURVE",
"519 673 CURVE",
"519 395 LINE"
);
}
);
width = 1238;
}
);
},
{
glyphname = C.ss10;
lastChange = "2020-07-04 20:46:02 +0000";
layers = (
{
background = {
components = (
{
name = C;
transform = "{1, 0, 0, 1, 295, 0}";
}
);
};
guideLines = (
{
angle = 90;
position = "{344, 0}";
},
{
angle = 90;
position = "{204, 0}";
},
{
angle = 90;
position = "{1151, 0}";
},
{
angle = 90;
position = "{1011, 0}";
}
);
layerId = "6D97EE47-94AA-478E-ABFB-936E6C32B491";
paths = (
{
closed = 1;
nodes = (
"1175 1037 LINE",
"1175 -360 LINE",
"180 -360 LINE",
"180 1037 LINE"
);
},
{
closed = 1;
nodes = (
"100 -440 LINE",
"1255 -440 LINE",
"1255 1117 LINE",
"100 1117 LINE"
);
},
{
closed = 1;
nodes = (
"204 -336 LINE",
"1151 -336 LINE",
"1151 1013 LINE",
"204 1013 LINE"
);
},
{
closed = 1;
nodes = (
"1011 161 LINE",
"933 13 LINE",
"609 -73 OFFCURVE",
"409 61 OFFCURVE",
"357 257 CURVE SMOOTH",
"304 453 OFFCURVE",
"426 656 OFFCURVE",
"623 708 CURVE SMOOTH",
"744 741 OFFCURVE",
"881 706 OFFCURVE",
"948 688 CURVE",
"968 546 LINE",
"938 540 LINE",
"890 667 OFFCURVE",
"753 692 OFFCURVE",
"635 661 CURVE SMOOTH",
"487 622 OFFCURVE",
"409 456 OFFCURVE",
"454 283 CURVE SMOOTH",
"495 123 OFFCURVE",
"649 5 OFFCURVE",
"800 38 CURVE SMOOTH",
"883 56 OFFCURVE",
"924 87 OFFCURVE",
"981 176 CURVE"
);
}
);
width = 1355;
}
);
},
{
glyphname = D.ss10;
lastChange = "2020-07-05 13:51:58 +0000";
layers = (
{
background = {
components = (
{
name = D;
transform = "{1, 0, 0, 1, 294, 0}";
}
);
};
guideLines = (
{
angle = 90;
position = "{344, 0}";
},
{
angle = 90;
position = "{204, 0}";
},
{
angle = 90;
position = "{1216, 0}";
},
{
angle = 90;
position = "{1076, 0}";
}
);
layerId = "6D97EE47-94AA-478E-ABFB-936E6C32B491";
paths = (
{
closed = 1;
nodes = (
"1240 1037 LINE",
"1240 -360 LINE",
"180 -360 LINE",
"180 1037 LINE"
);
},
{
closed = 1;
nodes = (
"100 -440 LINE",
"1320 -440 LINE",
"1320 1117 LINE",
"100 1117 LINE"
);
},
{
closed = 1;
nodes = (
"204 -336 LINE",
"1216 -336 LINE",
"1216 1013 LINE",
"204 1013 LINE"
);
},
{
closed = 1;
nodes = (
"344 30 LINE",
"363 30 OFFCURVE",
"402 33 OFFCURVE",
"432 46 CURVE",
"432 664 LINE",
"400 671 OFFCURVE",
"365 671 OFFCURVE",
"347 669 CURVE",
"344 699 LINE",
"435 707 OFFCURVE",
"531 721 OFFCURVE",
"626 721 CURVE SMOOTH",
"691 721 OFFCURVE",
"755 714 OFFCURVE",
"818 696 CURVE SMOOTH",
"935 663 OFFCURVE",
"1030 578 OFFCURVE",
"1064 455 CURVE SMOOTH",
"1072 426 OFFCURVE",
"1076 397 OFFCURVE",
"1076 364 CURVE SMOOTH",
"1076 203 OFFCURVE",
"952 62 OFFCURVE",
"785 17 CURVE SMOOTH",
"745 7 OFFCURVE",
"667 0 OFFCURVE",
"604 0 CURVE SMOOTH",
"519 0 LINE",
"344 0 LINE"
);
},
{
closed = 1;
nodes = (
"553 56 OFFCURVE",
"596 47 OFFCURVE",
"647 47 CURVE SMOOTH",
"685 47 OFFCURVE",
"727 52 OFFCURVE",
"773 64 CURVE SMOOTH",
"895 97 OFFCURVE",
"978 204 OFFCURVE",
"978 337 CURVE SMOOTH",
"978 365 OFFCURVE",
"975 398 OFFCURVE",
"967 428 CURVE SMOOTH",
"929 569 OFFCURVE",
"802 674 OFFCURVE",
"604 674 CURVE SMOOTH",
"577 674 OFFCURVE",
"549 672 OFFCURVE",
"519 668 CURVE",
"519 69 LINE"
);
}
);
width = 1420;
}
);
},
{
glyphname = E.ss10;
lastChange = "2020-11-15 21:20:57 +0000";
layers = (
{
background = {
components = (
{
name = E;
transform = "{1, 0, 0, 1, 294, 0}";
}
);
};
guideLines = (
{
angle = 90;
position = "{344, 0}";
},
{
angle = 90;
position = "{204, 0}";
},
{
angle = 90;
position = "{1007, 0}";
},
{
angle = 90;
position = "{867, 0}";
}
);
layerId = "6D97EE47-94AA-478E-ABFB-936E6C32B491";
paths = (
{
closed = 1;
nodes = (
"1031 1037 LINE",
"1031 -360 LINE",
"180 -360 LINE",
"180 1037 LINE"
);
},
{
closed = 1;
nodes = (
"100 -440 LINE",
"1111 -440 LINE",
"1111 1117 LINE",
"100 1117 LINE"
);
},
{
closed = 1;
nodes = (
"204 -336 LINE",
"1007 -336 LINE",
"1007 1013 LINE",
"204 1013 LINE"
);
},
{
closed = 1;
nodes = (
"344 30 LINE",
"363 30 OFFCURVE",
"402 33 OFFCURVE",
"432 46 CURVE",
"432 661 LINE",
"402 674 OFFCURVE",
"363 677 OFFCURVE",
"344 677 CURVE",
"344 707 LINE",
"809 707 LINE",
"814 571 LINE",
"782 569 LINE",
"780 592 OFFCURVE",
"775 626 OFFCURVE",
"762 656 CURVE",
"519 656 LINE",
"519 393 LINE",
"728 393 LINE",
"735 419 OFFCURVE",
"737 447 OFFCURVE",
"737 463 CURVE",
"769 463 LINE",
"769 263 LINE",
"737 263 LINE",
"737 280 OFFCURVE",
"735 314 OFFCURVE",
"725 342 CURVE",
"519 342 LINE",
"519 51 LINE",
"782 51 LINE",
"808 85 OFFCURVE",
"832 146 OFFCURVE",
"835 159 CURVE",
"867 151 LINE",
"834 0 LINE",
"344 0 LINE"
);
}
);
width = 1211;
}
);
},
{
glyphname = F.ss10;
lastChange = "2020-11-15 21:17:34 +0000";
layers = (
{
background = {
components = (
{
name = F;
transform = "{1, 0, 0, 1, 294, 0}";
}
);
};
guideLines = (
{
angle = 90;
position = "{344, 0}";
},
{
angle = 90;
position = "{204, 0}";
},
{
angle = 90;
position = "{954, 0}";
},
{
angle = 90;
position = "{814, 0}";
}
);
layerId = "6D97EE47-94AA-478E-ABFB-936E6C32B491";
paths = (
{
closed = 1;
nodes = (
"978 1037 LINE",
"978 -360 LINE",
"180 -360 LINE",
"180 1037 LINE"
);
},
{
closed = 1;
nodes = (
"100 -440 LINE",
"1058 -440 LINE",
"1058 1117 LINE",
"100 1117 LINE"
);
},
{
closed = 1;
nodes = (
"204 -336 LINE",
"954 -336 LINE",
"954 1013 LINE",
"204 1013 LINE"
);
},
{
closed = 1;
nodes = (
"344 30 LINE",
"363 30 OFFCURVE",
"402 33 OFFCURVE",
"432 46 CURVE",
"432 661 LINE",
"402 674 OFFCURVE",
"363 677 OFFCURVE",
"344 677 CURVE",
"344 707 LINE",
"809 707 LINE",
"814 571 LINE",
"782 569 LINE",
"780 592 OFFCURVE",
"775 626 OFFCURVE",
"762 656 CURVE",
"519 656 LINE",
"519 382 LINE",
"724 382 LINE",
"732 408 OFFCURVE",
"734 437 OFFCURVE",
"734 452 CURVE",
"764 452 LINE",
"764 252 LINE",
"734 252 LINE",
"734 269 OFFCURVE",
"732 303 OFFCURVE",
"722 331 CURVE",
"519 331 LINE",
"519 46 LINE",
"552 33 OFFCURVE",
"595 30 OFFCURVE",
"616 30 CURVE",
"616 0 LINE",
"344 0 LINE"
);
}
);
width = 1158;
}
);
},
{
glyphname = G.ss10;
lastChange = "2020-07-04 20:59:08 +0000";
layers = (
{
background = {
components = (
{
alignment = -1;
name = G;
transform = "{1, 0, 0, 1, 294, 0}";
}
);
};
components = (
{
alignment = -1;
name = G;
transform = "{1, 0, 0, 1, 294, 0}";
}
);
guideLines = (
{
angle = 90;
position = "{344, 0}";
},
{
angle = 90;
position = "{204, 0}";
},
{
angle = 90;
position = "{1194, 0}";
},
{
angle = 90;
position = "{1054, 0}";
}
);
layerId = "6D97EE47-94AA-478E-ABFB-936E6C32B491";
paths = (
{
closed = 1;
nodes = (
"1218 1037 LINE",
"1218 -360 LINE",
"180 -360 LINE",
"180 1037 LINE"
);
},
{
closed = 1;
nodes = (
"100 -440 LINE",
"1298 -440 LINE",
"1298 1117 LINE",
"100 1117 LINE"
);
},
{
closed = 1;
nodes = (
"204 -336 LINE",
"1194 -336 LINE",
"1194 1013 LINE",
"204 1013 LINE"
);
}
);
width = 1398;
}
);
},
{
glyphname = H.ss10;
lastChange = "2020-07-04 21:00:39 +0000";
layers = (
{
background = {
components = (
{
name = H;
transform = "{1, 0, 0, 1, 294, 0}";
}
);
};
guideLines = (
{
angle = 90;
position = "{344, 0}";
},
{
angle = 90;
position = "{204, 0}";
},
{
angle = 90;
position = "{1234, 0}";
},
{
angle = 90;
position = "{1094, 0}";
}
);
layerId = "6D97EE47-94AA-478E-ABFB-936E6C32B491";
paths = (
{
closed = 1;
nodes = (
"1258 1037 LINE",
"1258 -360 LINE",
"180 -360 LINE",
"180 1037 LINE"
);
},
{
closed = 1;
nodes = (
"100 -440 LINE",
"1338 -440 LINE",
"1338 1117 LINE",
"100 1117 LINE"
);
},
{
closed = 1;
nodes = (
"204 -336 LINE",
"1234 -336 LINE",
"1234 1013 LINE",
"204 1013 LINE"
);
},
{
closed = 1;
nodes = (
"344 30 LINE",
"363 30 OFFCURVE",
"402 33 OFFCURVE",
"432 46 CURVE",
"432 661 LINE",
"402 674 OFFCURVE",
"363 677 OFFCURVE",
"344 677 CURVE",
"344 707 LINE",
"607 707 LINE",
"607 677 LINE",
"588 677 OFFCURVE",
"549 674 OFFCURVE",
"519 661 CURVE",
"519 399 LINE",
"919 399 LINE",
"919 661 LINE",
"889 674 OFFCURVE",
"850 677 OFFCURVE",
"831 677 CURVE",
"831 707 LINE",
"1094 707 LINE",
"1094 677 LINE",
"1075 677 OFFCURVE",
"1036 674 OFFCURVE",
"1006 661 CURVE",
"1006 46 LINE",
"1036 33 OFFCURVE",
"1075 30 OFFCURVE",
"1094 30 CURVE",
"1094 0 LINE",
"831 0 LINE",
"831 30 LINE",
"850 30 OFFCURVE",
"889 33 OFFCURVE",
"919 46 CURVE",
"919 348 LINE",
"519 348 LINE",
"519 46 LINE",
"549 33 OFFCURVE",
"588 30 OFFCURVE",
"607 30 CURVE",
"607 0 LINE",
"344 0 LINE"
);
}
);
width = 1438;
}
);
},
{
glyphname = I.ss10;
lastChange = "2020-07-05 14:29:12 +0000";
layers = (
{
background = {
components = (
{
name = I;
transform = "{1, 0, 0, 1, 294, 0}";
}
);
};
components = (
{
name = I;
transform = "{1, 0, 0, 1, 294, 0}";
}
);
guideLines = (
{
angle = 90;
position = "{344, 0}";
},
{
angle = 90;
position = "{204, 0}";
},
{
angle = 90;
position = "{747, 0}";
},
{
angle = 90;
position = "{607, 0}";
},
{
alignment = center;
position = "{431, 1013}";
},
{
alignment = center;
position = "{431, 707}";
},
{
alignment = center;
position = "{431, 0}";
},
{
alignment = center;
position = "{431, -336}";
}
);
layerId = "6D97EE47-94AA-478E-ABFB-936E6C32B491";
paths = (
{
closed = 1;
nodes = (
"771 1037 LINE",
"771 -360 LINE",
"180 -360 LINE",
"180 1037 LINE"
);
},
{
closed = 1;
nodes = (
"100 -440 LINE",
"851 -440 LINE",
"851 1117 LINE",
"100 1117 LINE"
);
},
{
closed = 1;
nodes = (
"204 -336 LINE",
"747 -336 LINE",
"747 1013 LINE",
"204 1013 LINE"
);
}
);
width = 951;
}
);
},
{
glyphname = J.ss10;
lastChange = "2020-10-22 16:29:28 +0000";
layers = (
{
background = {
components = (
{
name = serifUC;
transform = "{-1, 0, 0, -1, 474, 707}";
},
{
name = serifUC;
transform = "{1, 0, 0, -1, 562, 707}";
}
);
paths = (
{
closed = 1;
nodes = (
"562 90 LINE",
"490 -76 OFFCURVE",
"346 -147 OFFCURVE",
"320 -157 CURVE",
"302 -131 LINE",
"352 -99 OFFCURVE",
"443 -28 OFFCURVE",
"474 90 CURVE"
);
},
{
closed = 1;
nodes = (
"474 90 LINE",
"474 707 LINE",
"562 707 LINE",
"562 90 LINE"
);
}
);
};
guideLines = (
{
angle = 90;
position = "{344, 0}";
},
{
angle = 90;
position = "{204, 0}";
},
{
angle = 90;
position = "{790, 0}";
},
{
angle = 90;
position = "{650, 0}";
}
);
layerId = "6D97EE47-94AA-478E-ABFB-936E6C32B491";
paths = (
{
closed = 1;
nodes = (
"814 1037 LINE",
"814 -360 LINE",
"180 -360 LINE",
"180 1037 LINE"
);
},
{
closed = 1;
nodes = (
"100 -440 LINE",
"894 -440 LINE",
"894 1117 LINE",
"100 1117 LINE"
);
},
{
closed = 1;
nodes = (
"204 -336 LINE",
"790 -336 LINE",
"790 1013 LINE",
"204 1013 LINE"
);
},
{
closed = 1;
nodes = (
"381 -130 OFFCURVE",
"439 -54 OFFCURVE",
"464 41 CURVE SMOOTH",
"471 67 OFFCURVE",
"474 94 OFFCURVE",
"474 120 CURVE SMOOTH",
"474 661 LINE",
"444 674 OFFCURVE",
"405 677 OFFCURVE",
"386 677 CURVE",
"386 707 LINE",
"650 707 LINE",
"650 677 LINE",
"631 677 OFFCURVE",
"592 674 OFFCURVE",
"562 661 CURVE",
"562 100 LINE",
"519 -75 OFFCURVE",
"390 -171 OFFCURVE",
"366 -186 CURVE",
"344 -163 LINE"
);
}
);
width = 994;
}
);
},
{
glyphname = K.ss10;
lastChange = "2020-07-04 21:17:33 +0000";
layers = (
{
anchors = (
{
name = BOTTOM;
position = "{650, 0}";
}
);
background = {
components = (
{
name = K;
transform = "{1, 0, 0, 1, 294, 0}";
}
);
};
guideLines = (
{
angle = 90;
position = "{344, 0}";
},
{
angle = 90;
position = "{204, 0}";
},
{
angle = 90;
position = "{1146, 0}";
},
{
angle = 90;
position = "{1006, 0}";
}
);
layerId = "6D97EE47-94AA-478E-ABFB-936E6C32B491";
paths = (
{
closed = 1;
nodes = (
"1170 1037 LINE",
"1170 -360 LINE",
"180 -360 LINE",
"180 1037 LINE"
);
},
{
closed = 1;
nodes = (
"100 -440 LINE",
"1250 -440 LINE",
"1250 1117 LINE",
"100 1117 LINE"
);
},
{
closed = 1;
nodes = (
"204 -336 LINE",
"1146 -336 LINE",
"1146 1013 LINE",
"204 1013 LINE"
);
},
{
closed = 1;
nodes = (
"344 30 LINE",
"363 30 OFFCURVE",
"402 33 OFFCURVE",
"432 46 CURVE",
"432 661 LINE",
"402 674 OFFCURVE",
"363 677 OFFCURVE",
"344 677 CURVE",
"344 707 LINE",
"607 707 LINE",
"607 677 LINE",
"588 677 OFFCURVE",
"549 674 OFFCURVE",
"519 661 CURVE",
"519 46 LINE",
"550 33 OFFCURVE",
"591 30 OFFCURVE",
"611 30 CURVE",
"611 0 LINE",
"344 0 LINE"
);
},
{
closed = 1;
nodes = (
"806 661 LINE",
"781 674 OFFCURVE",
"749 677 OFFCURVE",
"734 677 CURVE",
"734 707 LINE",
"962 707 LINE",
"962 677 LINE",
"943 677 OFFCURVE",
"905 674 OFFCURVE",
"875 661 CURVE",
"625 392 LINE",
"668 333 OFFCURVE",
"769 197 OFFCURVE",
"832 127 CURVE SMOOTH",
"885 68 OFFCURVE",
"917 27 OFFCURVE",
"1006 0 CURVE",
"999 -30 LINE",
"862 -29 OFFCURVE",
"819 7 OFFCURVE",
"763 65 CURVE SMOOTH",
"712 117 OFFCURVE",
"569 331 OFFCURVE",
"537 373 CURVE"
);
}
);
width = 1350;
}
);
},
{
glyphname = L.ss10;
lastChange = "2020-07-04 21:11:31 +0000";
layers = (
{
background = {
components = (
{
name = serifUC;
transform = "{-1, 0, 0, 1, 1532, 0}";
},
{
name = serifUC;
transform = "{-1, 0, 0, -1, 1532, 707}";
},
{
name = serifUC;
transform = "{1, 0, 0, -1, 1619, 707}";
},
{
name = serifUC;
transform = "{-1, 0, 0, 1, 2532, 0}";
},
{
name = serifUC;
transform = "{-1, 0, 0, -1, 2532, 707}";
},
{
name = serifUC;
transform = "{1, 0, 0, -1, 2619, 707}";
},
{
name = L;
transform = "{1, 0, 0, 1, 294, 0}";
}
);
paths = (
{
closed = 1;
nodes = (
"1344 -200 LINE",
"2080 -200 LINE",
"2080 937 LINE",
"1344 937 LINE"
);
},
{
closed = 1;
nodes = (
"1532 707 LINE",
"1619 707 LINE",
"1619 51 LINE",
"1887 51 LINE",
"1910 77 OFFCURVE",
"1941 139 OFFCURVE",
"1949 158 CURVE",
"1980 148 LINE",
"1934 0 LINE",
"1532 0 LINE"
);
},
{
closed = 1;
nodes = (
"1684 347 OFFCURVE",
"1698 352 OFFCURVE",
"1716 357 CURVE SMOOTH",
"1728 360 OFFCURVE",
"1738 364 OFFCURVE",
"1747 378 CURVE",
"1746 358 OFFCURVE",
"1740 339 OFFCURVE",
"1727 331 CURVE SMOOTH",
"1713 322 OFFCURVE",
"1691 325 OFFCURVE",
"1688 334 CURVE SMOOTH"
);
},
{
closed = 1;
nodes = (
"1392 597 OFFCURVE",
"1395 612 OFFCURVE",
"1399 630 CURVE SMOOTH",
"1402 642 OFFCURVE",
"1404 653 OFFCURVE",
"1397 667 CURVE",
"1414 656 OFFCURVE",
"1427 642 OFFCURVE",
"1427 627 CURVE SMOOTH",
"1427 610 OFFCURVE",
"1415 592 OFFCURVE",
"1405 594 CURVE SMOOTH"
);
},
{
closed = 1;
nodes = (
"1898 611 OFFCURVE",
"1911 623 OFFCURVE",
"1924 636 CURVE SMOOTH",
"1933 645 OFFCURVE",
"1941 652 OFFCURVE",
"1944 668 CURVE",
"1951 649 OFFCURVE",
"1954 630 OFFCURVE",
"1945 618 CURVE SMOOTH",
"1935 604 OFFCURVE",
"1916 596 OFFCURVE",
"1908 603 CURVE SMOOTH"
);
},
{
closed = 1;
nodes = (
"1413 360 OFFCURVE",
"1426 345 OFFCURVE",
"1437 331 CURVE SMOOTH",
"1445 321 OFFCURVE",
"1451 312 OFFCURVE",
"1467 308 CURVE",
"1447 303 OFFCURVE",
"1428 301 OFFCURVE",
"1417 311 CURVE SMOOTH",
"1404 323 OFFCURVE",
"1398 342 OFFCURVE",
"1405 350 CURVE SMOOTH"
);
},
{
closed = 1;
nodes = (
"1821 253 OFFCURVE",
"1807 240 OFFCURVE",
"1794 227 CURVE SMOOTH",
"1785 218 OFFCURVE",
"1777 212 OFFCURVE",
"1774 195 CURVE",
"1767 215 OFFCURVE",
"1764 233 OFFCURVE",
"1773 245 CURVE SMOOTH",
"1783 259 OFFCURVE",
"1802 267 OFFCURVE",
"1810 261 CURVE SMOOTH"
);
},
{
closed = 1;
nodes = (
"2080 110 LINE",
"2030 108 OFFCURVE",
"1956 244 OFFCURVE",
"1922 275 CURVE SMOOTH",
"1890 305 OFFCURVE",
"1843 299 OFFCURVE",
"1811 258 CURVE",
"1807 262 LINE",
"1840 306 OFFCURVE",
"1891 312 OFFCURVE",
"1926 279 CURVE SMOOTH",
"1959 247 OFFCURVE",
"2034 114 OFFCURVE",
"2080 116 CURVE"
);
},
{
closed = 1;
nodes = (
"2344 -200 LINE",
"3080 -200 LINE",
"3080 937 LINE",
"2344 937 LINE"
);
},
{
closed = 1;
nodes = (
"2532 707 LINE",
"2619 707 LINE",
"2619 51 LINE",
"2887 51 LINE",
"2910 77 OFFCURVE",
"2941 139 OFFCURVE",
"2949 158 CURVE",
"2980 148 LINE",
"2934 0 LINE",
"2532 0 LINE"
);
},
{
closed = 1;
nodes = (
"2684 347 OFFCURVE",
"2698 352 OFFCURVE",
"2716 357 CURVE SMOOTH",
"2728 360 OFFCURVE",
"2738 364 OFFCURVE",
"2747 378 CURVE",
"2746 358 OFFCURVE",
"2740 339 OFFCURVE",
"2727 331 CURVE SMOOTH",
"2713 322 OFFCURVE",
"2691 325 OFFCURVE",
"2688 334 CURVE SMOOTH"
);
},
{
closed = 1;
nodes = (
"2392 597 OFFCURVE",
"2395 612 OFFCURVE",
"2399 630 CURVE SMOOTH",
"2402 642 OFFCURVE",
"2404 653 OFFCURVE",
"2397 667 CURVE",
"2414 656 OFFCURVE",
"2427 642 OFFCURVE",
"2427 627 CURVE SMOOTH",
"2427 610 OFFCURVE",
"2415 592 OFFCURVE",
"2405 594 CURVE SMOOTH"
);
},
{
closed = 1;
nodes = (
"2879 597 OFFCURVE",
"2900 618 OFFCURVE",
"2922 639 CURVE SMOOTH",
"2938 654 OFFCURVE",
"2952 667 OFFCURVE",
"2957 694 CURVE",
"2969 661 OFFCURVE",
"2974 629 OFFCURVE",
"2958 608 CURVE SMOOTH",
"2940 584 OFFCURVE",
"2908 570 OFFCURVE",
"2895 582 CURVE SMOOTH"
);
},
{
closed = 1;
nodes = (
"2413 360 OFFCURVE",
"2426 345 OFFCURVE",
"2437 331 CURVE SMOOTH",
"2445 321 OFFCURVE",
"2451 312 OFFCURVE",
"2467 308 CURVE",
"2447 303 OFFCURVE",
"2428 301 OFFCURVE",
"2417 311 CURVE SMOOTH",
"2404 323 OFFCURVE",
"2398 342 OFFCURVE",
"2405 350 CURVE SMOOTH"
);
},
{
closed = 1;
nodes = (
"2821 253 OFFCURVE",
"2807 240 OFFCURVE",
"2794 227 CURVE SMOOTH",
"2785 218 OFFCURVE",
"2777 212 OFFCURVE",
"2774 195 CURVE",
"2767 215 OFFCURVE",
"2764 233 OFFCURVE",
"2773 245 CURVE SMOOTH",
"2783 259 OFFCURVE",
"2802 267 OFFCURVE",
"2810 261 CURVE SMOOTH"
);
},
{
closed = 1;
nodes = (
"2888 627 OFFCURVE",
"2867 648 OFFCURVE",
"2846 670 CURVE SMOOTH",
"2831 686 OFFCURVE",
"2818 700 OFFCURVE",
"2791 705 CURVE",
"2824 717 OFFCURVE",
"2856 722 OFFCURVE",
"2877 706 CURVE SMOOTH",
"2901 688 OFFCURVE",
"2915 656 OFFCURVE",
"2903 643 CURVE SMOOTH"
);
},
{
closed = 1;
nodes = (
"2962 572 OFFCURVE",
"2972 588 OFFCURVE",
"2981 604 CURVE SMOOTH",
"2988 617 OFFCURVE",
"2995 627 OFFCURVE",
"2994 644 CURVE",
"3007 625 OFFCURVE",
"3015 607 OFFCURVE",
"3009 591 CURVE SMOOTH",
"3002 573 OFFCURVE",
"2984 559 OFFCURVE",
"2974 565 CURVE SMOOTH"
);
},
{
closed = 1;
nodes = (
"2964 495 OFFCURVE",
"2950 515 OFFCURVE",
"2937 533 CURVE SMOOTH",
"2927 547 OFFCURVE",
"2918 560 OFFCURVE",
"2899 568 CURVE",
"2927 572 OFFCURVE",
"2951 572 OFFCURVE",
"2966 557 CURVE SMOOTH",
"2983 540 OFFCURVE",
"2987 514 OFFCURVE",
"2976 505 CURVE SMOOTH"
);
},
{
closed = 1;
nodes = (
"2839 576 OFFCURVE",
"2837 597 OFFCURVE",
"2849 611 CURVE SMOOTH",
"2860 623 OFFCURVE",
"2876 627 OFFCURVE",
"2896 627 CURVE",
"2884 618 OFFCURVE",
"2878 609 OFFCURVE",
"2874 597 CURVE SMOOTH",
"2868 580 OFFCURVE",
"2859 565 OFFCURVE",
"2848 571 CURVE SMOOTH"
);
}
);
};
guideLines = (
{
angle = 90;
position = "{344, 0}";
},
{
angle = 90;
position = "{204, 0}";
},
{
angle = 90;
position = "{1020, 0}";
},
{
angle = 90;
position = "{880, 0}";
}
);
layerId = "6D97EE47-94AA-478E-ABFB-936E6C32B491";
paths = (
{
closed = 1;
nodes = (
"1044 1037 LINE",
"1044 -360 LINE",
"180 -360 LINE",
"180 1037 LINE"
);
},
{
closed = 1;
nodes = (
"100 -440 LINE",
"1124 -440 LINE",
"1124 1117 LINE",
"100 1117 LINE"
);
},
{
closed = 1;
nodes = (
"204 -336 LINE",
"1020 -336 LINE",
"1020 1013 LINE",
"204 1013 LINE"
);
},
{
closed = 1;
nodes = (
"344 30 LINE",
"363 30 OFFCURVE",
"402 33 OFFCURVE",
"432 46 CURVE",
"432 661 LINE",
"402 674 OFFCURVE",
"363 677 OFFCURVE",
"344 677 CURVE",
"344 707 LINE",
"607 707 LINE",
"607 677 LINE",
"588 677 OFFCURVE",
"549 674 OFFCURVE",
"519 661 CURVE",
"519 51 LINE",
"787 51 LINE",
"810 77 OFFCURVE",
"841 139 OFFCURVE",
"849 158 CURVE",
"880 148 LINE",
"834 0 LINE",
"344 0 LINE"
);
}
);
width = 1224;
}
);
},
{
glyphname = M.ss10;
lastChange = "2021-01-14 15:10:10 +0000";
layers = (
{
background = {
components = (
{
name = M;
transform = "{1, 0, 0, 1, 304, 0}";
}
);
};
guideLines = (
{
angle = 90;
position = "{344, 0}";
},
{
angle = 90;
position = "{204, 0}";
},
{
angle = 90;
position = "{1343, 0}";
},
{
angle = 90;
position = "{1203, 0}";
}
);
layerId = "6D97EE47-94AA-478E-ABFB-936E6C32B491";
paths = (
{
closed = 1;
nodes = (
"1367 1037 LINE",
"1367 -360 LINE",
"180 -360 LINE",
"180 1037 LINE"
);
},
{
closed = 1;
nodes = (
"100 -440 LINE",
"1447 -440 LINE",
"1447 1117 LINE",
"100 1117 LINE"
);
},
{
closed = 1;
nodes = (
"204 -336 LINE",
"1343 -336 LINE",
"1343 1013 LINE",
"204 1013 LINE"
);
},
{
closed = 1;
nodes = (
"342 30 LINE",
"361 30 OFFCURVE",
"400 33 OFFCURVE",
"430 46 CURVE",
"457 661 LINE",
"427 674 OFFCURVE",
"388 677 OFFCURVE",
"369 677 CURVE",
"369 707 LINE",
"547 707 LINE",
"782 133 LINE",
"750 134 LINE",
"1031 707 LINE",
"1178 707 LINE",
"1178 677 LINE",
"1159 677 OFFCURVE",
"1121 674 OFFCURVE",
"1091 661 CURVE",
"1115 46 LINE",
"1145 33 OFFCURVE",
"1184 30 OFFCURVE",
"1203 30 CURVE",
"1203 0 LINE",
"939 0 LINE",
"939 30 LINE",
"958 30 OFFCURVE",
"997 33 OFFCURVE",
"1027 46 CURVE",
"1008 544 LINE",
"741 0 LINE",
"509 568 LINE",
"486 46 LINE",
"516 33 OFFCURVE",
"555 30 OFFCURVE",
"574 30 CURVE",
"574 0 LINE",
"342 0 LINE"
);
}
);
width = 1547;
}
);
},
{
glyphname = N.ss10;
lastChange = "2021-01-14 15:17:25 +0000";
layers = (
{
background = {
components = (
{
name = N;
transform = "{1, 0, 0, 1, 304, 0}";
}
);
};
guideLines = (
{
angle = 90;
position = "{344, 0}";
},
{
angle = 90;
position = "{204, 0}";
},
{
angle = 90;
position = "{1210, 0}";
},
{
angle = 90;
position = "{1070, 0}";
}
);
layerId = "6D97EE47-94AA-478E-ABFB-936E6C32B491";
paths = (
{
closed = 1;
nodes = (
"1234 1037 LINE",
"1234 -360 LINE",
"180 -360 LINE",
"180 1037 LINE"
);
},
{
closed = 1;
nodes = (
"100 -440 LINE",
"1314 -440 LINE",
"1314 1117 LINE",
"100 1117 LINE"
);
},
{
closed = 1;
nodes = (
"204 -336 LINE",
"1210 -336 LINE",
"1210 1013 LINE",
"204 1013 LINE"
);
},
{
closed = 1;
nodes = (
"344 30 LINE",
"363 30 OFFCURVE",
"402 33 OFFCURVE",
"432 46 CURVE",
"432 661 LINE",
"402 674 OFFCURVE",
"363 677 OFFCURVE",
"344 677 CURVE",
"344 707 LINE",
"503 707 LINE",
"926 147 LINE",
"926 661 LINE",
"896 674 OFFCURVE",
"857 677 OFFCURVE",
"838 677 CURVE",
"838 707 LINE",
"1070 707 LINE",
"1070 677 LINE",
"1051 677 OFFCURVE",
"1012 674 OFFCURVE",
"982 661 CURVE",
"982 -14 LINE",
"937 -14 LINE",
"488 582 LINE",
"488 46 LINE",
"518 33 OFFCURVE",
"557 30 OFFCURVE",
"576 30 CURVE",
"576 0 LINE",
"344 0 LINE"
);
}
);
width = 1414;
}
);
},
{
glyphname = O.ss10;
lastChange = "2020-07-04 21:17:54 +0000";
layers = (
{
background = {
components = (
{
name = O;
transform = "{1, 0, 0, 1, 294, 0}";
}
);
};
components = (
{
name = O;
transform = "{1, 0, 0, 1, 294, 0}";
}
);
guideLines = (
{
angle = 90;
position = "{344, 0}";
},
{
angle = 90;
position = "{204, 0}";
},
{
angle = 90;
position = "{1228, 0}";
},
{
angle = 90;
position = "{1088, 0}";
}
);
layerId = "6D97EE47-94AA-478E-ABFB-936E6C32B491";
paths = (
{
closed = 1;
nodes = (
"1252 1037 LINE",
"1252 -360 LINE",
"180 -360 LINE",
"180 1037 LINE"
);
},
{
closed = 1;
nodes = (
"100 -440 LINE",
"1332 -440 LINE",
"1332 1117 LINE",
"100 1117 LINE"
);
},
{
closed = 1;
nodes = (
"204 -336 LINE",
"1228 -336 LINE",
"1228 1013 LINE",
"204 1013 LINE"
);
}
);
width = 1432;
}
);
},
{
glyphname = P.ss10;
lastChange = "2020-07-05 13:52:22 +0000";
layers = (
{
background = {
components = (
{
name = P;
transform = "{1, 0, 0, 1, 294, 0}";
}
);
};
guideLines = (
{
angle = 90;
position = "{344, 0}";
},
{
angle = 90;
position = "{204, 0}";
},
{
angle = 90;
position = "{1014, 0}";
},
{
angle = 90;
position = "{874, 0}";
}
);
layerId = "6D97EE47-94AA-478E-ABFB-936E6C32B491";
paths = (
{
closed = 1;
nodes = (
"1038 1037 LINE",
"1038 -360 LINE",
"180 -360 LINE",
"180 1037 LINE"
);
},
{
closed = 1;
nodes = (
"100 -440 LINE",
"1118 -440 LINE",
"1118 1117 LINE",
"100 1117 LINE"
);
},
{
closed = 1;
nodes = (
"204 -336 LINE",
"1014 -336 LINE",
"1014 1013 LINE",
"204 1013 LINE"
);
},
{
closed = 1;
nodes = (
"344 30 LINE",
"363 30 OFFCURVE",
"402 33 OFFCURVE",
"432 46 CURVE",
"432 667 LINE",
"400 674 OFFCURVE",
"365 674 OFFCURVE",
"348 672 CURVE",
"345 702 LINE",
"502 714 OFFCURVE",
"555 725 OFFCURVE",
"638 719 CURVE SMOOTH",
"727 713 OFFCURVE",
"854 645 OFFCURVE",
"872 517 CURVE SMOOTH",
"889 393 OFFCURVE",
"782 261 OFFCURVE",
"581 268 CURVE",
"576 300 LINE",
"734 310 OFFCURVE",
"795 399 OFFCURVE",
"778 503 CURVE SMOOTH",
"757 631 OFFCURVE",
"629 688 OFFCURVE",
"519 671 CURVE",
"519 46 LINE",
"552 33 OFFCURVE",
"595 30 OFFCURVE",
"616 30 CURVE",
"616 0 LINE",
"344 0 LINE"
);
}
);
width = 1218;
}
);
},
{
glyphname = Q.ss10;
lastChange = "2020-07-04 21:21:05 +0000";
layers = (
{
background = {
components = (
{
name = Q;
transform = "{1, 0, 0, 1, 294, 0}";
}
);
};
guideLines = (
{
angle = 90;
position = "{344, 0}";
},
{
angle = 90;
position = "{204, 0}";
},
{
angle = 90;
position = "{1287, 0}";
},
{
angle = 90;
position = "{1147, 0}";
}
);
layerId = "6D97EE47-94AA-478E-ABFB-936E6C32B491";
paths = (
{
closed = 1;
nodes = (
"1391 -440 LINE",
"1391 1117 LINE",
"100 1117 LINE",
"100 -440 LINE"
);
},
{
closed = 1;
nodes = (
"180 1037 LINE",
"1311 1037 LINE",
"1311 -360 LINE",
"180 -360 LINE"
);
},
{
closed = 1;
nodes = (
"1287 -336 LINE",
"1287 1013 LINE",
"204 1013 LINE",
"204 -336 LINE"
);
},
{
closed = 1;
nodes = (
"294 402 OFFCURVE",
"390 618 OFFCURVE",
"578 694 CURVE SMOOTH",
"766 770 OFFCURVE",
"985 682 OFFCURVE",
"1062 494 CURVE SMOOTH",
"1139 304 OFFCURVE",
"1042 89 OFFCURVE",
"853 13 CURVE SMOOTH",
"837 7 LINE",
"925 -90 OFFCURVE",
"1037 -158 OFFCURVE",
"1147 -168 CURVE",
"1144 -200 LINE",
"979 -190 OFFCURVE",
"855 -136 OFFCURVE",
"739 -13 CURVE",
"584 -24 OFFCURVE",
"430 63 OFFCURVE",
"370 214 CURVE SMOOTH"
);
},
{
closed = 1;
nodes = (
"529 86 OFFCURVE",
"693 2 OFFCURVE",
"835 59 CURVE SMOOTH",
"977 116 OFFCURVE",
"1035 291 OFFCURVE",
"969 456 CURVE SMOOTH",
"902 622 OFFCURVE",
"739 706 OFFCURVE",
"597 649 CURVE SMOOTH",
"454 591 OFFCURVE",
"395 417 OFFCURVE",
"463 252 CURVE SMOOTH"
);
}
);
width = 1491;
}
);
},
{
glyphname = R.ss10;
lastChange = "2020-07-05 13:52:44 +0000";
layers = (
{
background = {
components = (
{
name = R;
transform = "{1, 0, 0, 1, 294, 0}";
}
);
};
guideLines = (
{
angle = 90;
position = "{344, 0}";
},
{
angle = 90;
position = "{204, 0}";
},
{
angle = 90;
position = "{1147, 0}";
},
{
angle = 90;
position = "{1007, 0}";
}
);
layerId = "6D97EE47-94AA-478E-ABFB-936E6C32B491";
paths = (
{
closed = 1;
nodes = (
"1171 1037 LINE",
"1171 -360 LINE",
"180 -360 LINE",
"180 1037 LINE"
);
},
{
closed = 1;
nodes = (
"100 -440 LINE",
"1251 -440 LINE",
"1251 1117 LINE",
"100 1117 LINE"
);
},
{
closed = 1;
nodes = (
"204 -336 LINE",
"1147 -336 LINE",
"1147 1013 LINE",
"204 1013 LINE"
);
},
{
closed = 1;
nodes = (
"344 30 LINE",
"363 30 OFFCURVE",
"402 33 OFFCURVE",
"432 46 CURVE",
"432 669 LINE",
"400 676 OFFCURVE",
"365 676 OFFCURVE",
"347 674 CURVE",
"344 704 LINE",
"600 726 OFFCURVE",
"772 748 OFFCURVE",
"826 613 CURVE SMOOTH",
"855 540 OFFCURVE",
"835 418 OFFCURVE",
"684 355 CURVE",
"721 289 OFFCURVE",
"782 195 OFFCURVE",
"835 128 CURVE SMOOTH",
"884 65 OFFCURVE",
"920 33 OFFCURVE",
"1007 0 CURVE",
"998 -29 LINE",
"860 -20 OFFCURVE",
"813 12 OFFCURVE",
"760 73 CURVE SMOOTH",
"718 122 OFFCURVE",
"641 265 OFFCURVE",
"603 330 CURVE",
"578 324 OFFCURVE",
"550 320 OFFCURVE",
"519 317 CURVE",
"519 46 LINE",
"550 33 OFFCURVE",
"591 30 OFFCURVE",
"611 30 CURVE",
"611 0 LINE",
"344 0 LINE"
);
},
{
closed = 1;
nodes = (
"700 361 OFFCURVE",
"779 477 OFFCURVE",
"744 572 CURVE SMOOTH",
"714 653 OFFCURVE",
"650 691 OFFCURVE",
"519 677 CURVE",
"519 353 LINE"
);
}
);
width = 1351;
}
);
},
{
glyphname = S.ss10;
lastChange = "2021-01-08 19:26:28 +0000";
layers = (
{
background = {
components = (
{
name = S;
transform = "{1, 0, 0, 1, 298, 0}";
}
);
};
guideLines = (
{
angle = 90;
position = "{344, 0}";
},
{
angle = 90;
position = "{204, 0}";
},
{
angle = 90;
position = "{941, 0}";
},
{
angle = 90;
position = "{801, 0}";
}
);
layerId = "6D97EE47-94AA-478E-ABFB-936E6C32B491";
paths = (
{
closed = 1;
nodes = (
"965 1037 LINE",
"965 -360 LINE",
"180 -360 LINE",
"180 1037 LINE"
);
},
{
closed = 1;
nodes = (
"100 -440 LINE",
"1045 -440 LINE",
"1045 1117 LINE",
"100 1117 LINE"
);
},
{
closed = 1;
nodes = (
"204 -336 LINE",
"941 -336 LINE",
"941 1013 LINE",
"204 1013 LINE"
);
},
{
closed = 1;
nodes = (
"811 118 OFFCURVE",
"781 45 OFFCURVE",
"680 4 CURVE SMOOTH",
"568 -41 OFFCURVE",
"383 12 OFFCURVE",
"375 23 CURVE",
"344 215 LINE",
"377 221 LINE",
"385 186 OFFCURVE",
"401 129 OFFCURVE",
"430 93 CURVE SMOOTH",
"460 55 OFFCURVE",
"508 24 OFFCURVE",
"594 35 CURVE SMOOTH",
"671 45 OFFCURVE",
"717 102 OFFCURVE",
"709 170 CURVE SMOOTH",
"702 229 OFFCURVE",
"644 275 OFFCURVE",
"582 311 CURVE SMOOTH",
"515 350 OFFCURVE",
"389 420 OFFCURVE",
"389 537 CURVE SMOOTH",
"389 656 OFFCURVE",
"482 700 OFFCURVE",
"564 715 CURVE SMOOTH",
"649 731 OFFCURVE",
"730 708 OFFCURVE",
"765 702 CURVE",
"787 540 LINE",
"754 536 LINE",
"749 574 OFFCURVE",
"736 626 OFFCURVE",
"697 652 CURVE SMOOTH",
"667 672 OFFCURVE",
"624 682 OFFCURVE",
"571 668 CURVE SMOOTH",
"503 650 OFFCURVE",
"452 584 OFFCURVE",
"490 509 CURVE SMOOTH",
"516 458 OFFCURVE",
"603 413 OFFCURVE",
"658 380 CURVE SMOOTH",
"719 343 OFFCURVE",
"786 287 OFFCURVE",
"798 205 CURVE SMOOTH"
);
}
);
width = 1145;
}
);
},
{
glyphname = T.ss10;
lastChange = "2020-11-30 22:06:03 +0000";
layers = (
{
background = {
components = (
{
name = T;
transform = "{1, 0, 0, 1, 334, 0}";
}
);
paths = (
{
closed = 1;
nodes = (
"1544 707 LINE",
"2162 707 LINE",
"2150 646 OFFCURVE",
"2143 596 OFFCURVE",
"2137 531 CURVE",
"2103 531 LINE",
"2103 656 LINE",
"1896 656 LINE",
"1896 46 LINE",
"1927 33 OFFCURVE",
"1966 30 OFFCURVE",
"1985 30 CURVE",
"1985 0 LINE",
"1721 0 LINE",
"1721 30 LINE",
"1740 30 OFFCURVE",
"1779 33 OFFCURVE",
"1809 46 CURVE",
"1809 656 LINE",
"1600 656 LINE",
"1588 612 OFFCURVE",
"1582 571 OFFCURVE",
"1576 531 CURVE",
"1544 531 LINE"
);
}
);
};
guideLines = (
{
angle = 90;
position = "{344, 0}";
},
{
angle = 90;
position = "{204, 0}";
},
{
angle = 90;
position = "{1102, 0}";
},
{
angle = 90;
position = "{962, 0}";
}
);
layerId = "6D97EE47-94AA-478E-ABFB-936E6C32B491";
paths = (
{
closed = 1;
nodes = (
"1126 1037 LINE",
"1126 -360 LINE",
"180 -360 LINE",
"180 1037 LINE"
);
},
{
closed = 1;
nodes = (
"100 -440 LINE",
"1206 -440 LINE",
"1206 1117 LINE",
"100 1117 LINE"
);
},
{
closed = 1;
nodes = (
"204 -336 LINE",
"1102 -336 LINE",
"1102 1013 LINE",
"204 1013 LINE"
);
},
{
closed = 1;
nodes = (
"344 707 LINE",
"962 707 LINE",
"936 528 LINE",
"905 531 LINE",
"906 570 OFFCURVE",
"907 610 OFFCURVE",
"901 656 CURVE",
"696 656 LINE",
"696 46 LINE",
"727 33 OFFCURVE",
"766 30 OFFCURVE",
"785 30 CURVE",
"785 0 LINE",
"521 0 LINE",
"521 30 LINE",
"540 30 OFFCURVE",
"579 33 OFFCURVE",
"609 46 CURVE",
"609 656 LINE",
"400 656 LINE",
"388 612 OFFCURVE",
"382 571 OFFCURVE",
"376 531 CURVE",
"344 531 LINE"
);
}
);
width = 1306;
}
);
},
{
glyphname = U.ss10;
lastChange = "2020-07-04 21:46:06 +0000";
layers = (
{
background = {
components = (
{
name = U;
transform = "{1, 0, 0, 1, 294, 0}";
}
);
};
components = (
{
name = U;
transform = "{1, 0, 0, 1, 294, 0}";
}
);
guideLines = (
{
angle = 90;
position = "{344, 0}";
},
{
angle = 90;
position = "{204, 0}";
},
{
angle = 90;
position = "{1228, 0}";
},
{
angle = 90;
position = "{1088, 0}";
}
);
layerId = "6D97EE47-94AA-478E-ABFB-936E6C32B491";
paths = (
{
closed = 1;
nodes = (
"1252 1037 LINE",
"1252 -360 LINE",
"180 -360 LINE",
"180 1037 LINE"
);
},
{
closed = 1;
nodes = (
"100 -440 LINE",
"1332 -440 LINE",
"1332 1117 LINE",
"100 1117 LINE"
);
},
{
closed = 1;
nodes = (
"204 -336 LINE",
"1228 -336 LINE",
"1228 1013 LINE",
"204 1013 LINE"
);
}
);
width = 1432;
}
);
},
{
glyphname = V.ss10;
lastChange = "2020-07-04 21:47:28 +0000";
layers = (
{
background = {
components = (
{
name = V;
transform = "{1, 0, 0, 1, 340, 0}";
}
);
};
guideLines = (
{
angle = 90;
position = "{344, 0}";
},
{
angle = 90;
position = "{204, 0}";
},
{
angle = 90;
position = "{1202, 0}";
},
{
angle = 90;
position = "{1062, 0}";
}
);
layerId = "6D97EE47-94AA-478E-ABFB-936E6C32B491";
paths = (
{
closed = 1;
nodes = (
"1226 1037 LINE",
"1226 -360 LINE",
"180 -360 LINE",
"180 1037 LINE"
);
},
{
closed = 1;
nodes = (
"100 -440 LINE",
"1306 -440 LINE",
"1306 1117 LINE",
"100 1117 LINE"
);
},
{
closed = 1;
nodes = (
"204 -336 LINE",
"1202 -336 LINE",
"1202 1013 LINE",
"204 1013 LINE"
);
},
{
closed = 1;
nodes = (
"344 707 LINE",
"605 707 LINE",
"605 677 LINE",
"586 677 OFFCURVE",
"547 674 OFFCURVE",
"517 661 CURVE",
"717 124 LINE",
"937 661 LINE",
"907 674 OFFCURVE",
"868 677 OFFCURVE",
"849 677 CURVE",
"849 707 LINE",
"1062 707 LINE",
"1062 677 LINE",
"1047 677 OFFCURVE",
"1016 674 OFFCURVE",
"992 661 CURVE",
"716 -14 LINE",
"675 -14 LINE",
"423 661 LINE",
"396 674 OFFCURVE",
"361 677 OFFCURVE",
"344 677 CURVE"
);
}
);
width = 1406;
}
);
},
{
glyphname = W.ss10;
lastChange = "2020-07-04 21:49:45 +0000";
layers = (
{
background = {
components = (
{
name = W;
transform = "{1, 0, 0, 1, 340, 0}";
}
);
};
guideLines = (
{
angle = 90;
position = "{344, 0}";
},
{
angle = 90;
position = "{204, 0}";
},
{
angle = 90;
position = "{1453, 0}";
},
{
angle = 90;
position = "{1313, 0}";
}
);
layerId = "6D97EE47-94AA-478E-ABFB-936E6C32B491";
paths = (
{
closed = 1;
nodes = (
"1477 1037 LINE",
"1477 -360 LINE",
"180 -360 LINE",
"180 1037 LINE"
);
},
{
closed = 1;
nodes = (
"100 -440 LINE",
"1557 -440 LINE",
"1557 1117 LINE",
"100 1117 LINE"
);
},
{
closed = 1;
nodes = (
"204 -336 LINE",
"1453 -336 LINE",
"1453 1013 LINE",
"204 1013 LINE"
);
},
{
closed = 1;
nodes = (
"344 707 LINE",
"598 707 LINE",
"598 677 LINE",
"579 677 OFFCURVE",
"540 674 OFFCURVE",
"511 661 CURVE",
"645 143 LINE",
"839 619 LINE",
"880 619 LINE",
"1064 152 LINE",
"1188 661 LINE",
"1159 674 OFFCURVE",
"1120 677 OFFCURVE",
"1101 677 CURVE",
"1101 707 LINE",
"1313 707 LINE",
"1313 677 LINE",
"1298 677 OFFCURVE",
"1266 674 OFFCURVE",
"1241 661 CURVE",
"1075 -14 LINE",
"1034 -14 LINE",
"839 484 LINE",
"636 -14 LINE",
"595 -14 LINE",
"420 661 LINE",
"394 674 OFFCURVE",
"360 677 OFFCURVE",
"344 677 CURVE"
);
}
);
width = 1657;
}
);
},
{
glyphname = X.ss10;
lastChange = "2021-01-14 15:28:31 +0000";
layers = (
{
background = {
components = (
{
name = X;
transform = "{1, 0, 0, 1, 340, 0}";
}
);
};
guideLines = (
{
angle = 90;
position = "{344, 0}";
},
{
angle = 90;
position = "{204, 0}";
},
{
angle = 90;
position = "{1151, 0}";
},
{
angle = 90;
position = "{1011, 0}";
}
);
layerId = "6D97EE47-94AA-478E-ABFB-936E6C32B491";
paths = (
{
closed = 1;
nodes = (
"1175 1037 LINE",
"1175 -360 LINE",
"180 -360 LINE",
"180 1037 LINE"
);
},
{
closed = 1;
nodes = (
"100 -440 LINE",
"1255 -440 LINE",
"1255 1117 LINE",
"100 1117 LINE"
);
},
{
closed = 1;
nodes = (
"204 -336 LINE",
"1151 -336 LINE",
"1151 1013 LINE",
"204 1013 LINE"
);
},
{
closed = 1;
nodes = (
"344 30 LINE",
"359 30 OFFCURVE",
"391 33 OFFCURVE",
"416 46 CURVE",
"629 352 LINE",
"428 662 LINE",
"402 674 OFFCURVE",
"368 677 OFFCURVE",
"352 677 CURVE",
"352 707 LINE",
"622 707 LINE",
"622 677 LINE",
"603 677 OFFCURVE",
"564 674 OFFCURVE",
"534 661 CURVE",
"688 424 LINE",
"855 661 LINE",
"825 674 OFFCURVE",
"786 677 OFFCURVE",
"767 677 CURVE",
"767 707 LINE",
"989 707 LINE",
"989 677 LINE",
"974 677 OFFCURVE",
"942 674 OFFCURVE",
"918 661 CURVE",
"719 377 LINE",
"934 46 LINE",
"960 33 OFFCURVE",
"994 30 OFFCURVE",
"1011 30 CURVE",
"1011 0 LINE",
"741 0 LINE",
"741 30 LINE",
"760 30 OFFCURVE",
"798 33 OFFCURVE",
"828 46 CURVE",
"660 305 LINE",
"479 46 LINE",
"509 33 OFFCURVE",
"548 30 OFFCURVE",
"567 30 CURVE",
"567 0 LINE",
"344 0 LINE"
);
}
);
width = 1355;
}
);
},
{
glyphname = Y.ss10;
lastChange = "2020-07-04 21:55:59 +0000";
layers = (
{
background = {
components = (
{
name = Y;
transform = "{1, 0, 0, 1, 340, 0}";
}
);
};
guideLines = (
{
angle = 90;
position = "{344, 0}";
},
{
angle = 90;
position = "{204, 0}";
},
{
angle = 90;
position = "{1128, 0}";
},
{
angle = 90;
position = "{988, 0}";
}
);
layerId = "6D97EE47-94AA-478E-ABFB-936E6C32B491";
paths = (
{
closed = 1;
nodes = (
"1152 1037 LINE",
"1152 -360 LINE",
"180 -360 LINE",
"180 1037 LINE"
);
},
{
closed = 1;
nodes = (
"100 -440 LINE",
"1232 -440 LINE",
"1232 1117 LINE",
"100 1117 LINE"
);
},
{
closed = 1;
nodes = (
"204 -336 LINE",
"1128 -336 LINE",
"1128 1013 LINE",
"204 1013 LINE"
);
},
{
closed = 1;
nodes = (
"344 707 LINE",
"608 707 LINE",
"608 677 LINE",
"589 677 OFFCURVE",
"551 674 OFFCURVE",
"521 661 CURVE",
"689 357 LINE",
"859 661 LINE",
"829 674 OFFCURVE",
"790 677 OFFCURVE",
"771 677 CURVE",
"771 707 LINE",
"988 707 LINE",
"988 677 LINE",
"973 677 OFFCURVE",
"942 674 OFFCURVE",
"917 662 CURVE",
"718 303 LINE",
"718 46 LINE",
"748 33 OFFCURVE",
"787 30 OFFCURVE",
"806 30 CURVE",
"806 0 LINE",
"542 0 LINE",
"542 30 LINE",
"561 30 OFFCURVE",
"600 33 OFFCURVE",
"630 46 CURVE",
"630 282 LINE",
"420 661 LINE",
"394 674 OFFCURVE",
"360 677 OFFCURVE",
"344 677 CURVE"
);
}
);
width = 1332;
}
);
},
{
glyphname = Z.ss10;
lastChange = "2020-07-04 21:58:48 +0000";
layers = (
{
background = {
components = (
{
name = Z;
transform = "{1, 0, 0, 1, 319, 0}";
}
);
};
guideLines = (
{
angle = 90;
position = "{344, 0}";
},
{
angle = 90;
position = "{204, 0}";
},
{
angle = 90;
position = "{1054, 0}";
},
{
angle = 90;
position = "{914, 0}";
}
);
layerId = "6D97EE47-94AA-478E-ABFB-936E6C32B491";
paths = (
{
closed = 1;
nodes = (
"1078 1037 LINE",
"1078 -360 LINE",
"180 -360 LINE",
"180 1037 LINE"
);
},
{
closed = 1;
nodes = (
"100 -440 LINE",
"1158 -440 LINE",
"1158 1117 LINE",
"100 1117 LINE"
);
},
{
closed = 1;
nodes = (
"204 -336 LINE",
"1054 -336 LINE",
"1054 1013 LINE",
"204 1013 LINE"
);
},
{
closed = 1;
nodes = (
"759 656 LINE",
"413 656 LINE",
"401 613 OFFCURVE",
"395 574 OFFCURVE",
"387 534 CURVE",
"355 536 LINE",
"362 707 LINE",
"857 707 LINE",
"874 669 LINE",
"458 51 LINE",
"819 51 LINE",
"850 90 OFFCURVE",
"879 161 OFFCURVE",
"883 175 CURVE",
"914 167 LINE",
"875 0 LINE",
"359 0 LINE",
"344 38 LINE"
);
}
);
width = 1258;
}
);
},
{
glyphname = a;
lastChange = "2020-06-27 22:35:52 +0000";
layers = (
{
anchors = (
{
name = BOTTOM;
position = "{222, 0}";
},
{
name = TOP;
position = "{211, 456}";
}
);
background = {
paths = (
{
closed = 1;
nodes = (
"-530 0 LINE",
"-530 422 LINE",
"-449 450 LINE",
"-449 0 LINE"
);
},
{
closed = 1;
nodes = (
"-439 402 OFFCURVE",
"-352 464 OFFCURVE",
"-279 464 CURVE SMOOTH",
"-255 464 OFFCURVE",
"-233 458 OFFCURVE",
"-214 447 CURVE SMOOTH",
"-163 419 OFFCURVE",
"-150 374 OFFCURVE",
"-150 314 CURVE SMOOTH",
"-150 215 OFFCURVE",
"-150 37 OFFCURVE",
"-150 0 CURVE",
"-231 0 LINE",
"-231 44 OFFCURVE",
"-231 203 OFFCURVE",
"-231 276 CURVE SMOOTH",
"-231 327 OFFCURVE",
"-233 358 OFFCURVE",
"-271 387 CURVE SMOOTH",
"-286 398 OFFCURVE",
"-306 402 OFFCURVE",
"-328 402 CURVE SMOOTH",
"-376 402 OFFCURVE",
"-433 365 OFFCURVE",
"-461 343 CURVE",
"-478 375 LINE"
);
},
{
closed = 1;
nodes = (
"-521 393 LINE",
"-516 352 LINE",
"-529 374 OFFCURVE",
"-561 383 OFFCURVE",
"-592 381 CURVE",
"-601 409 LINE",
"-469 464 LINE",
"-449 450 LINE"
);
},
{
closed = 1;
nodes = (
"1718 472 OFFCURVE",
"1652 453 OFFCURVE",
"1621 432 CURVE SMOOTH",
"1562 392 OFFCURVE",
"1549 322 OFFCURVE",
"1555 298 CURVE",
"1635 330 LINE",
"1625 356 OFFCURVE",
"1629 379 OFFCURVE",
"1649 398 CURVE SMOOTH",
"1669 416 OFFCURVE",
"1719 429 OFFCURVE",
"1744 412 CURVE SMOOTH",
"1772 393 OFFCURVE",
"1769 377 OFFCURVE",
"1769 329 CURVE SMOOTH",
"1769 305 OFFCURVE",
"1769 252 OFFCURVE",
"1769 244 CURVE",
"1714 225 OFFCURVE",
"1569 173 OFFCURVE",
"1546 161 CURVE",
"1534 147 OFFCURVE",
"1533 92 OFFCURVE",
"1542 65 CURVE SMOOTH",
"1553 26 OFFCURVE",
"1595 -9 OFFCURVE",
"1652 -9 CURVE SMOOTH",
"1691 -9 OFFCURVE",
"1731 19 OFFCURVE",
"1774 44 CURVE",
"1779 14 OFFCURVE",
"1801 -9 OFFCURVE",
"1833 -9 CURVE SMOOTH",
"1870 -9 OFFCURVE",
"1897 4 OFFCURVE",
"1921 21 CURVE",
"1909 47 LINE",
"1894 42 OFFCURVE",
"1876 38 OFFCURVE",
"1862 47 CURVE SMOOTH",
"1848 57 OFFCURVE",
"1849 73 OFFCURVE",
"1849 106 CURVE SMOOTH",
"1849 132 OFFCURVE",
"1849 319 OFFCURVE",
"1849 362 CURVE SMOOTH",
"1849 417 OFFCURVE",
"1824 446 OFFCURVE",
"1771 459 CURVE SMOOTH"
);
},
{
closed = 1;
nodes = (
"1769 170 OFFCURVE",
"1769 117 OFFCURVE",
"1769 79 CURVE",
"1701 46 OFFCURVE",
"1668 51 OFFCURVE",
"1646 65 CURVE SMOOTH",
"1610 88 OFFCURVE",
"1611 126 OFFCURVE",
"1617 136 CURVE SMOOTH",
"1623 146 OFFCURVE",
"1708 179 OFFCURVE",
"1769 200 CURVE"
);
},
{
closed = 1;
nodes = (
"774 472 OFFCURVE",
"708 453 OFFCURVE",
"677 432 CURVE SMOOTH",
"617 392 OFFCURVE",
"605 322 OFFCURVE",
"611 298 CURVE",
"691 330 LINE",
"686 356 OFFCURVE",
"692 377 OFFCURVE",
"708 394 CURVE SMOOTH",
"714 402 OFFCURVE",
"728 412 OFFCURVE",
"741 416 CURVE SMOOTH",
"763 421 OFFCURVE",
"788 419 OFFCURVE",
"804 406 CURVE SMOOTH",
"824 390 OFFCURVE",
"824 377 OFFCURVE",
"824 329 CURVE SMOOTH",
"824 305 OFFCURVE",
"824 257 OFFCURVE",
"824 250 CURVE",
"769 231 OFFCURVE",
"625 179 OFFCURVE",
"601 167 CURVE",
"587 153 OFFCURVE",
"586 92 OFFCURVE",
"594 65 CURVE SMOOTH",
"606 26 OFFCURVE",
"648 -9 OFFCURVE",
"708 -9 CURVE SMOOTH",
"757 -9 OFFCURVE",
"839 38 OFFCURVE",
"882 64 CURVE",
"877 128 LINE",
"877 287 LINE",
"905 362 LINE",
"905 417 OFFCURVE",
"879 446 OFFCURVE",
"826 459 CURVE SMOOTH"
);
},
{
closed = 1;
nodes = (
"824 176 OFFCURVE",
"852 129 OFFCURVE",
"852 92 CURVE",
"781 56 OFFCURVE",
"736 43 OFFCURVE",
"702 65 CURVE SMOOTH",
"666 88 OFFCURVE",
"667 131 OFFCURVE",
"673 142 CURVE SMOOTH",
"678 151 OFFCURVE",
"764 185 OFFCURVE",
"824 206 CURVE"
);
},
{
closed = 1;
nodes = (
"1274 472 OFFCURVE",
"1208 453 OFFCURVE",
"1177 432 CURVE SMOOTH",
"1117 392 OFFCURVE",
"1105 322 OFFCURVE",
"1111 298 CURVE",
"1191 330 LINE",
"1186 356 OFFCURVE",
"1192 377 OFFCURVE",
"1208 394 CURVE SMOOTH",
"1214 402 OFFCURVE",
"1228 412 OFFCURVE",
"1241 416 CURVE SMOOTH",
"1263 421 OFFCURVE",
"1288 419 OFFCURVE",
"1304 406 CURVE SMOOTH",
"1324 390 OFFCURVE",
"1324 377 OFFCURVE",
"1324 329 CURVE SMOOTH",
"1324 305 OFFCURVE",
"1324 252 OFFCURVE",
"1324 244 CURVE",
"1269 225 OFFCURVE",
"1125 173 OFFCURVE",
"1101 161 CURVE",
"1087 147 OFFCURVE",
"1086 92 OFFCURVE",
"1094 65 CURVE SMOOTH",
"1106 26 OFFCURVE",
"1148 -9 OFFCURVE",
"1208 -9 CURVE SMOOTH",
"1247 -9 OFFCURVE",
"1287 19 OFFCURVE",
"1329 44 CURVE",
"1334 14 OFFCURVE",
"1357 -9 OFFCURVE",
"1389 -9 CURVE SMOOTH",
"1426 -9 OFFCURVE",
"1453 4 OFFCURVE",
"1477 21 CURVE",
"1465 47 LINE",
"1450 42 OFFCURVE",
"1431 38 OFFCURVE",
"1417 47 CURVE SMOOTH",
"1403 57 OFFCURVE",
"1405 73 OFFCURVE",
"1405 106 CURVE SMOOTH",
"1405 132 OFFCURVE",
"1405 319 OFFCURVE",
"1405 362 CURVE SMOOTH",
"1405 417 OFFCURVE",
"1379 446 OFFCURVE",
"1326 459 CURVE SMOOTH"
);
},
{
closed = 1;
nodes = (
"1324 170 OFFCURVE",
"1324 117 OFFCURVE",
"1324 79 CURVE",
"1257 46 OFFCURVE",
"1224 51 OFFCURVE",
"1202 65 CURVE SMOOTH",
"1166 88 OFFCURVE",
"1167 126 OFFCURVE",
"1173 136 CURVE SMOOTH",
"1178 146 OFFCURVE",
"1264 179 OFFCURVE",
"1324 200 CURVE"
);
},
{
closed = 1;
nodes = (
"218 472 OFFCURVE",
"152 453 OFFCURVE",
"121 432 CURVE SMOOTH",
"62 392 OFFCURVE",
"49 322 OFFCURVE",
"55 298 CURVE",
"135 330 LINE",
"131 356 OFFCURVE",
"137 377 OFFCURVE",
"152 394 CURVE SMOOTH",
"159 402 OFFCURVE",
"172 412 OFFCURVE",
"186 416 CURVE SMOOTH",
"207 421 OFFCURVE",
"233 419 OFFCURVE",
"248 406 CURVE SMOOTH",
"268 390 OFFCURVE",
"269 377 OFFCURVE",
"269 329 CURVE SMOOTH",
"269 305 OFFCURVE",
"269 257 OFFCURVE",
"269 250 CURVE",
"214 231 OFFCURVE",
"69 179 OFFCURVE",
"46 167 CURVE",
"32 153 OFFCURVE",
"31 92 OFFCURVE",
"39 65 CURVE SMOOTH",
"51 26 OFFCURVE",
"92 -9 OFFCURVE",
"152 -9 CURVE SMOOTH",
"191 -9 OFFCURVE",
"231 19 OFFCURVE",
"274 44 CURVE",
"279 14 OFFCURVE",
"301 -9 OFFCURVE",
"333 -9 CURVE SMOOTH",
"370 -9 OFFCURVE",
"397 4 OFFCURVE",
"421 21 CURVE",
"409 47 LINE",
"394 42 OFFCURVE",
"376 38 OFFCURVE",
"362 47 CURVE SMOOTH",
"348 57 OFFCURVE",
"349 73 OFFCURVE",
"349 106 CURVE SMOOTH",
"349 132 OFFCURVE",
"349 319 OFFCURVE",
"349 362 CURVE SMOOTH",
"349 417 OFFCURVE",
"324 446 OFFCURVE",
"271 459 CURVE SMOOTH"
);
},
{
closed = 1;
nodes = (
"269 176 OFFCURVE",
"269 117 OFFCURVE",
"269 79 CURVE",
"201 46 OFFCURVE",
"168 51 OFFCURVE",
"146 65 CURVE SMOOTH",
"110 88 OFFCURVE",
"111 131 OFFCURVE",
"117 142 CURVE SMOOTH",
"123 151 OFFCURVE",
"208 185 OFFCURVE",
"269 206 CURVE"
);
}
);
};
layerId = "6D97EE47-94AA-478E-ABFB-936E6C32B491";
paths = (
{
closed = 1;
nodes = (
"324 446 OFFCURVE",
"349 417 OFFCURVE",
"349 362 CURVE SMOOTH",
"349 319 OFFCURVE",
"349 132 OFFCURVE",
"349 106 CURVE SMOOTH",
"349 73 OFFCURVE",
"348 57 OFFCURVE",
"362 47 CURVE SMOOTH",
"376 38 OFFCURVE",
"394 42 OFFCURVE",
"409 47 CURVE",
"421 21 LINE",
"397 4 OFFCURVE",
"370 -9 OFFCURVE",
"333 -9 CURVE SMOOTH",
"301 -9 OFFCURVE",
"279 14 OFFCURVE",
"274 44 CURVE",
"231 19 OFFCURVE",
"191 -9 OFFCURVE",
"152 -9 CURVE SMOOTH",
"92 -9 OFFCURVE",
"53 26 OFFCURVE",
"39 65 CURVE SMOOTH",
"28 96 OFFCURVE",
"31 149 OFFCURVE",
"46 178 CURVE",
"69 190 OFFCURVE",
"215 242 OFFCURVE",
"270 261 CURVE",
"270 268 OFFCURVE",
"270 305 OFFCURVE",
"270 329 CURVE SMOOTH",
"270 377 OFFCURVE",
"268 390 OFFCURVE",
"248 406 CURVE SMOOTH",
"233 419 OFFCURVE",
"207 421 OFFCURVE",
"186 416 CURVE SMOOTH",
"172 412 OFFCURVE",
"159 402 OFFCURVE",
"152 394 CURVE SMOOTH",
"137 377 OFFCURVE",
"131 356 OFFCURVE",
"135 330 CURVE",
"55 298 LINE",
"49 322 OFFCURVE",
"62 392 OFFCURVE",
"121 432 CURVE SMOOTH",
"152 453 OFFCURVE",
"218 472 OFFCURVE",
"271 459 CURVE SMOOTH"
);
},
{
closed = 1;
nodes = (
"209 196 OFFCURVE",
"119 161 OFFCURVE",
"114 152 CURVE SMOOTH",
"108 141 OFFCURVE",
"107 87 OFFCURVE",
"143 64 CURVE SMOOTH",
"165 49 OFFCURVE",
"202 46 OFFCURVE",
"270 79 CURVE",
"270 117 OFFCURVE",
"270 187 OFFCURVE",
"270 217 CURVE"
);
}
);
width = 443;
}
);
leftKerningGroup = a;
rightKerningGroup = a;
rightMetricsKey = "=n";
unicode = 0061;
},
{
glyphname = ae;
lastChange = "2020-11-21 19:00:18 +0000";
layers = (
{
anchors = (
{
name = TOP;
position = "{484, 456}";
}
);
background = {
paths = (
{
closed = 1;
nodes = (
"-310 31 LINE",
"-330 17 OFFCURVE",
"-348 7 OFFCURVE",
"-367 -1 CURVE SMOOTH",
"-377 -4 OFFCURVE",
"-387 -7 OFFCURVE",
"-395 -7 CURVE SMOOTH",
"-442 -7 OFFCURVE",
"-479 15 OFFCURVE",
"-497 53 CURVE",
"-526 22 OFFCURVE",
"-554 1 OFFCURVE",
"-574 -4 CURVE",
"-594 -4 OFFCURVE",
"-612 3 OFFCURVE",
"-625 15 CURVE SMOOTH",
"-638 27 OFFCURVE",
"-645 44 OFFCURVE",
"-645 64 CURVE SMOOTH",
"-645 86 OFFCURVE",
"-633 103 OFFCURVE",
"-616 108 CURVE SMOOTH",
"-509 137 LINE",
"-509 165 LINE SMOOTH",
"-509 203 OFFCURVE",
"-526 223 OFFCURVE",
"-557 223 CURVE SMOOTH",
"-575 223 OFFCURVE",
"-592 215 OFFCURVE",
"-604 208 CURVE SMOOTH",
"-612 204 OFFCURVE",
"-619 199 OFFCURVE",
"-625 193 CURVE",
"-628 195 LINE",
"-634 219 LINE",
"-609 233 OFFCURVE",
"-588 243 OFFCURVE",
"-568 252 CURVE SMOOTH",
"-558 256 OFFCURVE",
"-550 258 OFFCURVE",
"-544 258 CURVE SMOOTH",
"-508 258 OFFCURVE",
"-484 243 OFFCURVE",
"-475 213 CURVE",
"-453 242 OFFCURVE",
"-422 258 OFFCURVE",
"-391 258 CURVE SMOOTH",
"-343 258 OFFCURVE",
"-314 228 OFFCURVE",
"-314 179 CURVE SMOOTH",
"-314 176 OFFCURVE",
"-315 173 OFFCURVE",
"-316 168 CURVE",
"-321 161 LINE",
"-471 125 LINE",
"-468 96 OFFCURVE",
"-459 73 OFFCURVE",
"-444 56 CURVE SMOOTH",
"-430 38 OFFCURVE",
"-411 29 OFFCURVE",
"-388 29 CURVE SMOOTH",
"-371 29 OFFCURVE",
"-354 33 OFFCURVE",
"-341 38 CURVE SMOOTH",
"-334 41 OFFCURVE",
"-327 44 OFFCURVE",
"-319 48 CURVE",
"-316 47 LINE"
);
},
{
closed = 1;
nodes = (
"-587 94 LINE SMOOTH",
"-599 90 OFFCURVE",
"-604 81 OFFCURVE",
"-604 71 CURVE SMOOTH",
"-604 50 OFFCURVE",
"-587 32 OFFCURVE",
"-567 32 CURVE SMOOTH",
"-552 32 OFFCURVE",
"-529 45 OFFCURVE",
"-503 69 CURVE",
"-508 83 OFFCURVE",
"-510 99 OFFCURVE",
"-510 117 CURVE"
);
},
{
closed = 1;
nodes = (
"-471 146 LINE",
"-374 173 LINE SMOOTH",
"-367 176 OFFCURVE",
"-363 179 OFFCURVE",
"-363 183 CURVE SMOOTH",
"-363 208 OFFCURVE",
"-379 227 OFFCURVE",
"-403 227 CURVE SMOOTH",
"-444 227 OFFCURVE",
"-471 196 OFFCURVE",
"-471 149 CURVE SMOOTH"
);
},
{
closed = 1;
nodes = (
"-781 162 LINE",
"-781 200 OFFCURVE",
"-799 221 OFFCURVE",
"-830 221 CURVE SMOOTH",
"-848 221 OFFCURVE",
"-864 214 OFFCURVE",
"-877 207 CURVE SMOOTH",
"-884 203 OFFCURVE",
"-891 198 OFFCURVE",
"-897 193 CURVE",
"-899 195 LINE",
"-906 219 LINE",
"-881 233 OFFCURVE",
"-861 243 OFFCURVE",
"-840 252 CURVE SMOOTH",
"-830 256 OFFCURVE",
"-822 258 OFFCURVE",
"-816 258 CURVE SMOOTH",
"-767 258 OFFCURVE",
"-738 231 OFFCURVE",
"-738 186 CURVE SMOOTH",
"-738 181 OFFCURVE",
"-739 173 OFFCURVE",
"-740 162 CURVE SMOOTH",
"-741 152 OFFCURVE",
"-742 140 OFFCURVE",
"-743 127 CURVE SMOOTH",
"-744 114 OFFCURVE",
"-746 102 OFFCURVE",
"-747 89 CURVE SMOOTH",
"-748 77 OFFCURVE",
"-748 67 OFFCURVE",
"-748 58 CURVE SMOOTH",
"-748 41 OFFCURVE",
"-741 33 OFFCURVE",
"-726 33 CURVE SMOOTH",
"-717 33 OFFCURVE",
"-708 36 OFFCURVE",
"-702 39 CURVE",
"-698 41 OFFCURVE",
"-695 44 OFFCURVE",
"-692 47 CURVE",
"-684 38 LINE",
"-693 24 OFFCURVE",
"-702 13 OFFCURVE",
"-713 4 CURVE SMOOTH",
"-719 -1 OFFCURVE",
"-726 -4 OFFCURVE",
"-733 -7 CURVE",
"-763 -7 OFFCURVE",
"-779 8 OFFCURVE",
"-782 38 CURVE",
"-784 39 LINE",
"-798 26 OFFCURVE",
"-810 15 OFFCURVE",
"-821 7 CURVE SMOOTH",
"-832 -1 OFFCURVE",
"-840 -4 OFFCURVE",
"-846 -4 CURVE SMOOTH",
"-866 -4 OFFCURVE",
"-884 3 OFFCURVE",
"-897 15 CURVE SMOOTH",
"-909 27 OFFCURVE",
"-917 44 OFFCURVE",
"-917 64 CURVE SMOOTH",
"-917 86 OFFCURVE",
"-905 104 OFFCURVE",
"-887 109 CURVE SMOOTH",
"-782 138 LINE"
);
},
{
closed = 1;
nodes = (
"-783 117 LINE",
"-858 94 LINE SMOOTH",
"-869 91 OFFCURVE",
"-874 83 OFFCURVE",
"-874 71 CURVE SMOOTH",
"-874 49 OFFCURVE",
"-858 33 OFFCURVE",
"-836 33 CURVE SMOOTH",
"-822 33 OFFCURVE",
"-801 44 OFFCURVE",
"-786 60 CURVE"
);
},
{
closed = 1;
nodes = (
"-108 169 LINE",
"-97 171 OFFCURVE",
"-94 173 OFFCURVE",
"-94 184 CURVE SMOOTH",
"-94 213 OFFCURVE",
"-111 229 OFFCURVE",
"-141 229 CURVE SMOOTH",
"-176 229 OFFCURVE",
"-202 204 OFFCURVE",
"-209 164 CURVE"
);
},
{
closed = 1;
nodes = (
"-211 143 LINE",
"-211 134 LINE SMOOTH",
"-211 103 OFFCURVE",
"-203 77 OFFCURVE",
"-188 59 CURVE SMOOTH",
"-174 42 OFFCURVE",
"-153 31 OFFCURVE",
"-129 31 CURVE SMOOTH",
"-112 31 OFFCURVE",
"-94 35 OFFCURVE",
"-82 39 CURVE SMOOTH",
"-74 42 OFFCURVE",
"-67 45 OFFCURVE",
"-61 48 CURVE",
"-57 47 LINE",
"-51 31 LINE",
"-71 17 OFFCURVE",
"-89 7 OFFCURVE",
"-108 -1 CURVE SMOOTH",
"-118 -4 OFFCURVE",
"-128 -7 OFFCURVE",
"-136 -7 CURVE SMOOTH",
"-171 -7 OFFCURVE",
"-201 6 OFFCURVE",
"-221 27 CURVE SMOOTH",
"-241 49 OFFCURVE",
"-253 79 OFFCURVE",
"-253 116 CURVE SMOOTH",
"-253 154 OFFCURVE",
"-238 189 OFFCURVE",
"-216 216 CURVE SMOOTH",
"-194 242 OFFCURVE",
"-163 258 OFFCURVE",
"-130 258 CURVE SMOOTH",
"-75 258 OFFCURVE",
"-47 231 OFFCURVE",
"-47 177 CURVE",
"-48 162 OFFCURVE",
"-48 161 OFFCURVE",
"-51 150 CURVE",
"-58 143 LINE"
);
},
{
closed = 1;
nodes = (
"1774 -6 OFFCURVE",
"1805 14 OFFCURVE",
"1827 32 CURVE",
"1828 32 OFFCURVE",
"1830 32 OFFCURVE",
"1831 31 CURVE",
"1854 1 OFFCURVE",
"1881 -7 OFFCURVE",
"1908 -7 CURVE SMOOTH",
"1933 -7 OFFCURVE",
"1972 9 OFFCURVE",
"1996 36 CURVE",
"1997 38 OFFCURVE",
"1997 49 OFFCURVE",
"1996 52 CURVE",
"1975 36 OFFCURVE",
"1954 28 OFFCURVE",
"1931 28 CURVE SMOOTH",
"1906 28 OFFCURVE",
"1888 38 OFFCURVE",
"1873 53 CURVE SMOOTH",
"1859 68 OFFCURVE",
"1852 90 OFFCURVE",
"1852 107 CURVE",
"1852 109 OFFCURVE",
"1852 111 OFFCURVE",
"1854 111 CURVE",
"1887 119 OFFCURVE",
"1984 142 OFFCURVE",
"1991 144 CURVE",
"1993 147 OFFCURVE",
"1995 153 OFFCURVE",
"1995 156 CURVE",
"1990 158 OFFCURVE",
"1986 162 OFFCURVE",
"1986 163 CURVE",
"1982 182 OFFCURVE",
"1967 227 OFFCURVE",
"1915 227 CURVE SMOOTH",
"1898 227 OFFCURVE",
"1868 218 OFFCURVE",
"1844 196 CURVE",
"1843 194 OFFCURVE",
"1841 196 OFFCURVE",
"1840 196 CURVE",
"1828 216 OFFCURVE",
"1809 227 OFFCURVE",
"1785 227 CURVE SMOOTH",
"1771 227 OFFCURVE",
"1736 213 OFFCURVE",
"1712 196 CURVE",
"1708 193 OFFCURVE",
"1701 171 OFFCURVE",
"1699 164 CURVE SMOOTH",
"1699 161 OFFCURVE",
"1715 152 OFFCURVE",
"1716 154 CURVE",
"1723 171 OFFCURVE",
"1733 190 OFFCURVE",
"1739 194 CURVE",
"1742 196 OFFCURVE",
"1749 199 OFFCURVE",
"1762 199 CURVE SMOOTH",
"1777 199 OFFCURVE",
"1794 193 OFFCURVE",
"1803 178 CURVE SMOOTH",
"1809 169 OFFCURVE",
"1813 154 OFFCURVE",
"1813 143 CURVE SMOOTH",
"1813 139 OFFCURVE",
"1813 130 OFFCURVE",
"1812 125 CURVE",
"1812 123 OFFCURVE",
"1810 121 OFFCURVE",
"1808 120 CURVE SMOOTH",
"1788 113 OFFCURVE",
"1721 98 OFFCURVE",
"1703 88 CURVE",
"1701 84 OFFCURVE",
"1693 67 OFFCURVE",
"1693 57 CURVE SMOOTH",
"1693 38 OFFCURVE",
"1701 21 OFFCURVE",
"1712 9 CURVE SMOOTH",
"1721 0 OFFCURVE",
"1737 -7 OFFCURVE",
"1747 -7 CURVE SMOOTH"
);
},
{
closed = 1;
nodes = (
"1811 82 OFFCURVE",
"1816 63 OFFCURVE",
"1821 51 CURVE",
"1822 48 OFFCURVE",
"1822 47 OFFCURVE",
"1820 45 CURVE",
"1807 33 OFFCURVE",
"1792 27 OFFCURVE",
"1775 27 CURVE SMOOTH",
"1751 27 OFFCURVE",
"1737 43 OFFCURVE",
"1737 64 CURVE SMOOTH",
"1737 70 OFFCURVE",
"1739 81 OFFCURVE",
"1742 82 CURVE SMOOTH",
"1753 88 OFFCURVE",
"1789 97 OFFCURVE",
"1808 103 CURVE",
"1809 103 OFFCURVE",
"1811 101 OFFCURVE",
"1811 101 CURVE SMOOTH"
);
},
{
closed = 1;
nodes = (
"1927 206 OFFCURVE",
"1941 177 OFFCURVE",
"1944 156 CURVE",
"1944 154 OFFCURVE",
"1943 151 OFFCURVE",
"1942 151 CURVE",
"1929 147 OFFCURVE",
"1877 134 OFFCURVE",
"1853 129 CURVE",
"1851 129 OFFCURVE",
"1851 132 OFFCURVE",
"1851 133 CURVE",
"1849 176 OFFCURVE",
"1868 206 OFFCURVE",
"1896 206 CURVE SMOOTH"
);
},
{
closed = 1;
nodes = (
"2218 37 OFFCURVE",
"2198 30 OFFCURVE",
"2176 30 CURVE SMOOTH",
"2151 30 OFFCURVE",
"2132 37 OFFCURVE",
"2115 54 CURVE SMOOTH",
"2102 69 OFFCURVE",
"2093 92 OFFCURVE",
"2092 111 CURVE",
"2092 114 OFFCURVE",
"2093 117 OFFCURVE",
"2096 117 CURVE",
"2142 118 OFFCURVE",
"2218 123 OFFCURVE",
"2241 129 CURVE",
"2243 131 OFFCURVE",
"2246 140 OFFCURVE",
"2246 142 CURVE",
"2240 144 OFFCURVE",
"2238 146 OFFCURVE",
"2237 148 CURVE",
"2233 179 OFFCURVE",
"2213 227 OFFCURVE",
"2159 227 CURVE SMOOTH",
"2142 227 OFFCURVE",
"2117 220 OFFCURVE",
"2099 209 CURVE SMOOTH",
"2071 190 OFFCURVE",
"2051 157 OFFCURVE",
"2051 108 CURVE SMOOTH",
"2051 77 OFFCURVE",
"2059 43 OFFCURVE",
"2082 20 CURVE SMOOTH",
"2099 3 OFFCURVE",
"2121 -7 OFFCURVE",
"2150 -7 CURVE SMOOTH",
"2176 -7 OFFCURVE",
"2214 7 OFFCURVE",
"2238 35 CURVE",
"2239 37 OFFCURVE",
"2242 46 OFFCURVE",
"2241 50 CURVE",
"2241 52 OFFCURVE",
"2239 53 OFFCURVE",
"2239 53 CURVE"
);
},
{
closed = 1;
nodes = (
"2172 206 OFFCURVE",
"2191 174 OFFCURVE",
"2193 147 CURVE",
"2193 144 OFFCURVE",
"2192 143 OFFCURVE",
"2191 142 CURVE",
"2179 139 OFFCURVE",
"2114 137 OFFCURVE",
"2096 138 CURVE",
"2094 138 OFFCURVE",
"2093 141 OFFCURVE",
"2093 142 CURVE",
"2096 182 OFFCURVE",
"2116 206 OFFCURVE",
"2142 206 CURVE SMOOTH"
);
},
{
closed = 1;
nodes = (
"1536 141 OFFCURVE",
"1537 134 OFFCURVE",
"1536 129 CURVE",
"1536 128 OFFCURVE",
"1533 124 OFFCURVE",
"1532 124 CURVE SMOOTH",
"1511 113 OFFCURVE",
"1446 98 OFFCURVE",
"1427 88 CURVE",
"1424 84 OFFCURVE",
"1417 67 OFFCURVE",
"1417 56 CURVE SMOOTH",
"1417 37 OFFCURVE",
"1425 19 OFFCURVE",
"1436 7 CURVE",
"1445 -1 OFFCURVE",
"1456 -7 OFFCURVE",
"1467 -7 CURVE SMOOTH",
"1481 -7 OFFCURVE",
"1504 4 OFFCURVE",
"1533 22 CURVE",
"1533 23 OFFCURVE",
"1535 22 OFFCURVE",
"1535 22 CURVE",
"1536 17 OFFCURVE",
"1537 11 OFFCURVE",
"1539 8 CURVE",
"1543 -1 OFFCURVE",
"1552 -7 OFFCURVE",
"1568 -7 CURVE SMOOTH",
"1581 -7 OFFCURVE",
"1600 -2 OFFCURVE",
"1613 13 CURVE",
"1615 14 OFFCURVE",
"1616 27 OFFCURVE",
"1616 29 CURVE",
"1609 27 OFFCURVE",
"1605 27 OFFCURVE",
"1596 27 CURVE SMOOTH",
"1579 27 OFFCURVE",
"1575 37 OFFCURVE",
"1575 49 CURVE SMOOTH",
"1575 71 OFFCURVE",
"1577 114 OFFCURVE",
"1577 143 CURVE SMOOTH",
"1577 163 OFFCURVE",
"1574 182 OFFCURVE",
"1564 198 CURVE",
"1552 216 OFFCURVE",
"1534 227 OFFCURVE",
"1509 227 CURVE SMOOTH",
"1496 227 OFFCURVE",
"1461 213 OFFCURVE",
"1437 197 CURVE",
"1433 193 OFFCURVE",
"1425 172 OFFCURVE",
"1424 164 CURVE SMOOTH",
"1423 159 OFFCURVE",
"1438 151 OFFCURVE",
"1440 153 CURVE",
"1447 171 OFFCURVE",
"1457 188 OFFCURVE",
"1463 193 CURVE",
"1466 195 OFFCURVE",
"1473 198 OFFCURVE",
"1486 198 CURVE SMOOTH",
"1502 198 OFFCURVE",
"1518 191 OFFCURVE",
"1528 177 CURVE SMOOTH",
"1534 168 OFFCURVE",
"1536 156 OFFCURVE",
"1536 144 CURVE SMOOTH"
);
},
{
closed = 1;
nodes = (
"1536 96 OFFCURVE",
"1536 59 OFFCURVE",
"1534 48 CURVE SMOOTH",
"1534 42 OFFCURVE",
"1532 37 OFFCURVE",
"1528 35 CURVE",
"1519 29 OFFCURVE",
"1507 26 OFFCURVE",
"1500 26 CURVE SMOOTH",
"1476 26 OFFCURVE",
"1461 42 OFFCURVE",
"1461 64 CURVE SMOOTH",
"1461 70 OFFCURVE",
"1464 81 OFFCURVE",
"1467 82 CURVE",
"1477 89 OFFCURVE",
"1512 100 OFFCURVE",
"1533 107 CURVE",
"1534 108 OFFCURVE",
"1536 106 OFFCURVE",
"1536 105 CURVE SMOOTH"
);
},
{
closed = 1;
nodes = (
"889 472 OFFCURVE",
"823 453 OFFCURVE",
"792 432 CURVE SMOOTH",
"733 392 OFFCURVE",
"721 322 OFFCURVE",
"726 298 CURVE",
"806 330 LINE",
"802 356 OFFCURVE",
"808 377 OFFCURVE",
"823 394 CURVE SMOOTH",
"830 402 OFFCURVE",
"843 412 OFFCURVE",
"857 416 CURVE SMOOTH",
"878 421 OFFCURVE",
"904 419 OFFCURVE",
"919 406 CURVE SMOOTH",
"939 390 OFFCURVE",
"940 377 OFFCURVE",
"940 329 CURVE SMOOTH",
"940 305 OFFCURVE",
"940 252 OFFCURVE",
"940 244 CURVE",
"885 225 OFFCURVE",
"741 173 OFFCURVE",
"717 161 CURVE",
"703 147 OFFCURVE",
"702 92 OFFCURVE",
"710 65 CURVE SMOOTH",
"722 26 OFFCURVE",
"763 -9 OFFCURVE",
"823 -9 CURVE SMOOTH",
"872 -9 OFFCURVE",
"955 38 OFFCURVE",
"998 64 CURVE",
"993 128 LINE",
"993 287 LINE",
"1021 362 LINE",
"1021 417 OFFCURVE",
"995 446 OFFCURVE",
"942 459 CURVE SMOOTH"
);
},
{
closed = 1;
nodes = (
"940 170 OFFCURVE",
"968 129 OFFCURVE",
"968 92 CURVE",
"896 56 OFFCURVE",
"852 43 OFFCURVE",
"817 65 CURVE SMOOTH",
"781 88 OFFCURVE",
"782 126 OFFCURVE",
"788 136 CURVE SMOOTH",
"794 146 OFFCURVE",
"879 179 OFFCURVE",
"940 200 CURVE"
);
},
{
closed = 1;
nodes = (
"1318 400 OFFCURVE",
"1242 463 OFFCURVE",
"1157 464 CURVE SMOOTH",
"1109 464 OFFCURVE",
"1057 444 OFFCURVE",
"1016 406 CURVE SMOOTH",
"997 388 OFFCURVE",
"979 364 OFFCURVE",
"966 336 CURVE",
"956 235 LINE",
"938 221 LINE",
"937 144 OFFCURVE",
"966 54 OFFCURVE",
"1051 11 CURVE SMOOTH",
"1158 -45 OFFCURVE",
"1264 30 OFFCURVE",
"1305 90 CURVE",
"1284 108 LINE",
"1244 72 OFFCURVE",
"1172 42 OFFCURVE",
"1096 89 CURVE SMOOTH",
"994 153 OFFCURVE",
"979 344 OFFCURVE",
"1084 400 CURVE SMOOTH",
"1153 436 OFFCURVE",
"1214 392 OFFCURVE",
"1214 328 CURVE",
"1002 261 LINE",
"1002 222 LINE",
"1306 288 LINE"
);
},
{
closed = 1;
nodes = (
"217 472 OFFCURVE",
"151 453 OFFCURVE",
"120 432 CURVE SMOOTH",
"61 392 OFFCURVE",
"48 322 OFFCURVE",
"54 298 CURVE",
"134 330 LINE",
"129 356 OFFCURVE",
"136 377 OFFCURVE",
"151 394 CURVE SMOOTH",
"158 402 OFFCURVE",
"171 412 OFFCURVE",
"184 416 CURVE SMOOTH",
"206 421 OFFCURVE",
"232 419 OFFCURVE",
"247 406 CURVE SMOOTH",
"267 390 OFFCURVE",
"268 377 OFFCURVE",
"268 329 CURVE SMOOTH",
"268 305 OFFCURVE",
"268 257 OFFCURVE",
"268 250 CURVE",
"213 231 OFFCURVE",
"68 179 OFFCURVE",
"44 167 CURVE",
"31 153 OFFCURVE",
"29 92 OFFCURVE",
"38 65 CURVE SMOOTH",
"49 26 OFFCURVE",
"91 -9 OFFCURVE",
"151 -9 CURVE SMOOTH",
"200 -9 OFFCURVE",
"283 38 OFFCURVE",
"326 64 CURVE",
"321 128 LINE",
"321 287 LINE",
"348 362 LINE",
"348 417 OFFCURVE",
"323 446 OFFCURVE",
"269 459 CURVE SMOOTH"
);
},
{
closed = 1;
nodes = (
"268 176 OFFCURVE",
"296 129 OFFCURVE",
"296 92 CURVE",
"224 56 OFFCURVE",
"179 43 OFFCURVE",
"145 65 CURVE SMOOTH",
"109 88 OFFCURVE",
"110 131 OFFCURVE",
"116 142 CURVE SMOOTH",
"122 151 OFFCURVE",
"207 185 OFFCURVE",
"268 206 CURVE"
);
},
{
closed = 1;
nodes = (
"646 400 OFFCURVE",
"570 463 OFFCURVE",
"484 464 CURVE SMOOTH",
"437 464 OFFCURVE",
"384 444 OFFCURVE",
"344 406 CURVE SMOOTH",
"324 388 OFFCURVE",
"307 364 OFFCURVE",
"293 336 CURVE",
"284 235 LINE",
"266 221 LINE",
"264 144 OFFCURVE",
"294 54 OFFCURVE",
"378 11 CURVE SMOOTH",
"486 -45 OFFCURVE",
"592 30 OFFCURVE",
"633 90 CURVE",
"612 108 LINE",
"572 72 OFFCURVE",
"499 42 OFFCURVE",
"424 89 CURVE SMOOTH",
"322 153 OFFCURVE",
"307 344 OFFCURVE",
"412 400 CURVE SMOOTH",
"481 436 OFFCURVE",
"542 392 OFFCURVE",
"542 328 CURVE",
"330 261 LINE",
"330 222 LINE",
"634 288 LINE"
);
}
);
};
layerId = "6D97EE47-94AA-478E-ABFB-936E6C32B491";
paths = (
{
closed = 1;
nodes = (
"323 446 OFFCURVE",
"348 417 OFFCURVE",
"348 362 CURVE",
"321 287 LINE",
"321 128 LINE",
"326 64 LINE",
"283 38 OFFCURVE",
"200 -9 OFFCURVE",
"151 -9 CURVE SMOOTH",
"91 -9 OFFCURVE",
"49 26 OFFCURVE",
"38 65 CURVE SMOOTH",
"29 92 OFFCURVE",
"31 153 OFFCURVE",
"44 167 CURVE",
"68 179 OFFCURVE",
"213 231 OFFCURVE",
"268 250 CURVE",
"268 257 OFFCURVE",
"268 305 OFFCURVE",
"268 329 CURVE SMOOTH",
"268 377 OFFCURVE",
"267 390 OFFCURVE",
"247 406 CURVE SMOOTH",
"232 419 OFFCURVE",
"206 421 OFFCURVE",
"184 416 CURVE SMOOTH",
"171 412 OFFCURVE",
"158 402 OFFCURVE",
"151 394 CURVE SMOOTH",
"136 377 OFFCURVE",
"129 356 OFFCURVE",
"134 330 CURVE",
"54 298 LINE",
"48 322 OFFCURVE",
"61 392 OFFCURVE",
"120 432 CURVE SMOOTH",
"151 453 OFFCURVE",
"217 472 OFFCURVE",
"269 459 CURVE SMOOTH"
);
},
{
closed = 1;
nodes = (
"213 187 OFFCURVE",
"122 151 OFFCURVE",
"116 142 CURVE SMOOTH",
"110 131 OFFCURVE",
"109 88 OFFCURVE",
"145 65 CURVE SMOOTH",
"179 43 OFFCURVE",
"225 57 OFFCURVE",
"302 96 CURVE",
"302 133 OFFCURVE",
"273 177 OFFCURVE",
"273 207 CURVE"
);
},
{
closed = 1;
nodes = (
"334 224 LINE",
"334 268 LINE",
"549 342 LINE",
"549 401 OFFCURVE",
"484 436 OFFCURVE",
"416 400 CURVE SMOOTH",
"311 344 OFFCURVE",
"326 153 OFFCURVE",
"428 89 CURVE SMOOTH",
"503 42 OFFCURVE",
"576 72 OFFCURVE",
"616 108 CURVE",
"637 90 LINE",
"596 30 OFFCURVE",
"490 -45 OFFCURVE",
"382 11 CURVE SMOOTH",
"298 54 OFFCURVE",
"268 144 OFFCURVE",
"270 221 CURVE",
"296 258 LINE",
"304 303 LINE",
"298 338 LINE",
"312 365 OFFCURVE",
"329 388 OFFCURVE",
"348 406 CURVE SMOOTH",
"388 444 OFFCURVE",
"441 464 OFFCURVE",
"488 464 CURVE SMOOTH",
"574 463 OFFCURVE",
"646 394 OFFCURVE",
"638 317 CURVE"
);
}
);
width = 661;
}
);
leftKerningGroup = a;
leftMetricsKey = a;
rightKerningGroup = ae;
rightMetricsKey = e;
unicode = 00E6;
},
